<?xml version="1.0" standalone="no"?>
<!DOCTYPE svg PUBLIC "-//W3C//DTD SVG 1.1//EN" "http://www.w3.org/Graphics/SVG/1.1/DTD/svg11.dtd" >
<svg>
<metadata>
Created by FontForge 20090914 at Thu Jan  4 13:32:55 2018
 By www-data
Copyright &#194;&#169; 2017 by Bhavika Malhotra. All rights reserved.
</metadata>
<defs>
<font id="Berrylicious-Regular" horiz-adv-x="600" >
  <font-face 
    font-family="Berrylicious"
    font-weight="400"
    font-stretch="normal"
    units-per-em="1000"
    panose-1="2 0 6 3 0 0 0 0 0 0"
    ascent="800"
    descent="-200"
    x-height="527.003"
    cap-height="777.998"
    bbox="-127.001 -362 967 1107"
    underline-thickness="50"
    underline-position="-100"
    unicode-range="U+000D-U+F8FE"
  />
<missing-glyph horiz-adv-x="364" 
d="M33 666h265v-666h-265v666zM265 33v600h-199v-600h199z" />
    <glyph glyph-name=".notdef" horiz-adv-x="364" 
d="M33 666h265v-666h-265v666zM265 33v600h-199v-600h199z" />
    <glyph glyph-name="uni0000" horiz-adv-x="0" 
 />
    <glyph glyph-name="uni0000" horiz-adv-x="0" 
 />
    <glyph glyph-name="uni000D" unicode="&#xd;" horiz-adv-x="333" 
 />
    <glyph glyph-name="space" unicode=" " horiz-adv-x="300" 
 />
    <glyph glyph-name="exclam" unicode="!" horiz-adv-x="250" 
d="M191 618c-2.66699 -90.667 -3.99902 -157.332 -3.99902 -199.999c0 -90.667 4 -172.334 12 -245.001c0.666992 -9.33301 -2 -17.5 -8 -24.5s-14 -10.5 -24 -10.5c-8 0 -15.167 2.66699 -21.5 8s-10.166 12 -11.499 20c-8 75.333 -12 159 -12 251
c0 44.667 1.33301 112.334 4 203.001l2 79c0.666992 9.33301 4.16699 17 10.5 23s14.166 9 23.499 9c8.66699 0 16.167 -3.33301 22.5 -10s9.16602 -14.334 8.49902 -23.001zM215.001 97.002c7.33301 -9.33301 11.001 -23.333 11.001 -42c0 -8.66699 -1 -18.667 -3 -30
c-4 -18 -11 -30.333 -21 -37c-7.33301 -5.33301 -15.333 -8 -24 -8c-12 0 -23.333 5.33301 -34 16c-16.667 16.667 -25 35 -25 55c0 9.33301 1.83301 18 5.5 26s8.5 14.667 14.5 20c11.333 9.33301 25.333 13 42 11h3c13.333 2 23.666 -1.66699 30.999 -11z" />
    <glyph glyph-name="quotedbl" unicode="&#x22;" horiz-adv-x="304" 
d="M117 570l1.99805 -134c0 -9.33301 -3 -17.166 -9 -23.499s-13.667 -9.5 -23 -9.5s-17.166 3.16699 -23.499 9.5s-9.5 14.166 -9.5 23.499l-2 132l-2 135c0 8.66699 3.16699 16.167 9.5 22.5s13.833 9.5 22.5 9.5s16.334 -3.16699 23.001 -9.5s10 -13.833 10 -22.5z
M272.998 530c0 -20 1.00098 -39.668 3.00098 -59.001c1.33301 -10 -1.16699 -18.5 -7.5 -25.5s-14.5 -10.5 -24.5 -10.5c-8.66699 0 -16 2.5 -22 7.5s-9.33301 11.833 -10 20.5c-3.33301 24.667 -5 47 -5 67c0 19.333 1 42 3 68l1 21l4 71c0 9.33301 3.16699 17 9.5 23
s14.166 9 23.499 9s17 -3.16699 23 -9.5s9 -14.166 9 -23.499l-4 -74c-2 -34.667 -3 -63 -3 -85z" />
    <glyph glyph-name="numbersign" unicode="#" 
d="M543 500c9.33301 0 17.1699 -3.00293 23.5029 -9.00293s9.5 -13.667 9.5 -23s-3.16699 -17.166 -9.5 -23.499s-14.166 -9.5 -23.499 -9.5c-45.333 0 -83.333 -0.333008 -114 -1l-32 -116h112c9.33301 0 17.166 -3 23.499 -9s9.5 -13.667 9.5 -23
s-3.16699 -17.166 -9.5 -23.499s-14.166 -9.5 -23.499 -9.5h-131c-30.667 -100 -58 -180.667 -82 -242c-2.66699 -6.66699 -6.66699 -11.834 -12 -15.501s-11.333 -5.5 -18 -5.5c-4.66699 0 -8.33398 0.666992 -11.001 2c-6.66699 2.66699 -11.834 6.66699 -15.501 12
s-5.5 11.333 -5.5 18c0 5.33301 0.666992 9.33301 2 12c20.667 52.667 45 125 73 217c-10 0 -17.667 -0.333008 -23 -1l-76 -4c-28.667 -85.333 -59.334 -164 -92.001 -236c-3.33301 -5.33301 -7.5 -9.66602 -12.5 -12.999s-10.5 -5 -16.5 -5c-4 0 -8.66699 1 -14 3
c-6 2.66699 -10.667 6.66699 -14 12s-5 11 -5 17c0 4.66699 1 9 3 13c30 65.333 56.667 133 80 203c-33.333 -4 -57.666 -7.33301 -72.999 -10c-10 -1.33301 -18.667 1.33398 -26 8.00098s-11 15 -11 25c0 8 2.5 14.833 7.5 20.5s11.5 9.16699 19.5 10.5
c42 6 77.333 10.333 106 13l39 125l-97 2c-9.33301 0.666992 -17 4.16699 -23 10.5s-8.66699 14.166 -8 23.499c0 8.66699 3.16699 16 9.5 22s14.166 9 23.499 9l113 -2l18 64l14 50l15 51l14 51c2.66699 8.66699 8 15.167 16 19.5s16.333 5.5 25 3.5
c8 -2.66699 14.167 -8 18.5 -16s5.5 -16.333 3.5 -25c-6 -17.333 -11 -34 -15 -50c-3.33301 -13.333 -8 -30.666 -14 -51.999l-14 -50l-13 -45h50c16.667 0 30.667 0.333008 42 1c18 71.333 31.333 134.333 40 189c2 8.66699 6.66699 15.667 14 21s15.333 7.33301 24 6
c8.66699 -2 15.667 -6.66699 21 -14s7.33301 -15.333 6 -24c-10.667 -58.667 -23.334 -118 -38.001 -178c24.667 0.666992 57 1 97 1zM268.004 431.997l-36 -120l51 3l46 2l33 116h-25c-32 0 -55 -0.333008 -69 -1z" />
    <glyph glyph-name="dollar" unicode="$" horiz-adv-x="544" 
d="M338 695c40 -5.33301 74.332 -19.1689 102.999 -41.502s43 -51.5 43 -87.5c0 -14.667 -2.33301 -29.334 -7 -44.001c-2 -6.66699 -5.83301 -12 -11.5 -16s-12.167 -6 -19.5 -6c-9.33301 0 -17 3.33301 -23 10s-9 14.334 -9 23.001c0 4 0.333008 7 1 9c2 8 3 15 3 21
c0 17.333 -7.16699 31.333 -21.5 42s-32.5 18.334 -54.5 23.001c0 -6 0.333008 -10 1 -12c1.33301 -28.667 1.66602 -49.667 0.999023 -63l-3 -162c29.333 -14 54.833 -27.667 76.5 -41s40.5 -28.333 56.5 -45c30 -30.667 45 -65.667 45 -105
c0 -36.667 -12.5 -72.334 -37.5 -107.001s-56.5 -62 -94.5 -82c-18 -9.33301 -38.333 -17.333 -61 -24c-2.66699 -64.667 -5 -114 -7 -148c-0.666992 -8 -4 -15 -10 -21s-13.333 -9 -22 -9c-9.33301 0 -17.333 3.33301 -24 10s-9.66699 14.667 -9 24
c2.66699 62 5 106.667 7 134c-12.667 0 -22 0.333008 -28 1c-46 3.33301 -82.667 19 -110 47s-41 65.333 -41 112c0 29.333 5.33301 60 16 92c2 6.66699 5.83301 11.834 11.5 15.501s12.167 5.5 19.5 5.5c9.33301 0 16.833 -3.16699 22.5 -9.5s8.5 -13.833 8.5 -22.5
c0 -4.66699 -0.333008 -8 -1 -10c-8.66699 -26 -13 -49.667 -13 -71c0 -29.333 8.33301 -51.833 25 -67.5s39.334 -24.5 68.001 -26.5c5.33301 -0.666992 13.666 -1 24.999 -1c5.33301 128.667 9 231.667 11 309c-28 14 -51.167 26.167 -69.5 36.5
s-34.5 21.166 -48.5 32.499c-20.667 16 -36.5 34.667 -47.5 56s-16.5 43 -16.5 65c0 24 6.33301 46.833 19 68.5s31.334 40.167 56.001 55.5c30.667 18.667 65.667 29.334 105 32.001c0 32 0.333008 57.667 1 77c0 8.66699 3.33301 16.167 10 22.5s14.334 9.5 23.001 9.5
c9.33301 -0.666992 17 -4.16699 23 -10.5s9 -14.166 9 -23.499c-0.666992 -19.333 -1 -45 -1 -77zM277.999 611.997l-2 20.001c-32 -2.66699 -59.667 -12.167 -83 -28.5s-35 -38.833 -35 -67.5c0 -20 8.16699 -37.5 24.5 -52.5s38.166 -30.167 65.499 -45.5l28 -15l3 131
c0.666992 11.333 0.333984 30.666 -0.999023 57.999zM328.999 55.998c10.667 4.66699 19.999 9 27.999 13c28 15.333 50.833 34.833 68.5 58.5s26.5 47.5 26.5 71.5s-8.33301 44.333 -25 61c-12.667 13.333 -31.667 27.333 -57 42c-13.333 8 -23.666 13.667 -30.999 17
c-4 -115.333 -7.33301 -203 -10 -263z" />
    <glyph glyph-name="percent" unicode="%" horiz-adv-x="774" 
d="M450 377.5c74.667 135 128.998 245.499 162.998 331.499c2.66699 6 6.83398 10.833 12.501 14.5s11.834 5.5 18.501 5.5c9.33301 0 17.166 -3.33301 23.499 -10s9.5 -14.334 9.5 -23.001c0 -4 -1 -8 -3 -12c-35.333 -87.333 -91 -199.166 -167 -335.499
s-150.333 -261.166 -223 -374.499c-8 -10 -17 -15 -27 -15c-6 0 -12 2 -18 6c-10 6 -15 14.667 -15 26c0 5.33301 1.66699 11.333 5 18c72.667 110.667 146.334 233.5 221.001 368.5zM392.998 504.999c0 -18 -4.16895 -35.334 -12.502 -52.001s-20.166 -30.667 -35.499 -42
c-17.333 -13.333 -35 -20 -53 -20c-20 0 -38 7.83301 -54 23.5s-27.333 37.834 -34 66.501c-2 9.33301 -3 18.333 -3 27c0 18 3.83301 35.833 11.5 53.5s18.167 32.167 31.5 43.5c17.333 16 36 24 56 24c13.333 0 26.333 -4 39 -12s23.667 -19.333 33 -34
c4.66699 -6 6.33398 -13.667 5.00098 -23c10.667 -16.667 16 -35 16 -55zM300.996 563.998c-4 0 -8.33301 -2.33398 -13 -7.00098c-6.66699 -6.66699 -12 -14.667 -16 -24s-6 -18.333 -6 -27c0 -4.66699 0.333008 -8 1 -10c3.33301 -13.333 7.33301 -23.333 12 -30
c4.66699 -6 9 -9 13 -9c3.33301 0 8 2 14 6c6.66699 4.66699 12 11 16 19s6 16 6 24s-2.66699 15.667 -8 23c-6.66699 6.66699 -9 15.334 -7 26.001c-4 5.33301 -8 8.33301 -12 9zM749.996 218.997c1.33301 -22.667 -3.00195 -47.832 -13.002 -75.499
s-23.333 -49.5 -40 -65.5c-16.667 -16.667 -37 -25 -61 -25c-21.333 0 -41 7.16699 -59 21.5s-30.333 34.166 -37 59.499c-2.66699 10.667 -4 22.667 -4 36c0 28.667 6.66699 56.167 20 82.5s31 44.833 53 55.5c10.667 5.33301 22.334 8 35.001 8
c22.667 0 44.334 -11.333 65.001 -34c2.66699 -2 4.66699 -4.66699 6 -8c20 -8.66699 31.667 -27 35 -55zM644.994 249.999c-1.33301 0.666992 -3.99902 0.334961 -7.99902 -0.998047c-9.33301 -4.66699 -17.666 -14.834 -24.999 -30.501s-11 -31.834 -11 -48.501
c0 -8.66699 0.666992 -15 2 -19c5.33301 -18 15.666 -29.333 30.999 -34h3c4.66699 0 9.66699 2.33301 15 7c10 10 18.167 24 24.5 42s9.16602 34 8.49902 48v1c-8.66699 2.66699 -14.667 9 -18 19l-6 4c-4.66699 6.66699 -10 10.667 -16 12z" />
    <glyph glyph-name="ampersand" unicode="&#x26;" 
d="M481 324c0 9.33301 3.16797 17.1641 9.50098 23.4971s14.166 9.5 23.499 9.5s17 -3.16699 23 -9.5s9 -14.166 9 -23.499c0 -53.333 -17 -109.666 -51 -168.999c36.667 -42 62 -74.667 76 -98c2.66699 -4.66699 4 -10.334 4 -17.001c0 -12.667 -5 -21.667 -15 -27
c-6.66699 -3.33301 -12.667 -5 -18 -5c-11.333 0 -20.333 5.33301 -27 16c-12 20.667 -31 46 -57 76c-28.667 -37.333 -62.667 -69.833 -102 -97.5s-81.333 -41.5 -126 -41.5c-29.333 0 -58.333 9.83301 -87 29.5s-52 45.5 -70 77.5s-27 65.667 -27 101
c0 34.667 9 66.667 27 96c14 24 32.167 46.167 54.5 66.5s48.833 41.5 79.5 63.5c-14.667 22 -26.667 43 -36 63c-18 39.333 -27 74 -27 104c0 48 20.333 86.667 61 116c16.667 12.667 35.5 22.334 56.5 29.001s41.833 10 62.5 10c28 0 52 -5.66699 72 -17
c18.667 -10.667 33.5 -25.5 44.5 -44.5s16.5 -39.833 16.5 -62.5c0 -40 -16 -79 -48 -117c-12.667 -15.333 -27.667 -30.166 -45 -44.499s-39.666 -31.5 -66.999 -51.5c5.33301 -6.66699 9.66602 -11.667 12.999 -15c22.667 -29.333 50.667 -62 84 -98l26 -29l6 -6l20 -22
l3 -3c21.333 42.667 32 81.667 32 117zM360.501 518.998c20.333 23.333 30.499 47.001 30.499 71.001c0 20 -5.66699 35.5 -17 46.5s-27.333 16.5 -48 16.5c-27.333 0 -52.166 -7.33301 -74.499 -22s-35.5 -31.334 -39.5 -50.001c-1.33301 -8 -2 -14.667 -2 -20
c0 -34 16.667 -76.667 50 -128c46.667 34 80.167 62.667 100.5 86zM173.5 284.999c-19 -17.333 -34.168 -35.334 -45.501 -54.001c-12 -18.667 -18 -39 -18 -61c0 -27.333 11.667 -58.666 35 -93.999c22.667 -33.333 51 -50 85 -50c34.667 0 72.334 16.333 113.001 49
c28 22.667 51.667 47.334 71 74.001l-16 17c-4 5.33301 -10.667 12.666 -20 21.999l-6 6l-26 29c-34 37.333 -63 71 -87 101l-14 18c-28.667 -20.667 -52.5 -39.667 -71.5 -57z" />
    <glyph glyph-name="quotesingle" unicode="'" horiz-adv-x="187" 
d="M157 565c1.33301 -26.667 2.00098 -58.335 2.00098 -95.002c0 -9.33301 -3.16699 -17.166 -9.5 -23.499s-13.833 -9.5 -22.5 -9.5s-16.334 3.16699 -23.001 9.5s-10 14.166 -10 23.499c0 36 -0.666992 67.333 -2 94c-0.666992 48.667 1.33301 90.667 6 126
c0.666992 8.66699 4 15.667 10 21s13.333 8 22 8c10 0 18.167 -3.66699 24.5 -11s8.83301 -15.666 7.5 -24.999c-4 -35.333 -5.66699 -74.666 -5 -117.999z" />
    <glyph glyph-name="parenleft" unicode="(" horiz-adv-x="337" 
d="M197 529c-24.667 -70 -36.999 -148.667 -36.999 -236c0 -84.667 11.667 -166.334 35 -245.001s55 -142.334 95 -191.001c4.66699 -5.33301 7 -12.333 7 -21c0 -10.667 -4 -19 -12 -25c-5.33301 -4.66699 -12 -7 -20 -7c-11.333 0 -20 4 -26 12
c-43.333 55.333 -77.833 124.833 -103.5 208.5s-39.167 171.167 -40.5 262.5c-0.666992 96.667 12.833 184.834 40.5 264.501s68.834 142.834 123.501 189.501c5.33301 5.33301 12.333 8 21 8c11.333 0 19.666 -3.66699 24.999 -11c5.33301 -6.66699 8 -14 8 -22
c0 -10 -4 -18 -12 -24c-44.667 -38.667 -79.334 -93 -104.001 -163z" />
    <glyph glyph-name="parenright" unicode=")" horiz-adv-x="275" 
d="M212.5 507.5c25.667 -83 38.5029 -166.833 38.5029 -251.5c0 -88 -13.833 -172.5 -41.5 -253.5s-67.834 -154.833 -120.501 -221.5c-8 -8 -16.667 -12 -26 -12c-6.66699 0 -13.334 2.66699 -20.001 8c-8 6 -12 14.333 -12 25c0 8 2.33301 14.667 7 20
c48 60 84.667 127.167 110 201.5s38 151.833 38 232.5c0 78 -11.833 155 -35.5 231s-57.834 147 -102.501 213c-3.33301 6.66699 -5 13 -5 19c0 5.33301 1.16699 10.5 3.5 15.5s5.83301 8.83301 10.5 11.5c6 4 12 6 18 6c10 0 19 -5 27 -15
c48 -70 84.833 -146.5 110.5 -229.5z" />
    <glyph glyph-name="asterisk" unicode="*" horiz-adv-x="358" 
d="M222 685l-0.995117 -60c0.666992 -2 1 -4.16699 1 -6.5s0.333008 -4.5 1 -6.5h2c11.333 3.33301 31 13.333 59 30c4.66699 2.66699 10.334 4 17.001 4c12.667 0 22 -5 28 -15c2.66699 -4.66699 4 -10.334 4 -17.001c0 -12.667 -5 -22 -15 -28
c-32 -18.667 -57.667 -30.667 -77 -36c0 -0.666992 -0.333008 -1 -1 -1c10.667 -18.667 23 -36.667 37 -54c4.66699 -5.33301 7 -12.333 7 -21c0 -10.667 -4 -19 -12 -25c-5.33301 -4.66699 -12 -7 -20 -7c-11.333 0 -20 4 -26 12c-12.667 16 -24.667 33.333 -36 52
c-1.33301 -2 -5 -6 -11 -12l-38 -44c-6.66699 -8 -15 -12 -25 -12c-6.66699 0 -13.334 2.66699 -20.001 8c-8 6 -12 14.333 -12 25c0 8 2.33301 14.667 7 20c23.333 28 36.666 43.667 39.999 47c13.333 14 20 21.333 20 22c-14.667 5.33301 -41.334 13.333 -80.001 24
c-7.33301 2 -13.166 6 -17.499 12s-6.5 12.667 -6.5 20c0 3.33301 0.333008 6 1 8c1.33301 6.66699 5.16602 12.334 11.499 17.001s13.166 7 20.499 7c3.33301 0 6 -0.333008 8 -1c23.333 -6 46 -12.667 68 -20l1 61c0.666992 7.33301 1 16 1 26
c0.666992 9.33301 4.16699 17 10.5 23s14.166 9 23.499 9c8.66699 0 16.167 -3.33301 22.5 -10s9.16602 -14.334 8.49902 -23.001c0 -11.333 -0.333008 -20.666 -1 -27.999z" />
    <glyph glyph-name="plus" unicode="+" horiz-adv-x="538" 
d="M258 506c0.666992 8 4.33008 14.999 10.9971 20.999s14 9 22 9c8.66699 0 16.334 -3.5 23.001 -10.5s9.66699 -15.167 9 -24.5c-5.33301 -60 -9.66602 -132.667 -12.999 -218c24 0 45.333 -0.333008 64 -1c32.667 -0.666992 68.334 -1 107.001 -1
c9.33301 0 17.166 -3 23.499 -9s9.5 -13.667 9.5 -23s-3.16699 -17.166 -9.5 -23.499s-14.166 -9.5 -23.499 -9.5c-39.333 0 -75.333 0.333008 -108 1c-19.333 0.666992 -40.666 1 -63.999 1c-1.33301 -76 -2 -139.667 -2 -191c0 -8.66699 -3.16699 -16.167 -9.5 -22.5
s-13.833 -9.5 -22.5 -9.5s-16.334 3.16699 -23.001 9.5s-10 13.833 -10 22.5c0 51.333 0.666992 115 2 191c-72 0 -131.333 -3.33301 -178 -10c-9.33301 -0.666992 -17.666 2.33301 -24.999 9s-11 15 -11 25c0 8 2.66699 14.833 8 20.5s12 9.16699 20 10.5
c46.667 6 109 9.66699 187 11c3.33301 86 7.66602 160 12.999 222z" />
    <glyph glyph-name="comma" unicode="," horiz-adv-x="246" 
d="M100.5 -69c7.66699 10.667 15.834 25.6689 24.501 45.002l4 9c0.666992 0.666992 1 1.66699 1 3c-23.333 0.666992 -41.333 19.334 -54 56.001c-2.66699 7.33301 -4 15.666 -4 24.999c0 23.333 9.16699 43.833 27.5 61.5s38.5 26.5 60.5 26.5
c18.667 -0.666992 33.667 -7.83398 45 -21.501s17 -31.5 17 -53.5c0 -28.667 -9.66699 -66.334 -29 -113.001l-2 -5l-2 -4l-4 -10c-10.667 -24.667 -21.834 -44.667 -33.501 -60s-26.5 -29 -44.5 -41c-6.66699 -3.33301 -12.667 -5 -18 -5c-11.333 0 -20 4.66699 -26 14
c-4 6 -6 12.333 -6 19c0 12 4.66699 20.667 14 26c12 8 21.833 17.333 29.5 28z" />
    <glyph glyph-name="hyphen" unicode="-" horiz-adv-x="325" 
d="M118 313c49.333 0 97.667 4 145 12c8.66699 2 16.667 0.5 24 -4.5s12 -12.167 14 -21.5c1.33301 -8.66699 -0.666992 -16.834 -6 -24.501s-12.333 -12.167 -21 -13.5c-56 -8.66699 -110 -13 -162 -13c-12.667 0 -31.667 0.666992 -57 2
c-8.66699 0.666992 -16 4.16699 -22 10.5s-9 13.5 -9 21.5c0 8.66699 3.33301 16.334 10 23.001s14.667 10 24 10c26.667 -1.33301 46.667 -2 60 -2z" />
    <glyph glyph-name="period" unicode="." horiz-adv-x="221" 
d="M139 115c11.333 0.666992 21.166 -2.16992 29.499 -8.50293s14.833 -14.166 19.5 -23.499c5.33301 -10.667 8 -21 8 -31c0 -13.333 -4 -25.333 -12 -36s-19.333 -18 -34 -22c-8 -1.33301 -13.333 -2 -16 -2c-11.333 0 -22 3 -32 9c-7.33301 4 -13.5 9.83301 -18.5 17.5
s-7.5 15.834 -7.5 24.501c0 4.66699 0.333008 8 1 10c2 8.66699 6 16.334 12 23.001c6.66699 24 23.334 37 50.001 39z" />
    <glyph glyph-name="slash" unicode="/" horiz-adv-x="300" 
d="M66 205l27.999 83.002c32.667 98 57.5 176.167 74.5 234.5s31.5 116.5 43.5 174.5c1.33301 8.66699 5.83301 15.5 13.5 20.5s15.834 6.83301 24.501 5.5c8.66699 -2 15.5 -6.83301 20.5 -14.5s6.5 -15.834 4.5 -24.501c-12 -58.667 -26.667 -117.834 -44 -177.501
s-42.666 -139.5 -75.999 -239.5l-27 -82c-26 -80.667 -44.667 -141.667 -56 -183c-2 -6.66699 -5.83301 -12.167 -11.5 -16.5s-12.167 -6.5 -19.5 -6.5c-4 0 -7 0.333008 -9 1c-6.66699 1.33301 -12.334 5 -17.001 11s-7 12.667 -7 20c0 3.33301 0.333008 6 1 8
c14 50.667 33 112.667 57 186z" />
    <glyph glyph-name="zero" unicode="0" horiz-adv-x="511" 
d="M487 365c0 -77.333 -14.667 -148.169 -44 -212.502s-67.666 -112.166 -114.999 -143.499c-31.333 -21.333 -63.333 -32 -96 -32c-28 0 -54.333 8.33301 -79 25c-54.667 39.333 -87.334 114.666 -98.001 225.999c-3.33301 38.667 -5 72.334 -5 101.001
c0 61.333 7 114.333 21 159c8 25.333 22 52.166 42 80.499s42.333 52.5 67 72.5c40 32 78.667 48 116 48c28 0 54 -9 78 -27c40 -29.333 68.667 -70.666 86 -123.999c4 -14.667 7.33301 -33 10 -55c4 -5.33301 6.33301 -9.66602 7 -12.999
c6.66699 -33.333 10 -68.333 10 -105zM420 356.997l-2.00098 13.998l-2 17l-2 18c-1.33301 14.667 -2 23.334 -2 26.001l-1 4c-3.33301 33.333 -7.16602 59.333 -11.499 78s-11.333 35.834 -21 51.501s-24.167 30.5 -43.5 44.5c-12.667 9.33301 -26 14 -40 14
c-22 0 -46.667 -11 -74 -33c-20 -16 -38.167 -35.333 -54.5 -58s-27.5 -44 -33.5 -64c-12 -38.667 -18 -87.334 -18 -146.001c0 -59.333 6.66699 -114.5 20 -165.5s32 -85.167 56 -102.5c13.333 -9.33301 27 -14 41 -14c18.667 0 38.667 7.33301 60 22
c42 27.333 73.5 67.5 94.5 120.5s32.5 106.833 34.5 161.5v4c-0.666992 0.666992 -1 3.33398 -1 8.00098z" />
    <glyph glyph-name="one" unicode="1" horiz-adv-x="386" 
d="M213.5 596c21.667 38.667 39.1641 66.998 52.4971 84.998c12 14.667 19.667 23.667 23 27c12 12 24.333 18 37 18s22.334 -5.33301 29.001 -16c4 -6.66699 6 -15.334 6 -26.001c0.666992 -2.66699 0.666992 -6 0 -10v-3l-4 -50l-3 -44l-4 -43v-2
c-0.666992 -3.33301 -1 -7 -1 -11c-4.66699 -168 -7 -330.333 -7 -487c0 -9.33301 -3 -17.166 -9 -23.499s-13.667 -9.5 -23 -9.5s-17.166 3.16699 -23.499 9.5s-9.5 14.166 -9.5 23.499c0 157.333 2.33301 320.333 7 489c0 6 0.333008 11 1 15v1l4 44
c0.666992 3.33301 1 8.33301 1 15l-14 -25c-26 -46 -47 -85.333 -63 -118c-3.33301 -5.33301 -7.5 -9.66602 -12.5 -12.999s-10.5 -5 -16.5 -5c-9.33301 0 -17.166 3.33301 -23.499 10s-9.5 14.334 -9.5 23.001c0 4.66699 1 9 3 13c18 36.667 37.833 74.334 59.5 113.001z
" />
    <glyph glyph-name="two" unicode="2" horiz-adv-x="603" 
d="M46 53c0.666992 0.666992 1.49902 1.33398 2.49902 2.00098s2.5 1.33398 4.5 2.00098c12.667 18.667 37.334 48.334 74.001 89.001l122 135c23.333 26.667 45.666 54.334 66.999 83.001c48.667 62.667 79 115 91 157c4 15.333 6 28.666 6 39.999c0 26 -9 45 -27 57
s-41.667 18.333 -71 19c-32.667 0 -64.834 -6.5 -96.501 -19.5s-54.5 -29.5 -68.5 -49.5c-8 -12 -12 -24.667 -12 -38c0 -8.66699 1.33301 -16.667 4 -24c1.33301 -2.66699 2 -6.66699 2 -12c0 -6.66699 -1.83301 -12.667 -5.5 -18s-8.5 -9.33301 -14.5 -12
c-2.66699 -1.33301 -6.66699 -2 -12 -2c-6.66699 0 -12.667 1.83301 -18 5.5s-9.33301 8.83398 -12 15.501c-6 17.333 -9 33.666 -9 48.999c0 31.333 11 59.666 33 84.999s51.333 45.666 88 60.999c38 15.333 77.333 23 118 23c48.667 0 87.667 -11.333 117 -34
c33.333 -26.667 50 -61.667 50 -105c0 -19.333 -3 -39 -9 -59c-14 -44 -37.167 -88.5 -69.5 -133.5s-72.5 -95.167 -120.5 -150.5c-5.33301 -6.66699 -10.666 -12.667 -15.999 -18l-88 -98l-29 -33c6.66699 0 18.667 -0.666992 36 -2l78 -10c8.66699 -1.33301 22 -3 40 -5
c40.667 -4.66699 71.334 -7 92.001 -7c55.333 0 93.333 12.333 114 37c2.66699 4.66699 4 7.66699 4 9c-8.66699 1.33301 -15.334 5 -20.001 11s-7 13 -7 21c0 6.66699 1.66699 12.667 5 18c5.33301 7.33301 12.333 12 21 14c6.66699 1.33301 11.667 2 15 2
c15.333 0 28 -5.33301 38 -16s15 -24.334 15 -41.001c0 -22.667 -7.33301 -42.667 -22 -60c-18.667 -21.333 -41.667 -36.666 -69 -45.999s-59.666 -14 -96.999 -14c-24 0 -56.333 2.33301 -97 7c-10.667 1.33301 -24.334 3.33301 -41.001 6l-30 4
c-41.333 5.33301 -70.666 8 -87.999 8c-22.667 0 -39.5 -2.16699 -50.5 -6.5s-18.167 -11.5 -21.5 -21.5c-2 -6.66699 -5.83301 -11.834 -11.5 -15.501s-12.167 -5.5 -19.5 -5.5c-9.33301 0 -17 3.16699 -23 9.5s-9 13.5 -9 21.5c0 2 0.666992 5.66699 2 11
c8 24 23 42 45 54z" />
    <glyph glyph-name="three" unicode="3" horiz-adv-x="546" 
d="M411 505l-17.0049 -16.9971l-17 -18c-16 -17.333 -27.333 -30 -34 -38l-12 -15h3c30.667 -4 60.5 -15.833 89.5 -35.5s52.5 -44.334 70.5 -74.001s27 -61.5 27 -95.5c0 -36 -10.167 -70.167 -30.5 -102.5s-47.333 -59.333 -81 -81s-69.167 -35.834 -106.5 -42.501
c-20 -2.66699 -35 -4 -45 -4c-46 0 -87.667 10.167 -125 30.5s-62.666 47.5 -75.999 81.5c-6 15.333 -9 30.666 -9 45.999c0 31.333 12 63.333 36 96l2 2v1l1 1l1 2c10.667 16 24 24 40 24c10 0 18.5 -3.33301 25.5 -10s10.5 -14.667 10.5 -24
c0 -8.66699 -2.66699 -16 -8 -22s-11.333 -9.33301 -18 -10c-0.666992 -0.666992 -1 -1.66699 -1 -3c-15.333 -20 -23 -39.667 -23 -59c0 -16 5.66699 -30.5 17 -43.5s27.333 -23.833 48 -32.5c24 -10 50 -15 78 -15c27.333 0 53.833 5 79.5 15s48.834 25.333 69.501 46
c33.333 33.333 50 68 50 104c0 35.333 -15.333 67.666 -46 96.999c-32 30 -64.333 45 -97 45c-18 0 -31 -7 -39 -21c-6.66699 -10.667 -16 -16 -28 -16c-6.66699 0 -12.334 1.33301 -17.001 4c-10.667 6.66699 -16 16 -16 28c0 6.66699 1.33301 12.334 4 17.001h1
c22 39.333 47 75.333 75 108l36 40l18 19c0.666992 0 1.66699 0.666992 3 2l5 5l4 5c-3.33301 0.666992 -10.666 2.33398 -21.999 5.00098l-54 12l-11 2c-50 12 -85 17.333 -105 16l-12 -2l-2 -1l-1 -1v-10c1.33301 -9.33301 -1.33398 -17.666 -8.00098 -24.999
s-14.667 -11 -24 -11c-7.33301 0 -14.166 2.66699 -20.499 8s-10.166 11.666 -11.499 18.999c-0.666992 4 -1 9.33301 -1 16c0 22 6.83301 39 20.5 51s31.834 19 54.501 21c28.667 0.666992 70 -5 124 -17l12 -3c46.667 -10.667 78 -16.667 94 -18
c5.33301 -1.33301 10 -1.33301 14 0h2c2.66699 6.66699 7.33398 12 14.001 16s13.667 5.33301 21 4s13 -4 17 -8l4 -2c8.66699 -6.66699 13 -15.334 13 -26.001c0 -8 -2.33301 -14.667 -7 -20c-19.333 -23.333 -39 -45.333 -59 -66z" />
    <glyph glyph-name="four" unicode="4" horiz-adv-x="538" 
d="M406 695c0 -27.333 -12 -58.833 -36 -94.5s-59 -78.5 -105 -128.5l-36 -38l-21 -21l-41 -43l-29 -31c23.333 0.666992 61.333 -2.66602 114 -9.99902c2.66699 -0.666992 6 -1.33398 10 -2.00098s9.33301 -1.33398 16 -2.00098l24 -4l36 -6c2.66699 24 5 42 7 54
c2 8.66699 6.66699 15.667 14 21s15.333 7.33301 24 6c8.66699 -2 15.667 -6.83301 21 -14.5s7 -15.5 5 -23.5l-6 -47h6c14 0.666992 24.333 3.33398 31 8.00098c5.33301 2.66699 8.33301 7.66699 9 15c1.33301 8.66699 5 15.5 11 20.5s13 7.5 21 7.5
c10.667 0 19 -3.5 25 -10.5s8.33301 -15.833 7 -26.5c-7.33301 -48 -40.333 -74.333 -99 -79h-18l-2 -48c-2 -38.667 -3 -93.334 -3 -164.001c0 -8.66699 -3.16699 -16.167 -9.5 -22.5s-13.833 -9.5 -22.5 -9.5s-16.334 3.16699 -23.001 9.5s-10 13.833 -10 22.5
c0 71.333 1 127 3 167l3 50c-12.667 1.33301 -34.334 4.33301 -65.001 9l-25 4c-38 6.66699 -71 10 -99 10c-46 0 -74.667 -10 -86 -30c-6 -10 -15.333 -15 -28 -15c-6 0 -11.667 1.66699 -17 5c-10.667 6.66699 -16 15.667 -16 27c0 6 2 12 6 18
c7.33301 10.667 14.333 19 21 25c12 18 34 44 66 78c3.33301 4 13.333 14.333 30 31c26.667 28.667 40.334 43.334 41.001 44.001l22 22l14 15c4.66699 6 11.667 13.667 21 23c40 43.333 71 80.666 93 111.999c22 32.667 32 55.334 30 68.001
c-1.33301 10 1.33398 18.667 8.00098 26s15 11 25 11c8 0 15 -2.66699 21 -8s9.66699 -12 11 -20z" />
    <glyph glyph-name="five" unicode="5" horiz-adv-x="585" 
d="M484 706c-5.33301 7.33301 -8.00293 14.333 -8.00293 21c0 9.33301 4.33301 17.666 13 24.999c8.66699 6.66699 18 10 28 10c16 0 28 -7 36 -21c5.33301 -9.33301 8 -19.333 8 -30c0 -12 -3 -24.167 -9 -36.5s-14.333 -22.833 -25 -31.5c-22 -19.333 -50.333 -29 -85 -29
c-16.667 0 -32 1.33301 -46 4l-65 15c-2.66699 0.666992 -7.33398 2 -14.001 4c-38.667 9.33301 -67.334 14 -86.001 14c-22.667 0 -39 -7 -49 -21l-3 -3c-10 -47.333 -19 -104.666 -27 -171.999l-6 -50c20.667 16.667 43.334 30.167 68.001 40.5s50.334 15.5 77.001 15.5
c36.667 0 72.667 -11 108 -33c30.667 -19.333 54.667 -45.166 72 -77.499s26 -67.5 26 -105.5c0 -41.333 -10.667 -83 -32 -125c-20 -41.333 -51.167 -73.333 -93.5 -96s-87.5 -34 -135.5 -34c-52 0 -95.5 13 -130.5 39s-52.5 61 -52.5 105
c0 14.667 1.66699 28.334 5 41.001c2 8.66699 6.83301 15.334 14.5 20.001s15.834 6 24.501 4c8.66699 -2.66699 15.334 -7.83398 20.001 -15.501s6 -15.834 4 -24.501c-2 -8 -3 -16 -3 -24c0 -24.667 10.667 -44.167 32 -58.5s50.333 -21.5 87 -21.5
c36 0 69.833 8.5 101.5 25.5s54.5 39.833 68.5 68.5c16 31.333 24 63.333 24 96c0 27.333 -5.83301 52.166 -17.5 74.499s-28.167 40.166 -49.5 53.499c-23.333 14.667 -47.666 22 -72.999 22c-26 0 -51.833 -7.5 -77.5 -22.5s-49.5 -37.167 -71.5 -66.5
c-6 -8.66699 -14 -13 -24 -13c-2.66699 0 -6.66699 0.666992 -12 2h-5c-8.66699 1.33301 -15.834 5.66602 -21.501 12.999s-7.83398 15 -6.50098 23l3 32l11 99c9.33301 78.667 20.333 144.334 33 197.001c3.33301 11.333 10.333 19 21 23
c22.667 22.667 52.334 34 89.001 34c25.333 0 59.333 -5.33301 102 -16c12 -2.66699 17 -4 15 -4c20.667 -5.33301 38.834 -9.66602 54.501 -12.999s28.5 -5 38.5 -5c6 0 10.333 0.333008 13 1c14 2 24.667 6.33301 32 13c3.33301 2 5.33301 4.33301 6 7
c-2.66699 2 -5 4.33301 -7 7z" />
    <glyph glyph-name="six" unicode="6" horiz-adv-x="533" 
d="M385 618c-18.667 19.333 -43.6689 29.001 -75.002 29.001c-24 0 -48 -5.33301 -72 -16c-46.667 -21.333 -82.834 -55.666 -108.501 -102.999s-38.5 -102.666 -38.5 -165.999c0 -15.333 1 -31.666 3 -48.999c9.33301 16 19.666 30 30.999 42c26 28 57.5 49.833 94.5 65.5
s74.5 23.5 112.5 23.5c54 0 97.333 -15 130 -45c32.667 -30.667 49 -69.334 49 -116.001c0 -34 -7.66699 -68.833 -23 -104.5s-34 -66.167 -56 -91.5c-23.333 -28 -51.166 -50.833 -83.499 -68.5s-64.833 -26.5 -97.5 -26.5c-30 0 -57 7 -81 21
c-35.333 19.333 -62.666 46.333 -81.999 81s-34.666 78.667 -45.999 132c-10.667 46.667 -16 91.667 -16 135c0 80 16.833 148.5 50.5 205.5s78.5 98.167 134.5 123.5c32 14.667 64.667 22 98 22c30 0 57.333 -6 82 -18c28.667 -14.667 50.167 -35.834 64.5 -63.501
s20.166 -59.834 17.499 -96.501c-0.666992 -8 -4 -15 -10 -21s-13.333 -9 -22 -9c-9.33301 0 -17.166 3.33301 -23.499 10s-9.16602 15 -8.49902 25c2.66699 33.333 -5.33301 59.666 -24 78.999zM138.998 139.001c12.667 -25.333 28.3311 -45.334 46.998 -60.001
s39.667 -22 63 -22c16.667 0 34.334 4 53.001 12c30 12 57.167 32.333 81.5 61s41.5 60.334 51.5 95.001c6 21.333 9 40 9 56c0 32 -9.83301 56.333 -29.5 73s-46.167 25 -79.5 25c-14 0 -24.667 -0.666992 -32 -2c-32 -4.66699 -61.5 -15.5 -88.5 -32.5
s-48.5 -38.833 -64.5 -65.5s-24 -56 -24 -88c0 -6 0.666992 -15 2 -27v-2c2.66699 -7.33301 6.33398 -15 11.001 -23z" />
    <glyph glyph-name="seven" unicode="7" horiz-adv-x="615" 
d="M1 604c0 9.33301 2.66504 18.6611 7.99805 27.9941c10.667 18.667 32.334 32.334 65.001 41.001c39.333 11.333 98 17 176 17c32 0 76 -1.33301 132 -4l30 -1l33 -2l15 -1h13c17.333 -1.33301 26.333 -1.66602 27 -0.999023h3h6c2 0.666992 5.66699 1 11 1
c12 8.66699 19 13.334 21 14.001c4.66699 2 9.66699 3 15 3c6.66699 0 13.167 -2 19.5 -6s10.5 -9.66699 12.5 -17c1.33301 -3.33301 2 -7.66602 2 -12.999c0 -15.333 -8.66699 -27.333 -26 -36l-17 -6l-2 -1c-6.66699 -5.33301 -17.667 -14.666 -33 -27.999
c-64.667 -60 -120.167 -136.667 -166.5 -230s-88.166 -205 -125.499 -335c-2 -6.66699 -5.83301 -12.167 -11.5 -16.5s-12.167 -6.5 -19.5 -6.5c-10.667 0 -19.334 4.33301 -26.001 13s-8.66699 18 -6 28c38 131.333 80 243.833 126 337.5s100.333 172.167 163 235.5h-4
l-34 2l-30 1c-54.667 2.66699 -97 4 -127 4c-70 0 -123.333 -4.66699 -160 -14c-11.333 -4 -18.333 -6.66699 -21 -8l-2 -1l6 -8c5.33301 -5.33301 8 -12.666 8 -21.999c0 -10 -3.33301 -18 -10 -24c-6.66699 -5.33301 -13.667 -8 -21 -8
c-9.33301 0 -17.666 3.66699 -24.999 11c-16.667 18 -25 35.667 -25 53z" />
    <glyph glyph-name="eight" unicode="8" horiz-adv-x="517" 
d="M396 8c-14.667 -14.667 -35.166 -25.501 -61.499 -32.501s-52.833 -10.5 -79.5 -10.5c-29.333 0 -55.666 6.83301 -78.999 20.5s-46 33.5 -68 59.5c-30 35.333 -45 70.333 -45 105c0 28 9 55.333 27 82c13.333 20.667 30.166 40.334 50.499 59.001
s45.166 38.667 74.499 60l-33 18c-28.667 16.667 -52.334 35.334 -71.001 56.001c-25.333 29.333 -38 61 -38 95c0 28 8.66699 58.333 26 91c16.667 30 42.834 54.667 78.501 74s71.167 29 106.5 29c30 0 59.167 -7.33301 87.5 -22s51.333 -34.667 69 -60s26.5 -53 26.5 -83
c0 -28.667 -8.66699 -57 -26 -85c-14 -22 -37.333 -47.333 -70 -76l-33 -27l42 -23c32 -20 56 -38.667 72 -56c26.667 -29.333 40 -62.333 40 -99c0 -28 -7.66699 -57 -23 -87c-15.333 -31.333 -38 -58 -68 -80c0 -0.666992 -1.66699 -3.33398 -5 -8.00098zM341.501 448.999
c19 16.667 33.833 33.332 44.5 49.999c10 16 15 31.667 15 47c0 24 -12.667 49.667 -38 77c-17.333 18 -40.333 27 -69 27c-16 0 -32 -2.33301 -48 -7s-30.333 -10.667 -43 -18c-20 -11.333 -35.667 -26.5 -47 -45.5s-17 -38.167 -17 -57.5
c0 -17.333 6.16699 -33.833 18.5 -49.5s31.833 -31.5 58.5 -47.5c12 -7.33301 31 -17.666 57 -30.999c26.667 20 49.5 38.333 68.5 55zM354.501 62.9971c25 16.667 43.8311 37.332 56.498 61.999c10.667 22 16 41.333 16 58c0 20 -7.66699 38.333 -23 55
c-12.667 14 -28.5 27 -47.5 39s-44.5 25.667 -76.5 41h-1l-4 -4c-37.333 -26.667 -65.666 -48.667 -84.999 -66s-34.666 -34.333 -45.999 -51c-10.667 -16 -16 -31.333 -16 -46c0 -19.333 9.66699 -40.666 29 -63.999c32 -38 64.667 -57 98 -57c4.66699 0 8 0.333008 10 1
c2 0 3.66699 0.333008 5 1c31.333 4 59.5 14.333 84.5 31z" />
    <glyph glyph-name="nine" unicode="9" horiz-adv-x="508" 
d="M446 466c-6 -80 -8.99902 -176.334 -8.99902 -289.001v-82v-58c0 -9.33301 -3 -17.166 -9 -23.499s-13.667 -9.5 -23 -9.5s-17.166 3.16699 -23.499 9.5s-9.5 14.166 -9.5 23.499v58v75c0 51.333 0.666992 103.666 2 156.999c-25.333 -31.333 -55 -56.666 -89 -75.999
s-67.667 -29 -101 -29c-28.667 0 -54.334 7.66699 -77.001 23c-24 16 -42.333 39.667 -55 71s-19 66 -19 104c0 30.667 4.16699 61.167 12.5 91.5s20.166 56.833 35.499 79.5c22.667 32.667 50.667 58 84 76s67.666 27 102.999 27c27.333 0 53.333 -5.66699 78 -17
c22.667 -10.667 42.667 -25.667 60 -45c3.33301 15.333 8 31.333 14 48c2.66699 6.66699 6.83398 11.834 12.501 15.501s11.834 5.5 18.501 5.5c9.33301 0 17.166 -3.16699 23.499 -9.5s9.5 -13.833 9.5 -22.5c0 -4 -1 -8 -3 -12c-17.333 -47.333 -29 -111 -35 -191z
M338.001 606.999c-20 14.667 -43.333 21.999 -70 21.999c-15.333 0 -30 -2.33301 -44 -7c-37.333 -12 -67.666 -35.333 -90.999 -70s-35 -77.667 -35 -129c0 -45.333 7.83301 -79.166 23.5 -101.499s36.834 -33.5 63.501 -33.5c16 0 32 3.33301 48 10
c41.333 16.667 76.666 47 105.999 91s44.666 92 45.999 144c-2 2 -3.66699 5.66699 -5 11c-8 27.333 -22 48.333 -42 63z" />
    <glyph glyph-name="colon" unicode=":" horiz-adv-x="255" 
d="M138 519c8.66699 10.667 20 15.999 34 15.999c11.333 0 21 -3.66699 29 -11c6.66699 -6 12 -14 16 -24s6 -20.667 6 -32c0 -14 -2.66699 -25.333 -8 -34c-6 -10 -14.5 -18.167 -25.5 -24.5s-22.5 -9.5 -34.5 -9.5c-19.333 0 -33.333 8 -42 24c-4 8 -6 17 -6 27
c0 18.667 5.33301 35.334 16 50.001c3.33301 5.33301 8 10.333 14 15c0.666992 0.666992 1 1.66699 1 3zM145 106.499c8 5.66699 16.668 8.50098 26.001 8.50098c12.667 0 24 -5 34 -15c8 -7.33301 14.333 -15.833 19 -25.5s7 -19.834 7 -30.501
c0 -4.66699 -0.333008 -8 -1 -10c-2.66699 -17.333 -8.33398 -31.5 -17.001 -42.5s-20.334 -17.167 -35.001 -18.5c-21.333 -0.666992 -39.666 9.66602 -54.999 30.999c-10.667 13.333 -16 27.333 -16 42c0 6.66699 1.33301 12.667 4 18c3.33301 8 8.33301 14 15 18
c4.66699 10.667 11 18.834 19 24.501z" />
    <glyph glyph-name="semicolon" unicode=";" horiz-adv-x="269" 
d="M133 508.5c9.33301 7.66699 20.334 11.499 33.001 11.499c9.33301 0 17.333 -1.66699 24 -5c12 -6 21.333 -13.667 28 -23s10 -19 10 -29c0 -7.33301 -1.33301 -13.666 -4 -18.999c-7.33301 -18 -22.333 -31.333 -45 -40c-10 -4 -19.333 -6 -28 -6
c-15.333 0 -28 5.33301 -38 16c-6 8 -9 16.667 -9 26c0 5.33301 1.33301 12 4 20c2.66699 6 6.66699 13.333 12 22c-0.666992 10 3.66602 18.833 12.999 26.5zM177.001 -16.001l2.00195 11.001c-10.667 -6.66699 -22.667 -10 -36 -10c-16.667 0 -30.834 6.5 -42.501 19.5
s-17.5 32.5 -17.5 58.5c0 18.667 5.16699 34.167 15.5 46.5s24.166 18.833 41.499 19.5c14.667 0 29.167 -4.33301 43.5 -13s26.5 -20.334 36.5 -35.001c16.667 -24 25 -49.667 25 -77c0 -28 -9.16699 -56.5 -27.5 -85.5s-45.833 -56.167 -82.5 -81.5
c-6 -4 -12.333 -6 -19 -6c-11.333 0 -20 4.66699 -26 14c-4 6 -6 12.667 -6 20c0 10.667 4.33301 19 13 25c44 30.667 70.667 62 80 94z" />
    <glyph glyph-name="less" unicode="&#x3c;" horiz-adv-x="654" 
d="M175 273l-2.00586 -1.00195l-6 -2c-6.66699 -2.66699 -11.667 -4.33398 -15 -5.00098c-13.333 -4.66699 -26.666 -9.66699 -39.999 -15l-1 -1c2 0 3.33301 -0.333008 4 -1c10 -3.33301 24.333 -7.33301 43 -12l29 -8c16.667 -6 39 -15 67 -27
c6.66699 -2 17.667 -6.66699 33 -14l5 -2l21 -8l8 -5c66 -27.333 119.5 -47.666 160.5 -60.999s80.5 -22 118.5 -26c8.66699 -1.33301 15.834 -5 21.501 -11s8.5 -13 8.5 -21c0 -9.33301 -3.66699 -17.333 -11 -24s-15.666 -9.66699 -24.999 -9
c-43.333 4 -87.666 13.5 -132.999 28.5s-100.333 36.5 -165 64.5l-6 3c-9.33301 3.33301 -15.333 5.66602 -18 6.99902l-7 3l-3 1l-34 15l-64 25l-7 2l-15 5l-74 20c-14 4 -24.667 8 -32 12c-16.667 6 -26.667 14.333 -30 25c-2.66699 6.66699 -4 11.667 -4 15
s1.33301 8.33301 4 15c5.33301 9.33301 13.666 17 24.999 23c8 4 20.667 10 38 18l19 8l42 16c3.33301 0.666992 8.33301 2.33398 15 5.00098c1.33301 0 2.33301 0.333008 3 1l4 2h1c122.667 42.667 254.334 100 395.001 172c6.66699 2.66699 11.667 4 15 4
c6 0 11.5 -1.66699 16.5 -5s9.16699 -7.66602 12.5 -12.999c2.66699 -6.66699 4 -11.667 4 -15c0 -5.33301 -1.66699 -10.666 -5 -15.999s-7.66602 -9.33301 -12.999 -12c-137.333 -71.333 -271.666 -130 -402.999 -176z" />
    <glyph glyph-name="equal" unicode="=" horiz-adv-x="582" 
d="M153 392c40 0 73 -0.669922 99 -2.00293c18 0 29.667 -0.333008 35 -1c13.333 -0.666992 32 -1 56 -1c64 0 115 4 153 12c10 1.33301 19 -1 27 -7s12 -14.333 12 -25c0 -7.33301 -2.5 -14.166 -7.5 -20.499s-11.167 -10.166 -18.5 -11.499
c-43.333 -8.66699 -96 -13 -158 -13c-28 0 -50 0.333008 -66 1c-5.33301 0.666992 -17 1 -35 1c-43.333 2 -79.333 3 -108 3l-44 -1c-8.66699 0 -16.167 3 -22.5 9s-9.5 13.333 -9.5 22c-0.666992 8.66699 2 16.334 8 23.001s13.333 10 22 10c10 0.666992 29 1 57 1z
M311 204.997l69 0.000976562c11.333 0 22 -0.333008 32 -1c33.333 -0.666992 71 -1 113 -1c9.33301 0 17.166 -3 23.499 -9s9.5 -13.667 9.5 -23s-3.16699 -17.166 -9.5 -23.499s-14.166 -9.5 -23.499 -9.5c-42 0 -80 0.333008 -114 1c-10 0.666992 -20.667 1 -32 1h-67
c-80.667 0 -140.667 -1.66699 -180 -5c-8.66699 -0.666992 -16.5 2.16602 -23.5 8.49902s-10.5 13.833 -10.5 22.5c-0.666992 9.33301 1.83301 17.166 7.5 23.499s13.167 9.83301 22.5 10.5c39.333 3.33301 100.333 5 183 5z" />
    <glyph glyph-name="greater" unicode="&#x3e;" horiz-adv-x="605" 
d="M391 360l72.001 -31l3 -1l8 -3c2 -0.666992 3.66699 -1.66699 5 -3l33 -14l8 -4c16.667 -7.33301 27 -12.333 31 -15c9.33301 -4 16.333 -9 21 -15c3.33301 -2.66699 5.33301 -5.66699 6 -9c2 -4 3 -8 3 -12c0 -14 -4.5 -25.167 -13.5 -33.5s-21.5 -16.833 -37.5 -25.5
l-27 -12c-46 -21.333 -111.667 -49 -197 -83c2 0.666992 -17 -6.66602 -57 -21.999c-70.667 -28.667 -126 -53.334 -166 -74.001c-4.66699 -2 -9.33398 -3 -14.001 -3c-6 0 -11.833 1.66699 -17.5 5s-9.83398 7.66602 -12.501 12.999c-2 5.33301 -3 10 -3 14
c0 6 1.66699 11.833 5 17.5s7.66602 9.83398 12.999 12.501c44.667 22 101.334 47 170.001 75c5.33301 1.33301 17.666 6 36.999 14l21 9c82.667 32.667 147.334 59.667 194.001 81l2 1c1.33301 0.666992 2.83301 1.5 4.5 2.5s3.83398 1.83301 6.50098 2.5l-4 2l-49 20
l-71 32c-126 55.333 -225.667 95.333 -299 120c-6.66699 2 -12 5.83301 -16 11.5s-6 11.834 -6 18.501c0 9.33301 3.33301 17.166 10 23.499s14 9.5 22 9.5c2.66699 0 6 -0.666992 10 -2c82 -27.333 183.667 -68 305 -122z" />
    <glyph glyph-name="question" unicode="?" horiz-adv-x="519" 
d="M83 564c0 36 13.666 68.665 40.999 97.998s62.333 51 105 65c28.667 10 58.334 15 89.001 15c37.333 0 70.833 -8 100.5 -24s51.167 -40 64.5 -72c7.33301 -15.333 11 -33 11 -53c0 -27.333 -8 -55.666 -24 -84.999c-6.66699 -12.667 -17.667 -29.334 -33 -50.001
l-18 -24l-9 -12c-1.33301 -2 -4.66602 -5.66699 -9.99902 -11c-28 -36.667 -48.333 -67.5 -61 -92.5s-19 -49.5 -19 -73.5c0 -10 1 -20 3 -30c2 -8.66699 0.5 -16.834 -4.5 -24.501s-11.833 -12.167 -20.5 -13.5c-8.66699 -2 -16.834 -0.5 -24.501 4.5
s-12.5 11.833 -14.5 20.5c-2.66699 13.333 -4 27.333 -4 42c0 34 7.66699 66.833 23 98.5s39 67.834 71 108.501l19 24l17 22c14 18.667 25 35 33 49s12 29 12 45c0 9.33301 -2 19 -6 29c-8 18 -21.5 31.833 -40.5 41.5s-41.167 14.5 -66.5 14.5
c-24 0 -46.667 -3.66699 -68 -11c-31.333 -10.667 -55.833 -25.167 -73.5 -43.5s-26.5 -38.166 -26.5 -59.499c0 -9.33301 2 -18.666 6 -27.999c2 -4 3 -8.33301 3 -13c0 -6.66699 -1.83301 -12.667 -5.5 -18s-8.5 -9.33301 -14.5 -12c-4 -2 -8.33301 -3 -13 -3
c-6.66699 0 -12.667 1.83301 -18 5.5s-9.33301 8.83398 -12 15.501c-8 19.333 -12 37.666 -12 54.999zM241.999 62.998c0 18 6.33398 31.667 19.001 41c8 5.33301 17.333 8 28 8c9.33301 0 18.666 -2.33301 27.999 -7c12 -6 20.833 -13.333 26.5 -22s8.5 -17.667 8.5 -27
c0 -10 -2.66699 -19.333 -8 -28c-4.66699 -8 -12 -15 -22 -21s-20.333 -9 -31 -9c-5.33301 0 -11 1 -17 3c-17.333 6 -26.333 18 -27 36h-1c-2.66699 8 -4 16.667 -4 26z" />
    <glyph glyph-name="at" unicode="@" horiz-adv-x="943" 
d="M533 248.5c-22.667 -27.667 -45 -47.4971 -67 -59.4971c-14 -8 -28 -12 -42 -12c-25.333 0 -45.333 12.667 -60 38c-19.333 34 -29 68.667 -29 104c0 38 10.5 74.167 31.5 108.5s48.5 63.166 82.5 86.499c35.333 23.333 69 35 101 35c12.667 0 23.334 -1.33301 32.001 -4
c21.333 -6 37.333 -18.333 48 -37l21 29l2 2l5 6l6 6c0.666992 1.33301 2 3 4 5l3 2c5.33301 4.66699 11.666 7 18.999 7c11.333 0 20.666 -5.33301 27.999 -16c3.33301 -4.66699 5 -11.667 5 -21c0 -4 -1.33301 -10 -4 -18c-2.66699 -10.667 -6 -20.667 -10 -30
c0 -1.33301 -0.333008 -2.33301 -1 -3l-8 -25l-1 -4l-3 -6l-1 -4c-19.333 -56 -29 -107.333 -29 -154c0 -38 7.33301 -64.667 22 -80c6 -6 12.333 -9 19 -9c1.33301 0 4.66602 0.666992 9.99902 2c14.667 5.33301 31.167 18.5 49.5 39.5s35.5 45.833 51.5 74.5
c14 26.667 22.333 45 25 55c6.66699 22.667 10 45.667 10 69c0 54 -18.167 100.667 -54.5 140s-85.833 67.666 -148.5 84.999c-40 12 -81 18 -123 18c-54.667 0 -105.667 -9.83301 -153 -29.5s-85 -47.834 -113 -84.501c-19.333 -26 -34.666 -57.667 -45.999 -95
s-17 -75 -17 -113c0 -55.333 10.667 -105.333 32 -150s52 -81 92 -109c52.667 -38 116.667 -57 192 -57c35.333 0 68 3.66699 98 11c78 19.333 130 45 156 77c6 8.66699 14.667 13 26 13c8 0 14.667 -2.33301 20 -7c8 -6.66699 12 -15.334 12 -26.001
c0 -6.66699 -2.66699 -13.334 -8 -20.001c-18.667 -24.667 -44.167 -44.834 -76.5 -60.501s-70.5 -28.834 -114.5 -39.501c-39.333 -9.33301 -76.666 -14 -111.999 -14c-42 0 -82.667 6 -122 18s-75.333 29.333 -108 52c-48.667 34.667 -86.167 78.834 -112.5 132.501
s-39.5 113.5 -39.5 179.5c0 46 6.83301 90.833 20.5 134.5s32.5 81.5 56.5 113.5c34 44.667 79.167 79 135.5 103s116.833 36 181.5 36c46.667 0 93.667 -6.66699 141 -20c76 -22 136.667 -58 182 -108s68 -109.667 68 -179c0 -27.333 -4 -56.666 -12 -87.999
c-6 -19.333 -17.5 -44.166 -34.5 -74.499s-34.833 -55.833 -53.5 -76.5c-39.333 -46 -76.666 -69 -111.999 -69c-24 0 -45.667 10.667 -65 32c-26 26.667 -39 67.334 -39 122.001c0 14 0.333008 24.667 1 32c1.33301 16 2.66602 28 3.99902 36l-2 -3
c-25.333 -38 -49.333 -70.833 -72 -98.5zM581 449.003c0 8.66699 -1.66699 16.335 -5 23.002c-3.33301 5.33301 -7.33301 9 -12 11c-2.66699 0.666992 -6.66699 1 -12 1c-14.667 0 -31.667 -5 -51 -15s-37.5 -24 -54.5 -42s-29.5 -37.667 -37.5 -59
c-6 -16.667 -9 -33.334 -9 -50.001c0 -24.667 6.66699 -48 20 -70c0.666992 -2 2 -4 4 -6h2c4 1.33301 7 2.66602 9 3.99902c27.333 16 66 61.667 116 137l27 42c0 2 0.333008 3.33301 1 4c1.33301 9.33301 2 16 2 20z" />
    <glyph glyph-name="A" unicode="A" horiz-adv-x="625" 
d="M70 460c0 19.333 7.66504 34.6738 22.998 46.0068s35 19 59 23c15.333 2.66699 35 4 59 4c1.33301 3.33301 2.33301 6.16602 3 8.49902s1.33398 3.83301 2.00098 4.5c26.667 70 44.334 121.333 53.001 154v1c0.666992 0.666992 1 1.66699 1 3
c0.666992 4.66699 1.5 8.16699 2.5 10.5s1.5 4.16602 1.5 5.49902c0.666992 7.33301 2.66699 13 6 17c3.33301 6 8 10.667 14 14c4 2 8.66699 3 14 3c8.66699 0 18 -4 28 -12c2.66699 -2.66699 5.33398 -6.33398 8.00098 -11.001c3.33301 -4.66699 8 -13.667 14 -27
c14.667 -28.667 38.334 -91.334 71.001 -188.001h1c18.667 -2 30 -2.66699 34 -2h5c4.66699 0.666992 14.334 3.66699 29.001 9c-0.666992 2 -1 4.66699 -1 8c0 6.66699 1.83301 13 5.5 19s8.83398 10.333 15.501 13c4 1.33301 7.33301 2 10 2
c7.33301 0 14.666 -2.16699 21.999 -6.5s13.666 -9.5 18.999 -15.5c6 -8.66699 9 -17 9 -25c0 -14 -7 -26.667 -21 -38c-4.66699 -3.33301 -11.334 -7.33301 -20.001 -12c-26 -12.667 -49.333 -19 -70 -19l-7 -1l-8 1l9 -27l14 -44
c2.66699 -6.66699 4.33398 -11.667 5.00098 -15l17 -49l19 -58c12.667 -41.333 27 -85 43 -131s29 -80.667 39 -104c2 -4 3 -8 3 -12c0 -6.66699 -1.83301 -12.667 -5.5 -18s-8.5 -9.33301 -14.5 -12c-4 -2 -8.33301 -3 -13 -3c-6 0 -11.833 1.66699 -17.5 5
s-9.83398 8 -12.501 14c-8.66699 21.333 -20.834 54.666 -36.501 99.999l-32.5 95l-15 46c-22.667 69.333 -34.334 104.666 -35.001 105.999c-2.66699 6 -4.33398 11.333 -5.00098 16l-33 98c-10.667 0.666992 -17.667 1.66699 -21 3l-74 7
c-7.33301 0.666992 -17.666 1 -30.999 1c-67.333 -176.667 -118.333 -330.334 -153 -461.001c-1.33301 -6.66699 -5 -12.334 -11 -17.001s-12.667 -7 -20 -7c-3.33301 0 -6 0.333008 -8 1c-8.66699 2 -15.334 6.83301 -20.001 14.5s-6 15.834 -4 24.501
c32.667 126 81.334 274.333 146.001 445c-25.333 -1.33301 -41.666 -5 -48.999 -11c0 -9.33301 -3.16699 -17.333 -9.5 -24s-14.5 -10 -24.5 -10c-7.33301 0 -14 2.66699 -20 8s-9.66699 12 -11 20c-0.666992 2.66699 -1 6 -1 10zM289.998 530.008
c19.333 -0.666992 41.667 -2.66602 67 -5.99902c-8.66699 27.333 -17.667 52.666 -27 75.999l-13 34c-10.667 -32.667 -23 -67 -37 -103c4.66699 0 8 -0.333008 10 -1z" />
    <glyph glyph-name="B" unicode="B" horiz-adv-x="695" 
d="M200 742c73.333 0 141.335 -7.33594 204.002 -22.0029c38.667 -9.33301 72.167 -23.666 100.5 -42.999s47.166 -40.666 56.499 -63.999c4.66699 -11.333 7 -22.666 7 -33.999c0 -24.667 -11.333 -46.5 -34 -65.5s-54.334 -34.167 -95.001 -45.5
c-0.666992 -0.666992 -1.5 -1 -2.5 -1s-1.83301 -0.333008 -2.5 -1c6 -1.33301 15 -4 27 -8c64.667 -19.333 115.834 -45.666 153.501 -78.999s56.5 -73.333 56.5 -120c0 -13.333 -1.33301 -25.333 -4 -36c-6.66699 -30 -19.5 -58 -38.5 -84s-42.5 -48.333 -70.5 -67
c-36 -23.333 -73.667 -40 -113 -50s-91.666 -18.333 -156.999 -25h-2c-60.667 -7.33301 -105.334 -14.333 -134.001 -21c-1.33301 -0.666992 -4 -1 -8 -1s-8.66699 1 -14 3h-6c-8.66699 -0.666992 -16.334 2.16602 -23.001 8.49902s-10 13.833 -10 22.5
c-0.666992 19.333 -1 47.666 -1 84.999c0 58.667 1.66699 134 5 226c0 22.667 0.333008 40 1 52l3 81c0.666992 18 -0.333008 47.333 -3 88c-0.666992 6.66699 -1 14.334 -1 23.001c-1.33301 26.667 -2 44.667 -2 54c0 32.667 2.33301 59.334 7 80.001
c0 2.66699 0.333008 4.66699 1 6v3c0 9.33301 3 17.166 9 23.499s13.333 9.83301 22 10.5c16 0.666992 38.667 1 68 1zM259.002 516.997l16.998 0.000976562c60 -0.666992 108.333 3.66602 145 12.999c38.667 11.333 63.667 23.666 75 36.999
c6.66699 6.66699 8.33398 13.667 5.00098 21c-4.66699 12.667 -17.5 25.5 -38.5 38.5s-45.5 23.167 -73.5 30.5c-31.333 8 -62.166 13.333 -92.499 16s-63.5 4 -99.5 4h-35c-2.66699 -21.333 -4 -40.666 -4 -57.999c0 -8.66699 0.666992 -25.667 2 -51
c0 -5.33301 1 -23 3 -53c26.667 1.33301 58.667 2 96 2zM207.5 52.498c20.333 3 44.5 5.83594 72.5 8.50293h2c63.333 7.33301 111.833 15.166 145.5 23.499s65.167 22.166 94.5 41.499c26.667 17.333 47 37.333 61 60s21 45.334 21 68.001c0 29.333 -11 54.333 -33 75
c-27.333 25.333 -67.833 46.666 -121.5 63.999s-111.834 29 -174.501 35c-34.667 2.66699 -58.667 4 -72 4c-9.33301 0 -22.666 -0.666992 -39.999 -2l-2 -60c-1.33301 -42.667 -2 -72 -2 -88c-2.66699 -102.667 -4 -169.334 -4 -200.001v-39
c14.667 3.33301 32.167 6.5 52.5 9.5z" />
    <glyph glyph-name="C" unicode="C" horiz-adv-x="654" 
d="M547 575.5c-10.667 20.333 -21.665 35.8389 -32.998 46.5059c-46.667 44.667 -92 67 -136 67c-40.667 0 -79 -18.667 -115 -56c-34 -34.667 -62 -80 -84 -136s-33.667 -112 -35 -168c-2 -66.667 5.66699 -122.334 23 -167.001s41.666 -77.834 72.999 -99.501
s67 -31.834 107 -30.501c37.333 0 72.5 9.66699 105.5 29s59.5 45.666 79.5 78.999s30 70 30 110c0 8.66699 3.33301 16.167 10 22.5s14.334 9.5 23.001 9.5s16.167 -3.16699 22.5 -9.5s9.5 -13.833 9.5 -22.5c0 -52.667 -13.5 -100.667 -40.5 -144
s-62.5 -77.333 -106.5 -102s-90.333 -37 -139 -37c-50 0 -94.833 13.333 -134.5 40s-70.834 65.667 -93.501 117s-34 112.666 -34 183.999c0 68.667 12.5 137 37.5 205s58.5 123.333 100.5 166c50 50 103.667 75 161 75c62 0 122.333 -28.333 181 -85
c17.333 -16 33 -38 47 -66s21.667 -52.667 23 -74c0.666992 -8.66699 -2 -16.5 -8 -23.5s-13.333 -10.5 -22 -10.5c-8.66699 -0.666992 -16.5 2 -23.5 8s-10.833 13.333 -11.5 22c-0.666992 13.333 -6.33398 30.166 -17.001 50.499z" />
    <glyph glyph-name="D" unicode="D" horiz-adv-x="662" 
d="M194 748c113.333 0 209.672 -28.667 289.005 -86c43.333 -30 78.166 -66.5 104.499 -109.5s42.166 -88.833 47.499 -137.5c1.33301 -8.66699 2 -21.334 2 -38.001c0 -43.333 -9 -85.166 -27 -125.499s-44 -76.833 -78 -109.5
c-86.667 -84.667 -213.334 -134.667 -380.001 -150h-4c-10 0 -18 3.33301 -24 10c-12.667 4 -20.334 12 -23.001 24c-10.667 42 -16 157.333 -16 346c0 172.667 4.66699 283 14 331l-2 7c-0.666992 8.66699 1.83301 16.5 7.5 23.5s13.167 10.833 22.5 11.5
c23.333 2 45.666 3 66.999 3zM487.006 188c28 26.667 49.167 56.668 63.5 90.001s21.5 67.666 21.5 102.999c0 44 -11 86 -33 126s-53 74 -93 102c-70 50 -155.333 75 -256 75l-29 -1c-7.33301 -51.333 -11 -155 -11 -311c0 -154 4 -258.667 12 -314
c142.667 14.667 251 58 325 130z" />
    <glyph glyph-name="E" unicode="E" horiz-adv-x="470" 
d="M29 489c0 22 7.33203 39 21.999 51s33.667 18.333 57 19h9c-0.666992 32.667 -3 79 -7 139v4c0 1.33301 0.666992 4.66602 2 9.99902l-2 7c-0.666992 9.33301 2 17.333 8 24s13.667 10.334 23 11.001l65 5l64 6c30.667 1.33301 52 2 64 2c28 0 51.333 -1.33301 70 -4
c8.66699 -1.33301 15.667 -5 21 -11s8 -13 8 -21c0 -10 -3.66699 -18.167 -11 -24.5s-16 -8.83301 -26 -7.5c-18 2 -37.667 3 -59 3c-11.333 0 -32.333 -0.666992 -63 -2l-63 -5l-36 -4c3.33301 -39.333 5.66602 -85.333 6.99902 -138l57 -11
c0.666992 -0.666992 1.66699 -1 3 -1c38.667 -8 69 -13.333 91 -16c15.333 -1.33301 25.333 -1.66602 30 -0.999023l8 2l2 1c2 1.33301 4.33301 4 7 8c-5.33301 6 -8 12.667 -8 20c0 8.66699 3.83301 16.167 11.5 22.5s15.167 9.5 22.5 9.5
c8.66699 0 16.834 -3.83301 24.501 -11.5s12.5 -17.5 14.5 -29.5c0.666992 -2 1 -5.33301 1 -10c0 -10 -2.83301 -20.5 -8.5 -31.5s-14.167 -20.833 -25.5 -29.5c-14 -10.667 -34.333 -16 -61 -16c-10.667 0 -19 0.333008 -25 1c-16.667 2 -49 7.66699 -97 17
c-0.666992 0.666992 -1.66699 1 -3 1c-16 4 -30.667 7 -44 9c0 -44.667 -1 -98 -3 -160l-3 -63c-3.33301 -103.333 -5 -171.333 -5 -204l103 -2c52.667 0 96.334 2.33301 131.001 7c9.33301 0.666992 17.666 -2.16602 24.999 -8.49902s11 -14.5 11 -24.5
c0 -8 -2.66699 -15 -8 -21s-12 -9.66699 -20 -11c-36.667 -4.66699 -83 -7 -139 -7l-116 2h-6h-5c-2 -0.666992 -5 -1 -9 -1c-8.66699 0 -16.167 3.16699 -22.5 9.5s-9.5 14.166 -9.5 23.499c0 41.333 1.66699 121 5 239l3 64c2 64 3 118.667 3 164h-5
c-4.66699 0 -9.66699 -0.666992 -15 -2c-1.33301 0 -2.33301 -0.333008 -3 -1v-1c0 -2 0.333008 -3.66699 1 -5c1.33301 -10 -1.33398 -18.667 -8.00098 -26s-15 -11 -25 -11c-7.33301 0 -14.166 2.66699 -20.499 8s-10.166 11.666 -11.499 18.999
c-0.666992 3.33301 -1 8 -1 14z" />
    <glyph glyph-name="F" unicode="F" horiz-adv-x="558" 
d="M103 544c0.666992 48.667 2.66699 95.001 6 139.001c-2.66699 3.33301 -4.33398 7 -5.00098 11c-1.33301 8.66699 0.333984 16.667 5.00098 24s11.334 12 20.001 14c53.333 12 118.333 18 195 18c46.667 0 106.667 -3 180 -9c8 -0.666992 15 -4 21 -10s9 -13.333 9 -22
c0 -9.33301 -3.5 -17.333 -10.5 -24s-15.5 -9.66699 -25.5 -9c-56 5.33301 -113 8 -171 8c-60 0 -111.333 -3.33301 -154 -10c-2 -27.333 -3.66699 -70 -5 -128c14 -0.666992 40.667 -4 80 -10l20 -3c52.667 -10.667 91 -15.334 115 -14.001l14 3
c1.33301 0 2.33301 0.333008 3 1h1v5c-7.33301 7.33301 -11 15.666 -11 24.999c0 6 1.66699 11.667 5 17c6.66699 10.667 15.667 16 27 16c7.33301 0 13.333 -2 18 -6c8 -5.33301 14.333 -13 19 -23s7 -20.667 7 -32c0 -20 -7 -36.667 -21 -50c-16 -14 -39.333 -21 -70 -21
c-9.33301 0 -26 1.33301 -50 4c-14.667 1.33301 -30.334 3.66602 -47.001 6.99902l-21 3l-20 4c-29.333 5.33301 -52.666 8.33301 -69.999 9c0 -22.667 0.666992 -68.667 2 -138c0.666992 -8 1 -23.333 1 -46l1 -46c2.66699 -90 4 -166 4 -228
c0 -8.66699 -3.16699 -16.167 -9.5 -22.5s-13.833 -9.5 -22.5 -9.5s-16.334 3.16699 -23.001 9.5s-10 13.833 -10 22.5c0 60.667 -1.33301 136 -4 226l-1 46c0 23.333 -0.333008 39 -1 47c-1.33301 66.667 -2 111.334 -2 134.001l-6 -3
c-6 -3.33301 -9.33301 -8.33301 -10 -15c-2 -6.66699 -5.83301 -12.167 -11.5 -16.5s-12.167 -6.5 -19.5 -6.5c-4 0 -7 0.333008 -9 1c-8.66699 2 -15.167 6.83301 -19.5 14.5s-5.5 15.834 -3.5 24.501c10 36.667 36.667 59.667 80 69z" />
    <glyph glyph-name="G" unicode="G" horiz-adv-x="816" 
d="M486.5 672.5c-25 22.333 -53.1641 33.4971 -84.4971 33.4971c-22.667 0 -46 -6.33301 -70 -19c-48 -24.667 -84.333 -68.334 -109 -131.001l-3 -6c60.667 -2.66699 145 -13.667 253 -33c19.333 -3.33301 40 -7.33301 62 -12l28 -6l25 -5
c7.33301 -1.33301 14.166 -2.66602 20.499 -3.99902s11.833 -2.33301 16.5 -3l12 -2h3c24.667 1.33301 49.667 8 75 20c-2 4 -3 8.33301 -3 13c0 13.333 6.66699 23 20 29c2.66699 1.33301 6.66699 2 12 2c8 0 15.667 -2 23 -6s13.333 -9.66699 18 -17
c4.66699 -6.66699 7 -14 7 -22c0 -10 -3.83301 -19.833 -11.5 -29.5s-18.834 -18.167 -33.501 -25.5c-34 -18 -69 -27.667 -105 -29c-7.33301 0 -13.333 0.333008 -18 1c3.33301 -99.333 -12.667 -187.666 -48 -264.999c-18 -38.667 -39.833 -71.834 -65.5 -99.501
s-53.5 -47.834 -83.5 -60.501c-22.667 -10 -45.667 -15 -69 -15c-42.667 0 -81.334 15.667 -116.001 47c-40 36.667 -69 87 -87 151s-27 130.667 -27 200c0 40.667 2.33301 74.667 7 102c-21.333 -2.66699 -36 -8 -44 -16l-4 -8l-1 -6l2 -10c0.666992 -2 1 -4.66699 1 -8
c0 -7.33301 -2.16699 -14 -6.5 -20s-9.83301 -9.66699 -16.5 -11c-2 -0.666992 -5 -1 -9 -1c-7.33301 0 -14 2.16699 -20 6.5s-10 9.83301 -12 16.5c-2.66699 10 -4 20 -4 30c0 24.667 9.66699 44.834 29 60.501s45.333 26.167 78 31.5l23 2c2 7.33301 5.66699 18.333 11 33
c24 58.667 57.833 104.834 101.5 138.501s89.834 50.5 138.501 50.5c28 0 54.333 -5.66699 79 -17c61.333 -28 102.333 -81 123 -159c0.666992 -2 1 -4.66699 1 -8c0 -7.33301 -2.33301 -14.166 -7 -20.499s-10.334 -10.166 -17.001 -11.499c-2 -0.666992 -5 -1 -9 -1
c-7.33301 0 -13.833 2.16699 -19.5 6.5s-9.5 9.83301 -11.5 16.5c-11.333 42 -29.5 74.167 -54.5 96.5zM193.003 380.997c0 -62 7.83105 -121.334 23.498 -178.001s38.834 -99 69.501 -127c21.333 -20 45.333 -30 72 -30c28.667 0 57.334 12 86.001 36s53 57.667 73 101
c28 61.333 42 131 42 209c0 18.667 -0.333008 32.667 -1 42l-35 7c-22 4.66699 -42.667 8.66699 -62 12c-112 20.667 -198.333 31.334 -259 32.001c-6 -30 -9 -64.667 -9 -104z" />
    <glyph glyph-name="H" unicode="H" horiz-adv-x="798" 
d="M-22 402l-2.00195 1.99902l-4 6c-8 10 -12 20.667 -12 32c0 6.66699 2 14 6 22c10 21.333 25.667 36.666 47 45.999s46 15.666 74 18.999c2 61.333 6.66699 121.333 14 180c0.666992 8 4.33398 14.667 11.001 20s14 8 22 8c10 0 18 -3.83301 24 -11.5
s8.33301 -16.167 7 -25.5c-6.66699 -47.333 -11 -102.666 -13 -165.999c50 1.33301 122 -2 216 -10l30 -3l123 -10l49 -2c-2 79.333 -5.33301 146.333 -10 201c-1.33301 10 1.16699 18.333 7.5 25s14.5 10 24.5 10c8.66699 0 16 -2.83301 22 -8.5s9.33301 -12.5 10 -20.5
c5.33301 -69.333 9 -138.333 11 -207c26 1.33301 46 4.33301 60 9c3.33301 0.666992 7 2.33398 11 5.00098c-10 6.66699 -15 15.334 -15 26.001s4.33301 19.667 13 27c8 5.33301 16 7.66602 24 6.99902v-1h2c4.66699 0 10 -1.33301 16 -4
c4.66699 -2.66699 9.33398 -7 14.001 -13c9.33301 -11.333 14 -24 14 -38c0 -20.667 -7.66699 -38 -23 -52c-8 -7.33301 -19.667 -13.666 -35 -18.999c-20 -6.66699 -47 -10.667 -81 -12v-50c0 -70 -0.333008 -129.333 -1 -178l-2 -183
c0 -8.66699 -3.16699 -16.167 -9.5 -22.5s-13.833 -9.5 -22.5 -9.5s-16.334 3.16699 -23.001 9.5s-10 13.833 -10 22.5l2 183c0.666992 48.667 1 108 1 178v50l-53 2l-125 10l-29 3c-94 8 -165 11.333 -213 10c0 -69.333 1.33301 -147 4 -233c2.66699 -80.667 4 -148 4 -202
c0 -9.33301 -3 -17.166 -9 -23.499s-13.667 -9.5 -23 -9.5s-17.166 3.16699 -23.499 9.5s-9.5 14.166 -9.5 23.499c0 53.333 -1.33301 120 -4 200c-2.66699 86 -4 162.333 -4 229c-28 -4.66699 -46.667 -11.667 -56 -21h1v-1c5.33301 -7.33301 8 -14.333 8 -21
c0 -10 -4 -18 -12 -24c-6.66699 -5.33301 -13.667 -8 -21 -8c-10 0 -18.333 4 -25 12h-1z" />
    <glyph glyph-name="I" unicode="I" horiz-adv-x="309" 
d="M71 5.5c10 9 22.335 14.166 37.002 15.499h9l-1 205c-0.666992 11.333 -1 28.666 -1 51.999c0 30 -0.333008 57 -1 81l-2 346v1c-7.33301 0 -14.333 -0.666992 -21 -2h-2c0.666992 -8.66699 -1.83301 -16.5 -7.5 -23.5s-12.834 -10.833 -21.501 -11.5
c-8.66699 -1.33301 -16.5 0.833984 -23.5 6.50098s-11.167 13.167 -12.5 22.5c-2 18.667 2 34.167 12 46.5s24 20.166 42 23.499c8 2 18.333 3 31 3c16.667 0 33 -1.33301 49 -4l20 -3l42 -6c3.33301 6 7.5 10.833 12.5 14.5s10.5 5.5 16.5 5.5
c11.333 0 20 -4.16699 26 -12.5s9.33301 -17.833 10 -28.5c0 -10.667 -3 -19.667 -9 -27s-13.667 -12 -23 -14c-4.66699 -2 -10.334 -3 -17.001 -3h-7c-3.33301 0 -11.666 0.666992 -24.999 2l-27 3l2 -339c0.666992 -23.333 1 -50 1 -80c0 -24.667 0.333008 -43 1 -55
l1 -211v-2c15.333 -3.33301 26 -4.33301 32 -3h2v1c0.666992 0.666992 1 2.66699 1 6c1.33301 8 5.16602 14.833 11.499 20.5s13.5 8.5 21.5 8.5c8.66699 0 16.334 -3.66699 23.001 -11s9.66699 -15.666 9 -24.999c-4 -36 -22.333 -57.333 -55 -64
c-8 -1.33301 -13.667 -2 -17 -2c-11.333 0 -28 2.33301 -50 7l-6 1c-20 4 -33 6 -39 6c-2 -7.33301 -5.83301 -13.166 -11.5 -17.499s-11.834 -6.5 -18.501 -6.5c-11.333 0 -20 4 -26 12s-8.33301 17 -7 27c2.66699 14 9 25.5 19 34.5z" />
    <glyph glyph-name="J" unicode="J" horiz-adv-x="536" 
d="M332 768c6.66699 1.33301 12.335 2.00391 17.002 2.00391c12 0 28.667 -3 50 -9l10 -3c20.667 -5.33301 34 -8.33301 40 -9h2c6 10.667 15.333 16 28 16c9.33301 0 17 -3.33301 23 -10s9 -14.334 9 -23.001c0 -5.33301 -1 -10 -3 -14c-6 -12 -14.5 -20.667 -25.5 -26
s-22.833 -7.66602 -35.5 -6.99902c-9.33301 0 -19 1.33301 -29 4h-1c-2.66699 -19.333 -4.33398 -42.333 -5.00098 -69s-1 -68 -1 -124c0 -69.333 -1.66699 -128.833 -5 -178.5s-10.666 -97.834 -21.999 -144.501c-16 -62.667 -39.667 -110.667 -71 -144
s-65.333 -50 -102 -50c-10.667 0 -23.667 2.33301 -39 7c-32.667 11.333 -61.5 33.5 -86.5 66.5s-41.5 69.167 -49.5 108.5c-2.66699 17.333 -4 30 -4 38c0 27.333 6 51.333 18 72c6 11.333 15.667 17 29 17c6 0 11.333 -1.33301 16 -4c10 -6 15 -15.333 15 -28
c0 -6.66699 -1.33301 -12.334 -4 -17.001c-6 -10 -9 -22.667 -9 -38c0 -16.667 3.5 -34.667 10.5 -54s16.5 -37 28.5 -53c11.333 -16 23.5 -28.167 36.5 -36.5s25.833 -12.5 38.5 -12.5c13.333 0 25.666 4.33301 36.999 13c31.333 24.667 54.5 64.667 69.5 120
s23.833 126.666 26.5 213.999c1.33301 38.667 2 81 2 127c0 82 2.33301 143.667 7 185c-4 0.666992 -7.33301 0.666992 -10 0c-0.666992 -0.666992 -1.5 -1 -2.5 -1s-1.83301 -0.333008 -2.5 -1l-5 -10c-1.33301 -6.66699 -5 -12.167 -11 -16.5s-12.667 -6.5 -20 -6.5
c-9.33301 0 -17 3.16699 -23 9.5s-9 13.833 -9 22.5c0 4 0.333008 7 1 9c9.33301 33.333 29.666 52.666 60.999 57.999z" />
    <glyph glyph-name="K" unicode="K" horiz-adv-x="622" 
d="M465.5 624.5c-26.333 -31 -66.8301 -75.502 -121.497 -133.502c0 -0.666992 -0.333008 -1 -1 -1l-1 -2c-59.333 -64.667 -98.666 -108.334 -117.999 -131.001c-15.333 -18 -27.666 -34.667 -36.999 -50l-4 -6l3 -2c4 -1.33301 8 -3.16602 12 -5.49902
s7.33301 -4.16602 10 -5.49902l6 -3c24.667 -14 68 -41.667 130 -83h1c29.333 -20 60.666 -40.333 93.999 -61c12 -7.33301 29.333 -16.333 52 -27h2c0 -0.666992 0.333008 -1 1 -1l4 -2c40 -18 69.333 -35 88 -51c7.33301 -7.33301 11 -16 11 -26
c0 -8 -2.33301 -14.667 -7 -20c-7.33301 -7.33301 -16 -11 -26 -11c-8 0 -14.667 2.33301 -20 7c-13.333 12 -38 26 -74 42l-3 2c-0.666992 0 -1 0.333008 -1 1h-2c-24.667 10.667 -44.334 20.667 -59.001 30c-22 12.667 -54 33.667 -96 63h-1
c-58 38.667 -100 65.334 -126 80.001l-9 5l-17 8l-13 8l-2 -21c-2.66699 -52 -4 -88 -4 -108c0 -24 1.33301 -52.667 4 -86c1.33301 -9.33301 -1 -17.5 -7 -24.5s-13.667 -10.5 -23 -10.5c-8.66699 0 -16.334 2.83301 -23.001 8.5s-10.334 12.5 -11.001 20.5
c-2.66699 36 -4 66.333 -4 91c0 20.667 1.33301 58.334 4 113.001l3 56c5.33301 70 8 122.667 8 158l-1 58c-0.666992 4.66699 -1 12 -1 22c-0.666992 8.66699 -1 18.667 -1 30c-0.666992 14 -1 33.333 -1 58c0 35.333 1.66699 67.333 5 96
c1.33301 7.33301 5.16602 13.666 11.499 18.999s13.5 8 21.5 8c10.667 0 19 -3.5 25 -10.5s8.33301 -15.833 7 -26.5c-3.33301 -25.333 -5 -54.666 -5 -87.999c0 -23.333 0.333008 -41.333 1 -54c0 -10.667 0.333008 -20.334 1 -29.001c2 -50.667 2.66699 -85.667 2 -105
l-2 -55l23 29c25.333 30.667 65.333 75.334 120 134.001l3 3l119.5 133c23 26.667 38.167 47.334 45.5 62.001c2.66699 5.33301 6.83398 9.66602 12.501 12.999s11.167 5 16.5 5c3.33301 0 8.33301 -1.33301 15 -4c5.33301 -2.66699 9.66602 -6.83398 12.999 -12.501
s5 -11.167 5 -16.5c0 -3.33301 -1.33301 -8.33301 -4 -15c-10 -19.333 -28.167 -44.5 -54.5 -75.5z" />
    <glyph glyph-name="L" unicode="L" horiz-adv-x="566" 
d="M149 586c0 -29.333 0.334961 -52.335 1.00195 -69.002c0.666992 -4.66699 1 -15.667 1 -33l1 -35c2 -54.667 3 -95.667 3 -123s-1.33301 -62 -4 -104c-2 -30 -2.66699 -43 -2 -39c-0.666992 -16 -1 -37.667 -1 -65c0 -24.667 0.333008 -42 1 -52
c30.667 0.666992 74 -2 130 -8c4 -0.666992 8.66699 -1 14 -1c50 -4.66699 84.333 -7 103 -7c23.333 0 40.666 1.66699 51.999 5c10.667 2.66699 18.167 5.83398 22.5 9.50098s6.5 8.83398 6.5 15.501s-1.33301 14 -4 22c-0.666992 2 -1 5 -1 9c0 8.66699 3 16.167 9 22.5
s13.667 9.5 23 9.5c7.33301 0 14 -2.16699 20 -6.5s10 -9.83301 12 -16.5c4 -14 6 -27 6 -39c0 -22.667 -6.83301 -41.667 -20.5 -57s-33.167 -26 -58.5 -32c-18.667 -4.66699 -41.334 -7 -68.001 -7c-22 0 -58 2.33301 -108 7c-2 0.666992 -6.66699 1 -14 1
c-55.333 5.33301 -93.333 8 -114 8c-22 0 -37.667 -1.66699 -47 -5c-2.66699 -0.666992 -5 -2 -7 -4c-0.666992 0 -1 -0.333008 -1 -1c-2.66699 -5.33301 -6.5 -9.5 -11.5 -12.5s-10.5 -4.5 -16.5 -4.5s-11.333 1.33301 -16 4c-5.33301 2.66699 -9.66602 6.66699 -12.999 12
s-5 10.666 -5 15.999c0 3.33301 1.33301 8.33301 4 15c8.66699 16 21.667 27.333 39 34c-1.33301 12.667 -2 34.334 -2 65.001c0 28 0.333008 50 1 66c-0.666992 -4 0 9 2 39c2.66699 40 4 73.667 4 101c0 26 -1 66 -3 120l-1 36c0 17.333 -0.333008 28.333 -1 33l-1 70
c0 55.333 2.33301 105 7 149c0.666992 8 4.16699 14.833 10.5 20.5s13.833 8.5 22.5 8.5c9.33301 0 17.166 -3.66699 23.499 -11s8.83301 -16 7.5 -26c-4 -36 -6 -82.667 -6 -140z" />
    <glyph glyph-name="M" unicode="M" horiz-adv-x="752" 
d="M704 354c0 -108.667 5.33398 -221.33 16.001 -337.997c0.666992 -9.33301 -2 -17.5 -8 -24.5s-13.667 -10.5 -23 -10.5c-8.66699 0 -16.334 2.83301 -23.001 8.5s-10.334 12.5 -11.001 20.5c-10.667 115.333 -16 228.666 -16 339.999c0 73.333 2.66699 148.333 8 225
c-30.667 -74.667 -67.334 -176 -110.001 -304s-67 -215.333 -73 -262c-1.33301 -9.33301 -5.66602 -16.666 -12.999 -21.999s-15.333 -7.33301 -24 -6c-10 1.33301 -17.333 5.66602 -22 12.999c-2.66699 2.66699 -5 6 -7 10c-16 37.333 -35 86.333 -57 147l-28 79
c-8 20.667 -13.667 36.334 -17 47.001l-15 38c-31.333 85.333 -58.666 154 -81.999 206c-18 40 -32.667 69.667 -44 89l-2 -127v-14c-2.66699 -90 -4 -165.333 -4 -226l-3 -239c-1.33301 -6.66699 -5 -12.334 -11 -17.001s-12.667 -7 -20 -7c-3.33301 0 -6 0.333008 -8 1
c-8 2 -13.833 6.66699 -17.5 14s-5.5 16 -5.5 26v45c0.666992 8.66699 1 25.667 1 51c-0.666992 5.33301 -1 21 -1 47v79c0 62 1.33301 138 4 228v13c2 92 3 163 3 213c0 12.667 6 22 18 28c2 3.33301 4 5.33301 6 6c6.66699 4.66699 13 7 19 7c10 0 18.667 -4.66699 26 -14
c30.667 -41.333 60.167 -92.833 88.5 -154.5s59.5 -139.167 93.5 -232.5l15 -38c3.33301 -10.667 9 -26.334 17 -47.001c21.333 -60.667 37.666 -105.667 48.999 -135c26.667 98 64.334 215.667 113.001 353s87 224.333 115 261c6 7.33301 13.667 11.666 23 12.999
c5.33301 5.33301 12.333 8 21 8c11.333 0 20.333 -4.33301 27 -13c5.33301 -7.33301 7.33301 -15.333 6 -24c-16 -110 -24 -230.333 -24 -361z" />
    <glyph glyph-name="N" unicode="N" horiz-adv-x="651" 
d="M90 198l0.00292969 85.999v43v51c0 67.333 1 126 3 176s6 97.667 12 143c0.666992 8.66699 4.66699 16 12 22c2 2 5 4.33301 9 7c5.33301 3.33301 11 5 17 5c12 0 21 -5 27 -15c28.667 -46 87.334 -134.667 176.001 -266l1 -2l140 -210l73 -117
c-2.66699 62 -4.33398 99.333 -5.00098 112c-4.66699 61.333 -7 121.666 -7 180.999c0 28.667 1 61.334 3 98.001l2 56c3.33301 76.667 5 128 5 154c0 9.33301 3.16699 17.166 9.5 23.499s14.166 9.5 23.499 9.5s17 -3.16699 23 -9.5s9 -14.166 9 -23.499
c0 -26.667 -1.66699 -79 -5 -157l-2 -56c-2 -42 -3 -76.667 -3 -104c0 -32.667 1 -68 3 -106l4 -62c4.66699 -90 7 -151 7 -183c0 -12.667 -0.666992 -33 -2 -61c0 -9.33301 -3.33301 -17 -10 -23s-14.667 -8.66699 -24 -8c-8 0 -14.833 2.83301 -20.5 8.5
s-9.16699 12.5 -10.5 20.5c-34 61.333 -70.333 122.333 -109 183l-158 238c0 0.666992 -0.333008 1 -1 1l-37 55l-93 140c-2 -20.667 -3.66699 -53 -5 -97c-1.33301 -45.333 -2 -87.666 -2 -126.999v-57v-43v-86c0 -80.667 -1 -144 -3 -190
c-0.666992 -8.66699 -4.33398 -16 -11.001 -22s-14.334 -8.66699 -23.001 -8c-8.66699 0 -16 3.33301 -22 10s-9 14.667 -9 24c2 44 3 106 3 186z" />
    <glyph glyph-name="O" unicode="O" horiz-adv-x="674" 
d="M650 460c0 -84 -16.5 -163.335 -49.5 -238.002s-76.833 -133.667 -131.5 -177c-48 -38 -97 -57 -147 -57c-24.667 0 -47.667 4.33301 -69 13c-34.667 14.667 -65 40.667 -91 78s-46 81.333 -60 132s-21 102.667 -21 156c0 70.667 12 133 36 187
c18 40.667 41.667 76.834 71 108.501s62 56.834 98 75.501c41.333 21.333 83.666 32 126.999 32c30.667 0 60 -6 88 -18c26.667 -11.333 53.334 -32.333 80.001 -63s43.667 -59 51 -85c12 -48 18 -96 18 -144zM192 559.498
c-31.333 -54.333 -47.001 -117.168 -47.001 -188.501c0 -40.667 4.66699 -80 14 -118c16 -67.333 38.167 -117.666 66.5 -150.999s60.5 -50 96.5 -50c33.333 0 69 14.667 107 44c48.667 39.333 86.667 92.333 114 159s41 136.334 41 209.001
c0 25.333 -1.33301 47.666 -4 66.999c-12 57.333 -32.5 101 -61.5 131s-63.833 45 -104.5 45c-31.333 0 -64 -9 -98 -27c-51.333 -26 -92.666 -66.167 -123.999 -120.5z" />
    <glyph glyph-name="P" unicode="P" horiz-adv-x="531" 
d="M272 767c26.667 0 51.666 -2.33203 74.999 -6.99902c26.667 -5.33301 52.5 -15.5 77.5 -30.5s44.5 -32.167 58.5 -51.5c16 -20 24 -41 24 -63c0 -16.667 -5.16699 -33 -15.5 -49s-25.5 -30.333 -45.5 -43c-24.667 -15.333 -51.667 -27.333 -81 -36
s-64.666 -16.334 -105.999 -23.001c-7.33301 -0.666992 -38.666 -5.33398 -93.999 -14.001v-58v-32v-341c0 -8.66699 -3.16699 -16.167 -9.5 -22.5s-13.833 -9.5 -22.5 -9.5s-16.334 3.16699 -23.001 9.5s-10 13.833 -10 22.5v341v32v309c0 13.333 6 23 18 29
c4 8.66699 10.333 14.334 19 17.001c47.333 13.333 92.333 20 135 20zM212.999 523.001l35.999 6.00098c39.333 6 71.5 12.667 96.5 20s47.167 17.333 66.5 30c20 11.333 30 23 30 35c0 7.33301 -3.66699 15.666 -11 24.999c-9.33301 13.333 -23.166 25.333 -41.499 36
s-36.833 17.667 -55.5 21c-20 4 -41 6 -63 6c-34 0 -69.333 -5 -106 -15v-171z" />
    <glyph glyph-name="Q" unicode="Q" horiz-adv-x="845" 
d="M119 96c7.33301 5.33301 15.335 9.33105 24.002 11.998c-20 36 -36 79.333 -48 130c-10.667 44.667 -16 88.667 -16 132c0 64.667 12.667 126 38 184c18 40.667 41.667 76.834 71 108.501s62 56.834 98 75.501c41.333 21.333 83.666 32 126.999 32c30.667 0 60 -6 88 -18
c54 -22.667 93.333 -66 118 -130c6.66699 -4.66699 11 -10.667 13 -18c12 -48 18 -96 18 -144c0 -83.333 -16.167 -161.833 -48.5 -235.5s-74.833 -132.167 -127.5 -175.5l53 -20l37.5 -14.5c19.667 -7.66699 36.834 -13.667 51.501 -18s25.667 -6.5 33 -6.5
c29.333 -1.33301 53 4.5 71 17.5s29.333 29.5 34 49.5c1.33301 9.33301 2 15 2 17c0 7.33301 -1.33301 12.333 -4 15l-1 1h-1l-8 -3c-6.66699 -2.66699 -11.667 -4 -15 -4c-6 0 -11.5 1.66699 -16.5 5s-9.16699 7.66602 -12.5 12.999c-2 5.33301 -3 10 -3 14
c0 6 1.66699 11.833 5 17.5s7.66602 9.83398 12.999 12.501c14.667 6.66699 27.667 10 39 10c10 0 19.5 -2.16699 28.5 -6.5s16.5 -10.833 22.5 -19.5c12 -16 18 -35 18 -57c0 -20.667 -4.83301 -41 -14.5 -61s-23.5 -37 -41.5 -51c-29.333 -24 -62.333 -36 -99 -36
c-28 0 -64.333 8 -109 24l-54 20l-29 11l-30 12c-13.333 4.66699 -26.666 9.66699 -39.999 15c-30.667 -12.667 -58.334 -19 -83.001 -19c-22.667 0 -45.334 4.66699 -68.001 14c-26 11.333 -49 28 -69 50c-30 -4 -49 -19.333 -57 -46c-2 -6.66699 -5.83301 -12 -11.5 -16
s-12.167 -6 -19.5 -6c-9.33301 0 -17 3.16699 -23 9.5s-9 13.833 -9 22.5c0 4 0.333008 7 1 9c8.66699 32 26.667 56 54 72zM516.502 664.998c-28.333 27.333 -62.502 40.999 -102.502 40.999c-30.667 0 -63.334 -8.66699 -98.001 -26
c-51.333 -26 -92.666 -66.167 -123.999 -120.5s-47 -117.166 -47 -188.499c0 -40.667 4.66699 -80 14 -118c13.333 -56 31.333 -101 54 -135c46.667 -1.33301 106.334 -14.333 179.001 -39l8 -3l29 20c48.667 39.333 86.667 92.333 114 159s41 136.334 41 209.001
c0 25.333 -1.33301 47.666 -4 66.999c-4 6.66699 -6.33301 11.667 -7 15c-9.33301 52 -28.166 91.667 -56.499 119z" />
    <glyph glyph-name="R" unicode="R" horiz-adv-x="724" 
d="M290 773c35.333 0 70 -4.66309 104 -13.9961s65.333 -22.333 94 -39c56.667 -34.667 85 -73.667 85 -117c0 -26 -10.667 -49.167 -32 -69.5s-51.666 -36.833 -90.999 -49.5c-25.333 -8.66699 -51.5 -14.5 -78.5 -17.5s-63.5 -5.5 -109.5 -7.5h-8
c-14 0 -23.667 -0.333008 -29 -1c20.667 -20.667 52.667 -60 96 -118l109 -142c67.333 -84 119 -134.333 155 -151c7.33301 -4 13.333 -5.66699 18 -5c2.66699 0 5 1 7 3c11.333 10 19.333 34.333 24 73c1.33301 8.66699 5.16602 15.667 11.499 21s13.5 8 21.5 8
c10 0 18.167 -3.66699 24.5 -11s8.83301 -16 7.5 -26c-7.33301 -55.333 -22.333 -93.333 -45 -114c-14.667 -12.667 -31.667 -19 -51 -19c-14 0 -29.333 3.66699 -46 11c-24 10.667 -50.5 30.167 -79.5 58.5s-61.833 65.5 -98.5 111.5l-48 61l-62 82
c-44 58.667 -77 99 -99 121l-5 4v-168v-55v-188c0 -9.33301 -3 -17.166 -9 -23.499s-13.667 -9.5 -23 -9.5s-17.166 3.16699 -23.499 9.5s-9.5 14.166 -9.5 23.499v189v54v243c0 19.333 1.33301 43.333 4 72c0.666992 4 1 7.66699 1 11s0.333008 6.66602 1 9.99902
c0.666992 11.333 1 26.666 1 45.999c0 21.333 -0.666992 36 -2 44v4c0 3.33301 0.666992 7.66602 2 12.999c1.33301 11.333 6 19.666 14 24.999c47.333 31.333 103.666 47 168.999 47zM252 524.004l7.99805 0.000976562c40 0.666992 72.667 2.5 98 5.5
s49.333 8.16699 72 15.5c30.667 10.667 52 22 64 34c9.33301 8 14 16.333 14 25c0 7.33301 -4.66699 16.666 -14 27.999s-22.333 22 -39 32c-23.333 14 -49.166 24.833 -77.499 32.5s-56.833 11.5 -85.5 11.5c-47.333 0 -87.666 -9.33301 -120.999 -28
c0.666992 -6.66699 1 -18.667 1 -36c0 -23.333 -0.666992 -41.666 -2 -54.999c0 -8 -0.333008 -15 -1 -21c-2 -22 -3 -38 -3 -48c14 1.33301 42.667 2.66602 86 3.99902z" />
    <glyph glyph-name="S" unicode="S" horiz-adv-x="604" 
d="M489 647c0 23.333 -10.166 42.834 -30.499 58.501s-47.833 26.167 -82.5 31.5c-14.667 1.33301 -25.334 2 -32.001 2c-38.667 0 -71.667 -9 -99 -27s-43.333 -42.667 -48 -74c-0.666992 -2 -1 -4.66699 -1 -8c0 -14.667 6 -28 18 -40c13.333 -14.667 39.333 -32 78 -52
c8 -3.33301 20.333 -9.16602 37 -17.499l42 -21.5c53.333 -28.667 96 -57.667 128 -87s54.667 -65.333 68 -108c8 -24.667 12 -49.334 12 -74.001c0 -52 -16.167 -99.333 -48.5 -142s-74.5 -71.334 -126.5 -86.001c-22.667 -6.66699 -47 -10 -73 -10
c-46.667 0 -90 10.833 -130 32.5s-67.667 50.5 -83 86.5c-8.66699 22 -13 42 -13 60c0 34.667 12.667 69.667 38 105c7.33301 9.33301 16 14 26 14c6.66699 0 13 -2 19 -6c9.33301 -6 14 -15 14 -27c0 -6.66699 -2 -13 -6 -19c-16.667 -23.333 -25 -46 -25 -68
c0 -21.333 7.66699 -40.666 23 -57.999s36.666 -31.333 63.999 -42c22 -8.66699 46.333 -13 73 -13c33.333 0 64.5 8 93.5 24s52.5 39.667 70.5 71c13.333 24 20 49.333 20 76c0 27.333 -6.5 53.833 -19.5 79.5s-30.5 48.5 -52.5 68.5c-22 19.333 -56 41 -102 65l-41.5 21.5
c-16.333 8.33301 -28.5 14.166 -36.5 17.499c-44.667 22.667 -78 45.167 -100 67.5s-33 48.833 -33 79.5c0 4.66699 0.666992 11.667 2 21c8 49.333 32 87.666 72 114.999s86.667 41 140 41c13.333 0 27 -1 41 -3c48.667 -6 89.167 -22.667 121.5 -50
s48.5 -61.333 48.5 -102c0 -20 -5 -42 -15 -66c-2.66699 -6 -6.66699 -10.833 -12 -14.5s-11.333 -5.5 -18 -5.5c-9.33301 0 -17.166 3.33301 -23.499 10s-9.5 14.334 -9.5 23.001c0 4.66699 1 9 3 13c6 14 9 26.667 9 38z" />
    <glyph glyph-name="T" unicode="T" horiz-adv-x="644" 
d="M-6 673c0 21.333 8.66797 38.666 26.001 51.999s40.333 22.333 69 27c16 2.66699 37 4 63 4c33.333 0 76.666 -2.66699 129.999 -8l21 -3c30.667 -3.33301 52.334 -6 65.001 -8l24 -3l44 -6l30 -4c28.667 -4 46 -5.66699 52 -5c1.33301 0 2.33301 0.333008 3 1
c1.33301 0.666992 2.83301 1.33398 4.5 2.00098s3.5 1.33398 5.5 2.00098l15 10c-5.33301 7.33301 -8 14 -8 20c0 9.33301 3.5 17.333 10.5 24s14.5 10 22.5 10c6.66699 0 13.5 -2 20.5 -6s12.833 -9 17.5 -15c6.66699 -7.33301 10 -17 10 -29c0 -16.667 -8 -32.667 -24 -48
c-9.33301 -9.33301 -20.833 -17.333 -34.5 -24s-26.167 -10.667 -37.5 -12c-9.33301 -0.666992 -31.333 1 -66 5l-29 4c-20 2.66699 -35 5 -45 7l-24 3l-17 2c0 -54 -1 -137.667 -3 -251l-1 -31c0 -14.667 -0.333008 -24.667 -1 -30v-21
c-1.33301 -86.667 -2 -145.334 -2 -176.001c0 -43.333 0.666992 -94.333 2 -153c0 -9.33301 -3 -17.166 -9 -23.499s-13.333 -9.5 -22 -9.5c-9.33301 -0.666992 -17.333 2 -24 8s-10 13.667 -10 23c-1.33301 60 -2 111.667 -2 155c0 31.333 0.666992 90.333 2 177v21
c0.666992 5.33301 1 15.666 1 30.999l1 30c2 116 3 202 3 258c-1.33301 0 -2.33301 0.333008 -3 1c-49.333 5.33301 -88.666 8 -117.999 8c-18 0 -37 -1.33301 -57 -4c-18.667 -2.66699 -31.334 -7 -38.001 -13l-1 -2v-3l1 -6c0.666992 -2 1 -5.33301 1 -10
c0 -8.66699 -2.83301 -16.167 -8.5 -22.5s-13.167 -9.5 -22.5 -9.5c-6.66699 0 -12.834 2 -18.501 6s-10.167 9.33301 -13.5 16c-3.33301 11.333 -5 21 -5 29z" />
    <glyph glyph-name="U" unicode="U" horiz-adv-x="640" 
d="M168 669c0 -42.667 -0.333984 -78.3359 -1.00098 -107.003c-0.666992 -34 -1 -72 -1 -114c0 -45.333 1.33301 -81.666 4 -108.999c7.33301 -78.667 23 -145.667 47 -201c9.33301 -22 23.5 -40.333 42.5 -55s39.5 -23.334 61.5 -26.001c4 -0.666992 9.66699 -1 17 -1
c108.667 0 175.667 115 201 345c5.33301 42 8.66602 84.167 9.99902 126.5s2 94.5 2 156.5v27c0 9.33301 3.16699 17.166 9.5 23.499s13.833 9.5 22.5 9.5s16.334 -3.16699 23.001 -9.5s10 -14.166 10 -23.499v-27c0 -63.333 -0.666992 -116.5 -2 -159.5
s-4.66602 -86.5 -9.99902 -130.5c-30.667 -268.667 -118.334 -403 -263.001 -403c-6 0 -15 0.666992 -27 2c-33.333 3.33301 -64.333 16 -93 38s-50 49.333 -64 82c-28 64.667 -45.333 138.334 -52 221.001c-2.66699 29.333 -4 67 -4 113
c0 42.667 0.333008 81.334 1 116.001c0.666992 28 1 63 1 105v31c0 8.66699 3.16699 16.334 9.5 23.001s13.833 10 22.5 10s16.334 -3.16699 23.001 -9.5s10 -13.833 10 -22.5v-31z" />
    <glyph glyph-name="V" unicode="V" horiz-adv-x="640" 
d="M246 359c34 -90 63.6709 -176.669 89.0039 -260.002c25.333 61.333 58 152.333 98 273l6 19c26.667 80 47.834 141.667 63.501 185s32.5 86.333 50.5 129c2.66699 6 6.66699 10.833 12 14.5s11.333 5.5 18 5.5c9.33301 0 17.166 -3.33301 23.499 -10
s9.5 -14.334 9.5 -23.001c0 -4.66699 -1 -9 -3 -13c-18 -41.333 -35 -84.166 -51 -128.499s-36.333 -104.5 -61 -180.5l-6 -18c-26.667 -82 -49.5 -148.5 -68.5 -199.5s-39.5 -100.167 -61.5 -147.5c-2.66699 -6 -6.83398 -10.667 -12.501 -14s-11.5 -5 -17.5 -5
c-4.66699 0 -9 1 -13 3c-6.66699 3.33301 -11.334 7.33301 -14.001 12c-8.66699 4 -14.667 11 -18 21c-28 96.667 -60.333 194.334 -97 293.001s-86.334 224 -149.001 376c-1.33301 2.66699 -2 6.33398 -2 11.001c0 8.66699 3.16699 16.5 9.5 23.5s14.166 10.5 23.499 10.5
c6.66699 0 12.667 -1.83301 18 -5.5s9.33301 -8.5 12 -14.5z" />
    <glyph glyph-name="W" unicode="W" horiz-adv-x="933" 
d="M632 245l43 -139.001l9 39c10.667 46 31 120.333 61 223l12 40l52 171c18.667 63.333 30.334 105.333 35.001 126c2.66699 8.66699 7.83398 15.334 15.501 20.001s15.834 6 24.501 4c8.66699 -2.66699 15.334 -7.83398 20.001 -15.501s6 -15.834 4 -24.501l-62 -212
c-14 -43.333 -23 -72.666 -27 -87.999l-11 -39c-58.667 -198 -86.334 -316.667 -83.001 -356c0.666992 -8.66699 -1.83301 -16.5 -7.5 -23.5s-13.167 -10.833 -22.5 -11.5h-4c-4.66699 0 -9 1 -13 3c-10 0 -19 4 -27 12c-6 6.66699 -11.667 19 -17 37l-6 25l-58 189
c-33.333 107.333 -63 227.333 -89 360l-19 -63v-3l-91 -302l-70 -216c-2 -6.66699 -5.83301 -11.834 -11.5 -15.501s-12.167 -5.5 -19.5 -5.5c-4.66699 0 -8 0.333008 -10 1l-2 1c-12.667 3.33301 -20.334 10.333 -23.001 21c-14.667 42 -28 84.333 -40 127
s-29 106.334 -51 191.001l-3 11c-24 90 -43.667 160.833 -59 212.5s-32 102.167 -50 151.5c-0.666992 2 -1 5.33301 -1 10c0 9.33301 2.83301 17.333 8.5 24s13.5 10 23.5 10c6.66699 0 12.667 -2 18 -6s9.66602 -9.33301 12.999 -16c18 -50.667 34.833 -102.667 50.5 -156
s35.5 -124.666 59.5 -213.999l2 -11l43 -158c2.66699 -7.33301 5 -16 7 -26l13 -43c36.667 113.333 80 255.666 130 426.999c0.666992 0.666992 1 2 1 4l23 79l17 58.5c5.33301 19 10.666 36.5 15.999 52.5l1 1c0.666992 7.33301 3.5 13.833 8.5 19.5
s11.167 8.83398 18.5 9.50098c9.33301 1.33301 17.5 -0.666992 24.5 -6s11.167 -12.333 12.5 -21c27.333 -175.333 64.333 -338.333 111 -489z" />
    <glyph glyph-name="X" unicode="X" horiz-adv-x="648" 
d="M69 45l124.999 183.997l6 9c4 5.33301 8 11.333 12 18l9 14l75 110c-0.666992 2 -2.33398 4.33301 -5.00098 7c-7.33301 11.333 -14.666 21.333 -21.999 30l-7 10l-9 13l-5 7c-38 50.667 -68.833 93.667 -92.5 129s-45.5 71 -65.5 107
c-2.66699 4.66699 -4 10.334 -4 17.001c0 12.667 5.33301 22 16 28c6.66699 2.66699 11.667 4 15 4c6 0 11.5 -1.5 16.5 -4.5s9.16699 -7.16699 12.5 -12.5c19.333 -34.667 40.333 -68.834 63 -102.501s53 -76.167 91 -127.5l6 -7l16 -23l13 -18l48 68
c64 88.667 122.333 164.667 175 228c6 7.33301 14.333 11 25 11c8.66699 0 15.667 -2.33301 21 -7c7.33301 -6.66699 11 -15 11 -25c0 -8.66699 -2.33301 -15.667 -7 -21c-55.333 -66 -112.666 -140.667 -171.999 -224c-10 -13.333 -30.333 -42 -61 -86
c18 -25.333 46.667 -68.666 86 -129.999l2 -4l87.5 -131.5c21 -30.333 42.833 -59.5 65.5 -87.5c5.33301 -7.33301 8 -14.666 8 -21.999c0 -10 -4 -18 -12 -24c-6.66699 -5.33301 -13.667 -8 -21 -8c-10 0 -18.333 4.33301 -25 13c-24.667 30 -48.5 61.5 -71.5 94.5
s-51.5 76.5 -85.5 130.5c-0.666992 0 -1 0.333008 -1 1l-2 3l-54 83l-16 24l-61 -90l-15 -22l-8 -12c-2.66699 -3.33301 -4 -5.66602 -4 -6.99902l-141 -205c-7.33301 -9.33301 -16.333 -14 -27 -14c-6 0 -12 2 -18 6c-9.33301 7.33301 -14 16.333 -14 27c0 6 2 12 6 18z
" />
    <glyph glyph-name="Y" unicode="Y" horiz-adv-x="599" 
d="M304 76c0 20 0.669922 58.667 2.00293 116l3 70c2.66699 63.333 4 115 4 155c-22.667 38 -49.334 79.667 -80.001 125c-7.33301 10 -19.666 28 -36.999 54c-0.666992 2 -9.33398 14.667 -26.001 38l-8 11l-32 48c-4 6 -6 12 -6 18c0 10.667 4.66699 19.667 14 27
c6 4 12 6 18 6c11.333 0 20.333 -5 27 -15l33 -48l8 -11l15 -21c5.33301 -8.66699 9 -14 11 -16l36 -54c26.667 -39.333 45 -67.333 55 -84c49.333 74.667 108 154.667 176 240c6 8 14.667 12 26 12c8 0 14.667 -2.33301 20 -7c8 -6.66699 12 -15 12 -25
c0 -8.66699 -2.33301 -15.667 -7 -21c-70 -88 -133.333 -175 -190 -261c0 -46 -1.33301 -103.667 -4 -173l-3 -70c-1.33301 -56 -2 -93.667 -2 -113l1 -66c0 -9.33301 -3 -17.333 -9 -24s-13.333 -10 -22 -10s-16.334 3 -23.001 9s-10.334 13.333 -11.001 22z" />
    <glyph glyph-name="Z" unicode="Z" horiz-adv-x="626" 
d="M171 722c57.333 0 126.332 1 206.999 3l61 1c30 0 50.333 0.333008 61 1h69c8.66699 0 16.167 -3.16699 22.5 -9.5s9.5 -13.833 9.5 -22.5c0 -10.667 -4.66699 -19.667 -14 -27c-53.333 -63.333 -123.666 -152 -210.999 -266l-10 -13l-21 -27
c-36 -47.333 -57.333 -75 -64 -83c-20.667 -26.667 -37 -46.667 -49 -60c-0.666992 -1.33301 -3.33398 -4.33301 -8.00098 -9l-11 -13c-2.66699 -4.66699 -4.66699 -7 -6 -7c-27.333 -32.667 -50.333 -61.334 -69 -86.001c-9.33301 -11.333 -19.666 -26 -30.999 -44
c58.667 4 130.667 6 216 6c39.333 0 74.666 -0.333008 105.999 -1l127 -2c8.66699 0 16.167 -3.16699 22.5 -9.5s9.5 -13.833 9.5 -22.5s-3.16699 -16.334 -9.5 -23.001s-13.833 -10 -22.5 -10l-128 2c-31.333 0.666992 -66.333 1 -105 1c-104 0 -193.333 -3.66699 -268 -11
c-8 -1.33301 -15.667 0.833984 -23 6.50098s-11.666 12.834 -12.999 21.501c0 11.333 1.33301 20 4 26c15.333 30 33.5 59.5 54.5 88.5s47.833 62.167 80.5 99.5l6 6c9.33301 12 15.666 19.667 18.999 23c24 28.667 39.667 48 47 58l84 109l11 14l172 220
c-10 -0.666992 -29.667 -1 -59 -1l-59 -1c-81.333 -2 -150.666 -3 -207.999 -3l-89 1c-9.33301 0 -17 3.33301 -23 10s-8.66699 14.667 -8 24c0 8.66699 3.16699 16 9.5 22s13.833 9 22.5 9z" />
    <glyph glyph-name="bracketleft" unicode="[" horiz-adv-x="315" 
d="M230 658l-13.001 -0.00195312c-6.66699 0 -11.667 -0.333008 -15 -1c-32 0 -58 -3 -78 -9v-4c0.666992 -2 1 -5 1 -9l1 -6v-6c0.666992 -2.66699 1 -5.66699 1 -9c0 -22 -1.66699 -82 -5 -180c-2 -46.667 -3.33301 -71.667 -4 -75l-4 -142c-2 -82.667 -3 -153 -3 -211
v-53c1.33301 -44.667 2.66602 -75.667 3.99902 -93l4 -28v-1h3c24 -1.33301 56.333 2 97 10c20 4.66699 33 7 39 7c8 0 14.333 -1.66699 19 -5c4.66699 -2.66699 8.33398 -6.5 11.001 -11.5s4 -10.167 4 -15.5c0 -13.333 -4.33301 -22.166 -13 -26.499s-18 -7.33301 -28 -9
l-21 -3.5c-45.333 -7.33301 -79.333 -11 -102 -11c-14.667 0 -27.334 1.5 -38.001 4.5s-19 9.5 -25 19.5c-13.333 22 -20 93.667 -20 215c0 36 0.333008 70 1 102s1.33398 61 2.00098 87c0.666992 5.33301 1 13.666 1 24.999l4 143c1.33301 17.333 2.5 42.333 3.5 75
s1.83301 59 2.5 79c2 48 3 80.333 3 97v1c-0.666992 0.666992 -1 2 -1 4l-1 5v6v10c-0.666992 6 -1 13 -1 21c0 4 1 11 3 21c2.66699 6 6.66699 11 12 15c16.667 12.667 47.334 20.667 92.001 24l33 2c3.33301 0.666992 8.33301 1 15 1h7h7c3.33301 0.666992 7.33301 1 12 1
c9.33301 0.666992 17.333 -2.16602 24 -8.49902s10 -14.166 10 -23.499c0 -8.66699 -3 -16.167 -9 -22.5s-13.333 -9.83301 -22 -10.5c-4.66699 0 -9 -0.333008 -13 -1z" />
    <glyph glyph-name="backslash" unicode="\" horiz-adv-x="318" 
d="M292 52c1.33301 -2.66699 2.00293 -6.66699 2.00293 -12c0 -6.66699 -1.83301 -12.834 -5.5 -18.501s-8.5 -9.83398 -14.5 -12.501c-2.66699 -1.33301 -6.66699 -2 -12 -2c-6.66699 0 -12.834 1.83301 -18.501 5.5s-9.83398 8.5 -12.501 14.5
c-62.667 156 -147.334 379.333 -254.001 670c-1.33301 2.66699 -2 6.33398 -2 11.001c0 8.66699 3.16699 16.334 9.5 23.001s14.166 10 23.499 10c6 0 11.833 -2 17.5 -6s9.83398 -9 12.501 -15c105.333 -286 190 -508.667 254 -668z" />
    <glyph glyph-name="bracketright" unicode="]" horiz-adv-x="254" 
d="M94 722c28.667 5.33301 52.0029 8.99707 70.0029 10.9971c24.667 1.33301 41.667 -2 51 -10c8 -4.66699 12.667 -12.667 14 -24l1 -9c0 -5.33301 -1 -13 -3 -23c-0.666992 -0.666992 -1 -2.66699 -1 -6l-1 -5l-1 -6c-0.666992 -0.666992 -1 -1.66699 -1 -3
c-2 -36.667 -3.66699 -85.667 -5 -147l-1 -56l-3 -107l-1 -41c0 -20 -0.333008 -33.333 -1 -40c-2.66699 -126 -6.16699 -223.833 -10.5 -293.5s-10.5 -112.167 -18.5 -127.5c-5.33301 -9.33301 -14 -16.333 -26 -21c-4.66699 -1.33301 -11.667 -2.66602 -21 -3.99902
c-10.667 -1.33301 -19.667 -2 -27 -2c-10.667 0 -26 0.666992 -46 2c-6.66699 0 -11.334 0.333008 -14.001 1c-4 -1.33301 -7.33301 -1.66602 -10 -0.999023c-2.66699 0 -4.33398 0.333008 -5.00098 1h-1c-8 0 -15 2.66699 -21 8s-9.66699 12 -11 20v4
c0 8.66699 2.66699 16 8 22s12 9.66699 20 11c6 1.33301 10.667 1.33301 14 0h3l20 -1c30 -1.33301 50.333 -1.66602 61 -0.999023l4 28c2.66699 19.333 5 50 7 92c2.66699 61.333 5.66699 149 9 263c0.666992 6.66699 1 20 1 40l1 41l3 107l1 57c1.33301 58 3 108 5 150
l2 11l1 4c-21.333 -1.33301 -50 -6.33301 -86 -15l-17 -4l-7 -2c-2.66699 -1.33301 -6.33398 -2 -11.001 -2c-8 0 -15.333 3.16699 -22 9.5s-10 14.166 -10 23.499c0 6.66699 2 12.834 6 18.501s9.33301 9.5 16 11.5c14 4.66699 35.333 9.66699 64 15z" />
    <glyph glyph-name="asciicircum" unicode="^" horiz-adv-x="504" 
d="M219 675c7.33301 15.333 11.0029 23.335 11.0029 24.002l5 8c5.33301 9.33301 9 14.666 11 15.999s8 2 18 2c10.667 0 20 -4 28 -12l12 -14c9.33301 -14 17 -26.667 23 -38c9.33301 -16.667 28 -53.667 56 -111c40.667 -84.667 72 -153.667 94 -207
c1.33301 -2.66699 2 -6.66699 2 -12c0 -6 -1.83301 -11.833 -5.5 -17.5s-8.5 -9.83398 -14.5 -12.501c-2.66699 -1.33301 -6.66699 -2 -12 -2c-6.66699 0 -12.834 1.83301 -18.501 5.5s-9.83398 8.5 -12.501 14.5c-20 50 -50.333 117.333 -91 202
c-22.667 48 -41 84.333 -55 109l-29 -63l-101 -225c-2.66699 -6 -6.83398 -10.667 -12.501 -14s-11.5 -5 -17.5 -5c-4.66699 0 -9 1 -13 3c-6 2.66699 -10.833 6.66699 -14.5 12s-5.5 11.333 -5.5 18c0 4 1 8 3 12l101 226z" />
    <glyph glyph-name="underscore" unicode="_" horiz-adv-x="658" 
d="M236 -62c20.667 0 56.3311 -0.666992 106.998 -2l68 -3c74.667 -2.66699 138.334 -4 191.001 -4c8.66699 0 16.167 -3.16699 22.5 -9.5s9.5 -13.833 9.5 -22.5s-3.16699 -16.334 -9.5 -23.001s-13.833 -10 -22.5 -10c-53.333 0 -117.666 1.33301 -192.999 4l-68 3
c-54.667 1.33301 -93 2 -115 2c-75.333 0 -140.333 -3 -195 -9c-9.33301 -1.33301 -17.5 1.33398 -24.5 8.00098s-10.5 15 -10.5 25c0 8 2.66699 15 8 21s12 9.33301 20 10c65.333 6.66699 136 10 212 10z" />
    <glyph glyph-name="grave" unicode="`" horiz-adv-x="232" 
d="M531 1036l19.999 -23c7.33301 -8 14.666 -17 21.999 -27c19.333 -24.667 29 -45.334 29 -62.001c0 -8.66699 -3.16699 -16.5 -9.5 -23.5s-14.166 -10.5 -23.499 -10.5c-7.33301 0 -14 2.5 -20 7.5s-9.66699 11.167 -11 18.5c-2 11.333 -14 29.333 -36 54
c-4.66699 6 -11 13.333 -19 22s-14.333 15.334 -19 20.001c-4.66699 6.66699 -7 13.667 -7 21c0 10 3.66699 18.667 11 26c5.33301 4.66699 12 7 20 7c10.667 0 19.334 -4 26.001 -12z" />
    <glyph glyph-name="a" unicode="a" horiz-adv-x="506" 
d="M460 184c0 -53.333 3 -104.002 9 -152.002c1.33301 -9.33301 -1.16699 -17.666 -7.5 -24.999s-14.833 -11 -25.5 -11c-8 0 -15 2.66699 -21 8s-9.66699 12 -11 20c-6 48 -9 100.667 -9 158c0 26.667 0.333008 46.667 1 60c-12 -22.667 -19.333 -36 -22 -40l-18 -35
l-7 -14l-9 -17c-13.333 -26.667 -25.833 -49.167 -37.5 -67.5s-24.834 -34.166 -39.501 -47.499c-20 -18 -40.333 -27 -61 -27c-28.667 0 -52 15 -70 45c-12.667 20 -22.334 44.5 -29.001 73.5s-10 59.5 -10 91.5c0 34 3.66699 67.333 11 100s18.333 62 33 88
c22.667 38.667 49.834 66.5 81.501 83.5s65.167 25.5 100.5 25.5c36.667 0 69 -7 97 -21c0 4.66699 0.333008 8 1 10c0.666992 8.66699 4 15.667 10 21s13.333 8 22 8c9.33301 0 17.333 -3.66699 24 -11s9.33398 -15.666 8.00098 -24.999
c-14 -118.667 -21 -218.334 -21 -299.001zM368 428.998c-14.667 4.66699 -29.999 7.00098 -45.999 7.00098c-25.333 0 -49.333 -6.16699 -72 -18.5s-41.334 -31.166 -56.001 -56.499c-11.333 -20.667 -20 -44.834 -26 -72.501s-9 -55.5 -9 -83.5
c0 -26.667 2.5 -51.5 7.5 -74.5s11.833 -41.833 20.5 -56.5c5.33301 -8.66699 10.333 -13.667 15 -15c0.666992 -0.666992 2 -0.666992 4 0l13 9c19.333 19.333 40.333 51.666 63 96.999l9 17l7 14l19 38c16.667 30 37.667 70.333 63 121l13 27c6 14 10.667 23.333 14 28
c-11.333 8 -24.333 14.333 -39 19z" />
    <glyph glyph-name="b" unicode="b" horiz-adv-x="505" 
d="M134 620c0 -46.667 -2.66504 -113.332 -7.99805 -199.999l-1 -24c-1.33301 -13.333 -2 -19.333 -2 -18l-2 -37c34.667 64 75.334 114.333 122.001 151c36 27.333 70 41 102 41c20 0 38.667 -5.66699 56 -17c25.333 -17.333 44.833 -47.833 58.5 -91.5
s20.5 -91.834 20.5 -144.501c0 -39.333 -3.83301 -76.833 -11.5 -112.5s-18.5 -65.5 -32.5 -89.5c-19.333 -31.333 -43 -55.166 -71 -71.499s-58 -24.5 -90 -24.5c-42 0 -82.333 13.667 -121 41c-11.333 7.33301 -22.333 17 -33 29c1.33301 -12 2 -21 2 -27
c0 -8 -3.16699 -15.167 -9.5 -21.5s-13.5 -9.5 -21.5 -9.5s-15.333 2.66699 -22 8s-10.334 12 -11.001 20c-6 51.333 -9 103 -9 155c0 52.667 2.66699 121 8 205c0 -1.33301 0.666992 4.66699 2 18c6 94 9 167.667 9 221c0 38 -0.666992 66.667 -2 86
c-0.666992 10 2.16602 18.333 8.49902 25s14.166 10 23.499 10c8.66699 0 16.167 -3 22.5 -9s9.5 -13 9.5 -21c2 -30.667 3 -61.334 3 -92.001zM188.002 78.002c26.667 -20.667 55 -30.998 85 -30.998c4 0 10.667 0.666992 20 2c37.333 5.33301 66.333 26.333 87 63
c24 39.333 36 92.666 36 159.999c0 27.333 -2 54.166 -6 80.499s-9 47.5 -15 63.5s-12.833 28.667 -20.5 38s-17.5 14 -29.5 14c-17.333 0 -38 -9.33301 -62 -28c-39.333 -30 -74 -72.833 -104 -128.5s-47 -107.5 -51 -155.5c13.333 -31.333 33.333 -57.333 60 -78z" />
    <glyph glyph-name="c" unicode="c" horiz-adv-x="465" 
d="M297 489c-16.667 0 -35.335 -6.66797 -56.002 -20.001c-34.667 -22 -63.834 -54.667 -87.501 -98s-35.5 -87.333 -35.5 -132c0 -73.333 13.333 -128.666 40 -165.999c20.667 -28.667 46 -43 76 -43c32 0 61 16.333 87 49c30.667 36.667 49 86.334 55 149.001
c0.666992 8 4.16699 15 10.5 21s13.5 9 21.5 9c9.33301 0 17.333 -3.5 24 -10.5s9.33398 -15.5 8.00098 -25.5c-4 -50 -15.833 -94.5 -35.5 -133.5s-44.5 -69.333 -74.5 -91s-62 -32.5 -96 -32.5c-35.333 0 -66.666 11 -93.999 33s-48.666 53.667 -63.999 95s-23 90 -23 146
c0 55.333 14.667 109.666 44 162.999s65.666 94 108.999 122c32 20 62.667 30 92 30c32.667 0 60.834 -12.167 84.501 -36.5s40.167 -60.166 49.5 -107.499c1.33301 -8.66699 -0.5 -16.834 -5.5 -24.501s-11.833 -12.167 -20.5 -13.5c-8.66699 -2 -16.667 -0.5 -24 4.5
s-12 12.167 -14 21.5c-12 60.667 -35.667 91 -71 91z" />
    <glyph glyph-name="d" unicode="d" horiz-adv-x="514" 
d="M478 199l1.00195 -177c0 -9.33301 -3 -17.166 -9 -23.499s-13.667 -9.5 -23 -9.5s-17.166 3.16699 -23.499 9.5s-9.5 14.166 -9.5 23.499v97c-32.667 -58 -70 -98.333 -112 -121c-20.667 -12 -42.334 -18 -65.001 -18c-33.333 0 -61.333 13.333 -84 40
c-21.333 23.333 -37.5 55.333 -48.5 96s-16.5 83.667 -16.5 129c0 34.667 3.16699 67.167 9.5 97.5s15.5 55.5 27.5 75.5c19.333 31.333 43.666 55.833 72.999 73.5s60 26.5 92 26.5c26 0 51 -6 75 -18c18.667 -10 35.667 -23 51 -39c2 86 5 169 9 249
c0 8.66699 3.16699 16 9.5 22s13.833 9 22.5 9c9.33301 0 17.166 -3.33301 23.499 -10s9.5 -14.667 9.5 -24c-8 -150.667 -12 -320 -12 -508zM356.502 428.5c-20.333 17 -42.167 25.499 -65.5 25.499c-10.667 0 -23 -2.33301 -37 -7
c-31.333 -10.667 -56.666 -33 -75.999 -67s-28 -74.333 -26 -121c4 -98 20.333 -163.333 49 -196c11.333 -12 23.666 -18 36.999 -18c8.66699 0 19.667 3.33301 33 10c22.667 12.667 44.5 33.834 65.5 63.501s38 63.667 51 102s19.5 76.5 19.5 114.5
c0 3.33301 0.666992 7 2 11l-3 7c-12.667 33.333 -29.167 58.5 -49.5 75.5z" />
    <glyph glyph-name="e" unicode="e" horiz-adv-x="472" 
d="M118 239c0 -72 14.0029 -127.333 42.0029 -166c11.333 -14.667 24.166 -25.834 38.499 -33.501s29.166 -11.5 44.499 -11.5c16 0 31.667 3.83301 47 11.5s29.333 18.5 42 32.5c30.667 35.333 47.334 82.333 50.001 141c0.666992 8.66699 4.33398 16 11.001 22
s14.667 9 24 9c9.33301 -0.666992 16.833 -4.33398 22.5 -11.001s8.16699 -14.667 7.5 -24c-2.66699 -48 -13.5 -90.667 -32.5 -128s-43.5 -66.5 -73.5 -87.5s-62.333 -31.5 -97 -31.5c-36.667 0 -69.334 11.167 -98.001 33.5s-51.334 54.5 -68.001 96.5s-25 91 -25 147
c0 38 7.33301 74.667 22 110s34.5 66.5 59.5 93.5s52.833 46.833 83.5 59.5c23.333 10 45.666 15 66.999 15c38.667 0 72.167 -15 100.5 -45s48.166 -73 59.499 -129l3 -9c1.33301 -9.33301 -0.666992 -17.666 -6 -24.999s-12.666 -11.666 -21.999 -12.999
c-120.667 -19.333 -221 -29.333 -301 -30c-0.666992 -6 -1 -15 -1 -27zM338.503 427.5c-15.667 16.333 -33.8311 24.501 -54.498 24.501c-10.667 0 -24.334 -3.33301 -41.001 -10c-33.333 -14 -62.333 -39.333 -87 -76c-6.66699 -10.667 -12.667 -22.334 -18 -35.001
c58.667 3.33301 137.667 11.333 237 24c-8.66699 32 -20.834 56.167 -36.501 72.5z" />
    <glyph glyph-name="f" unicode="f" horiz-adv-x="306" 
d="M39 533l14.999 1.00488c4.66699 0 13 -0.666992 25 -2c0.666992 8.66699 2.33398 21.667 5.00098 39c12 77.333 35.667 129 71 155c17.333 13.333 35.666 20 54.999 20c18 0 33.667 -5.83301 47 -17.5s21.333 -28.167 24 -49.5c1.33301 -10 -1.16699 -18.667 -7.5 -26
s-14.5 -11 -24.5 -11c-8 0 -15 2.66699 -21 8s-9.66699 11.666 -11 18.999l-3 10l-2 2h-3c-4.66699 0 -9.66699 -2.33301 -15 -7c-22 -15.333 -37.333 -53 -46 -113c-2.66699 -16.667 -4.33398 -30.667 -5.00098 -42c27.333 -7.33301 46 -10.333 56 -9h3
c-1.33301 5.33301 -2 9.33301 -2 12c0 9.33301 3.5 17.166 10.5 23.499s14.167 9.5 21.5 9.5c12.667 0 24 -7.33301 34 -22c4 -6 6 -14 6 -24c0 -9.33301 -2.16699 -18.666 -6.5 -27.999s-11.166 -17 -20.499 -23c-12 -8.66699 -28 -13 -48 -13
c-13.333 0 -25.666 1.33301 -36.999 4l-21 4c-0.666992 -11.333 -1 -30.333 -1 -57c0 -55.333 2.66699 -123.333 8 -204c0 -10 0.333008 -18 1 -24l1 -12c0 -5.33301 0.333008 -9 1 -11l2 -43c2 -30 3 -53.333 3 -70c0 -8.66699 -3.16699 -16.167 -9.5 -22.5
s-13.833 -9.5 -22.5 -9.5s-16.334 3.16699 -23.001 9.5s-10 13.833 -10 22.5c0 16 -1 38.333 -3 67l-2 42c0 10 -0.666992 17.667 -2 23c0 11.333 -0.333008 19.333 -1 24c-5.33301 82.667 -8 154.334 -8 215.001c0 29.333 0.333008 50.666 1 63.999
c-14 1.33301 -23.333 1.66602 -28 0.999023c-5.33301 -0.666992 -9 -1.83398 -11 -3.50098s-3.66699 -4.83398 -5 -9.50098c-1.33301 -8 -5 -14.333 -11 -19s-13 -7 -21 -7c-10.667 0 -19.167 4.33301 -25.5 13s-8.16602 17.667 -5.49902 27
c8.66699 37.333 32.667 58.666 72 63.999z" />
    <glyph glyph-name="g" unicode="g" horiz-adv-x="526" 
d="M474.5 370.5c-4.33301 -26.333 -6.49902 -58.499 -6.49902 -96.499c0 -14.667 0.666992 -45.334 2 -92.001c0 -2.66699 0.333008 -4.33398 1 -5.00098c1.33301 -44 2 -79 2 -105c0 -68.667 -3 -118.334 -9 -149.001c-8.66699 -47.333 -25.334 -89.5 -50.001 -126.5
s-54.667 -65.667 -90 -86s-73.333 -30.5 -114 -30.5c-36.667 0 -72.834 8.33301 -108.501 25s-66.167 38.167 -91.5 64.5s-41.333 53.166 -48 80.499c-2.66699 8.66699 -4 18.334 -4 29.001c0 19.333 5.5 36 16.5 50s26.5 24 46.5 30c2 0.666992 5.33301 1 10 1
c8.66699 0 16.167 -2.83301 22.5 -8.5s9.5 -13.167 9.5 -22.5c0 -6.66699 -2 -13 -6 -19s-9.33301 -10.333 -16 -13c-12 -4 -18 -10.333 -18 -19c0 -2 0.666992 -5.66699 2 -11c4.66699 -18 16.667 -36.5 36 -55.5s42.5 -34.833 69.5 -47.5s54.167 -19 81.5 -19
c29.333 0 57.166 7.83301 83.499 23.5s48.666 37.834 66.999 66.501s30.833 62 37.5 100c5.33301 28.667 8 76 8 142c0 23.333 -0.666992 55.666 -2 96.999c0 2 -0.333008 3.66699 -1 5l-2 86c-25.333 -44 -62.333 -101 -111 -171
c-13.333 -19.333 -27.833 -34.166 -43.5 -44.499s-31.167 -15.5 -46.5 -15.5c-19.333 0 -37 7.66699 -53 23c-19.333 17.333 -34.166 43.333 -44.499 78s-15.5 72.667 -15.5 114c0 59.333 10 110.333 30 153c18 40 40.833 68.833 68.5 86.5s57.5 26.5 89.5 26.5
c36 0 70.333 -9.33301 103 -28c20 -11.333 36 -25.333 48 -42c6 16.667 11.5 28.667 16.5 36s12.833 11 23.5 11c7.33301 0 13.833 -2.16699 19.5 -6.5s9.83398 -9.83301 12.501 -16.5c1.33301 -5.33301 2 -8.66602 2 -9.99902c0 -3.33301 -1.33301 -8.33301 -4 -15
c-11.333 -22.667 -19.166 -47.167 -23.499 -73.5zM349.501 429.501c-21 13.667 -43.5 20.498 -67.5 20.498c-40 0 -71.5 -18.833 -94.5 -56.5s-34.5 -84.5 -34.5 -140.5c0 -8 0.666992 -20 2 -36c5.33301 -56 18 -93.667 38 -113c5.33301 -4 9.33301 -5.66699 12 -5
c10.667 3.33301 22 14 34 32l23 33c22.667 32.667 42 61.834 58 87.501s33.333 56.834 52 93.501l3 4l2 4l12 22c-1.33301 2.66699 -2 5 -2 7c-4 18 -16.5 33.833 -37.5 47.5z" />
    <glyph glyph-name="h" unicode="h" horiz-adv-x="487" 
d="M125 367c0 -8.66699 -0.332031 -15.333 -0.999023 -20c20 59.333 45.5 106.166 76.5 140.499s67.5 51.5 109.5 51.5c14 0 28.333 -2 43 -6c22 -6 41.833 -18.5 59.5 -37.5s29.834 -40.833 36.501 -65.5c8.66699 -38.667 13 -79.667 13 -123c0 -26 -1.66699 -59 -5 -99
l-4 -44c-6 -60.667 -9 -105.667 -9 -135c0 -8.66699 -3.16699 -16.167 -9.5 -22.5s-13.833 -9.5 -22.5 -9.5s-16.334 3.16699 -23.001 9.5s-10 13.833 -10 22.5c0 31.333 3 78.333 9 141l4 43c3.33301 38 5 69 5 93c0 42 -3.66699 78 -11 108
c-3.33301 13.333 -9.83301 25.333 -19.5 36s-19.834 17.667 -30.501 21c-6.66699 2 -14 3 -22 3c-53.333 0 -96.333 -50.333 -129 -151c-13.333 -39.333 -23.5 -82.666 -30.5 -129.999s-10.5 -89.333 -10.5 -126c0 -14 0.333008 -24 1 -30
c1.33301 -8.66699 -1 -16.5 -7 -23.5s-13.333 -10.833 -22 -11.5h-7c-10.667 0 -19.334 3.33301 -26.001 10c-5.33301 4.66699 -8.66602 11 -9.99902 19c-9.33301 60.667 -14 148.667 -14 264c0 138 5.66699 275 17 411c0.666992 8 4.16699 14.833 10.5 20.5
s13.833 8.5 22.5 8.5c10 0 18 -3.33301 24 -10s8.33301 -15 7 -25c-8 -102.667 -13 -213.667 -15 -333z" />
    <glyph glyph-name="i" unicode="i" horiz-adv-x="187" 
d="M117 587c12 0 22.5 -2.66895 31.5 -8.00195s13.5 -14.666 13.5 -27.999c0 -7.33301 -2 -15 -6 -23l-3 -5l-1 -1c-0.666992 -2 -1.66699 -3.66699 -3 -5c-4 -7.33301 -9.66699 -13.166 -17 -17.499s-15.333 -6.5 -24 -6.5c-10 0 -19.333 3.66699 -28 11
c-10 8 -15 18 -15 30c0 6.66699 1.33301 12.667 4 18c4.66699 10 13.667 19 27 27c6.66699 5.33301 13.667 8 21 8zM140 174.998c0 -34 0.665039 -84.332 1.99805 -150.999c0.666992 -8.66699 -2.16602 -16.334 -8.49902 -23.001s-13.833 -10 -22.5 -10
c-9.33301 0 -17.166 3 -23.499 9s-9.83301 13.667 -10.5 23c-1.33301 66.667 -2 117.334 -2 152.001c0 76 1.66699 165 5 267c0 8.66699 3.33301 16.167 10 22.5s14.667 9.5 24 9.5c8.66699 -0.666992 16 -4.33398 22 -11.001s9 -14.334 9 -23.001
c-3.33301 -101.333 -5 -189.666 -5 -264.999z" />
    <glyph glyph-name="j" unicode="j" horiz-adv-x="212" 
d="M127 444c-13.333 -0.666992 -25 3.66602 -35 12.999s-15 23.333 -15 42c0 16 5.16699 29.833 15.5 41.5s22.833 18.5 37.5 20.5c17.333 1.33301 31.666 -4.16699 42.999 -16.5s16 -28.166 14 -47.499c-2.66699 -17.333 -12.667 -31.333 -30 -42
c-7.33301 -5.33301 -13.666 -8.33301 -18.999 -9c-0.666992 -0.666992 -1.66699 -1 -3 -1c-2 -0.666992 -4.66699 -1 -8 -1zM163 275l1.99902 -44.001c2.66699 -74.667 4 -130 4 -166c0 -77.333 -4.66699 -141 -14 -191c-10.667 -58 -28 -102.167 -52 -132.5
s-51 -45.5 -81 -45.5c-12 0 -24.333 2.66699 -37 8c-30.667 12.667 -57 37.5 -79 74.5s-33 73.5 -33 109.5c0 26.667 6.66699 49 20 67c6 8.66699 14.333 13 25 13c8.66699 0 15.667 -2.33301 21 -7c8.66699 -6 13 -14.333 13 -25c0 -8 -2.33301 -14.667 -7 -20
s-7 -14.666 -7 -27.999c0 -12.667 2.5 -26.334 7.5 -41.001s12.167 -28.667 21.5 -42c12.667 -20 26.667 -33.667 42 -41c4 -2 8 -3 12 -3c7.33301 0 14 3 20 9c22 18.667 38 52.834 48 102.501s15 114.167 15 193.5c0 46 -1.33301 100 -4 162l-2 44
c0 8.66699 -0.333008 15.334 -1 20.001c-1.33301 40.667 -1.66602 71 -0.999023 91c0 8.66699 3.33301 16 10 22s14.667 9 24 9c8.66699 0 16 -3.33301 22 -10s9 -14.334 9 -23.001c-0.666992 -14 0 -49.333 2 -106z" />
    <glyph glyph-name="k" unicode="k" horiz-adv-x="527" 
d="M133 527.5c-2 -61 -3 -135.166 -3 -222.499c12 28.667 23.333 52.667 34 72c26.667 48.667 55.667 87.167 87 115.5s63.666 42.5 96.999 42.5c22 0 43.667 -6.33301 65 -19c34.667 -22 52 -49.667 52 -83c0 -39.333 -21.667 -83.333 -65 -132
c-24 -26.667 -52.333 -53.334 -85 -80.001s-60.334 -46.667 -83.001 -60h-2l2 -1l33 -21l10 -6l10 -6c13.333 -8 20.333 -12.333 21 -13c48.667 -30 85.334 -45 110.001 -45c12.667 0 21.334 5 26.001 15c6 10.667 15.333 16 28 16c6.66699 0 12.334 -1.33301 17.001 -4
c10.667 -6.66699 16 -16.334 16 -29.001c0 -5.33301 -1.33301 -10.333 -4 -15c-18.667 -32.667 -46.334 -49 -83.001 -49c-24.667 0 -53.334 7.66699 -86.001 23c-12.667 6 -32 16.667 -58 32l-22 14l-10 7l-10 6c-1.33301 0.666992 -10.666 6.33398 -27.999 17.001
c-1.33301 0 -3.66602 1.33301 -6.99902 4l-28 16l-3 3c-4.66699 2 -10.334 5 -17.001 9h-4c-7.33301 -32 -11.666 -61.667 -12.999 -89c-0.666992 -8.66699 -4 -16 -10 -22s-13.667 -9 -23 -9h-1c-8.66699 0 -16 3.16699 -22 9.5s-9 13.833 -9 22.5v1
c0.666992 11.333 1 35.333 1 72c0 46.667 -0.333008 85 -1 115v93c0 85.333 1.16699 157.833 3.5 217.5s6.83301 116.167 13.5 169.5c1.33301 8.66699 5.16602 15.667 11.499 21s13.5 8 21.5 8c10 0 18.167 -3.83301 24.5 -11.5s8.83301 -16.167 7.5 -25.5
c-7.33301 -58 -12 -117.5 -14 -178.5zM167 205.001l24.002 9.00293l8 4c1.33301 0 2.33301 0.333008 3 1c20 12 44.667 30 74 54s54.333 47.667 75 71c26 29.333 41.667 54.666 47 75.999c2.66699 12.667 -0.833008 24 -10.5 34s-22.167 15 -37.5 15
c-14 0 -28.667 -5.33301 -44 -16c-26.667 -18.667 -52.834 -50.834 -78.501 -96.501s-47.834 -96.834 -66.501 -153.501z" />
    <glyph glyph-name="l" unicode="l" horiz-adv-x="181" 
d="M156 536c0 -33.333 -1.33105 -95.9961 -3.99805 -187.996c-0.666992 -5.33301 -1 -15.666 -1 -30.999l-1 -31c-4.66699 -103.333 -7 -186 -7 -248c0 -8.66699 -3.16699 -16.167 -9.5 -22.5s-13.833 -9.5 -22.5 -9.5s-16.334 3.16699 -23.001 9.5s-10 13.833 -10 22.5
c0 63.333 2.33301 146.666 7 249.999l1 31c0 15.333 0.333008 25.666 1 30.999c0 9.33301 0.333008 16.333 1 21c0.666992 23.333 1.33398 49.5 2.00098 78.5s1 59.833 1 92.5c0 57.333 -1.66699 111.666 -5 162.999c-0.666992 9.33301 2.16602 17.333 8.49902 24
s14.166 10 23.499 10c8.66699 0 16 -2.83301 22 -8.5s9.33301 -12.834 10 -21.501c4 -48.667 6 -106.334 6 -173.001z" />
    <glyph glyph-name="m" unicode="m" horiz-adv-x="775" 
d="M128.5 6c-6.33301 -6 -13.834 -9.00098 -22.501 -9.00098h-2c-8.66699 0 -16 3.16699 -22 9.5s-9 13.833 -9 22.5v2c0.666992 5.33301 1 12 1 20l4 75c3.33301 55.333 5 117.333 5 186c0 76.667 -3.33301 140.334 -10 191.001
c-0.666992 10.667 2.16602 19.5 8.49902 26.5s14.833 10.5 25.5 10.5c8 0 14.833 -2.5 20.5 -7.5s9.16699 -11.833 10.5 -20.5c6 -44 9.33301 -89.333 10 -136c21.333 50 48.833 91.167 82.5 123.5s67.167 48.5 100.5 48.5c14.667 0 28.334 -3.33301 41.001 -10
c32 -18 53 -50 63 -96l6 -31c16 32 36.333 59.833 61 83.5s50 39.834 76 48.501c13.333 4 26 6 38 6c28.667 0 53.834 -11.167 75.501 -33.5s37.5 -54.5 47.5 -96.5c8 -36 12 -73.333 12 -112c0 -25.333 -2.33301 -61.333 -7 -108l-4 -39c-6.66699 -60 -10 -106 -10 -138
c0 -9.33301 -3 -17.166 -9 -23.499s-13.667 -9.5 -23 -9.5s-17.166 3.16699 -23.499 9.5s-9.5 14.166 -9.5 23.499c0 34.667 3.33301 83 10 145l4 38c4 39.333 6 73.666 6 102.999c0 34 -3 66 -9 96c-9.33301 36.667 -22 60.667 -38 72c-7.33301 5.33301 -15.333 8 -24 8
c-4.66699 0 -10 -1 -16 -3c-20 -6.66699 -40 -20.834 -60 -42.501s-36 -46.5 -48 -74.5c-19.333 -48.667 -33 -101 -41 -157l-4 -29c0 -9.33301 -0.333008 -16.666 -1 -21.999c-3.33301 -62 -5 -102.667 -5 -122c0 -8.66699 -3.16699 -16.167 -9.5 -22.5
s-13.833 -9.5 -22.5 -9.5s-16.334 3.16699 -23.001 9.5s-10 13.833 -10 22.5c0 58.667 2 108.334 6 149.001c2.66699 38 4 73.333 4 106c0 54 -4.33301 100.333 -13 139c-4.66699 26 -15 43.667 -31 53c-5.33301 3.33301 -11 4.33301 -17 3
c-8 -0.666992 -17.333 -5.33398 -28 -14.001c-37.333 -30 -65.5 -67.5 -84.5 -112.5s-34.833 -104.167 -47.5 -177.5l-25 -152c0 -8.66699 -3.16699 -16 -9.5 -22z" />
    <glyph glyph-name="n" unicode="n" horiz-adv-x="502" 
d="M128 133c1.33301 -48 2.00195 -81.6689 2.00195 -101.002c0 -9.33301 -3 -17.166 -9 -23.499s-13.667 -9.5 -23 -9.5c-8.66699 0 -16.334 3.16699 -23.001 9.5s-10 13.833 -10 22.5c0 19.333 -0.666992 53 -2 101c-2 78 -3 148 -3 210c0 55.333 1 105 3 149
c0.666992 9.33301 4.16699 17 10.5 23s14.166 9 23.499 9c8.66699 -0.666992 16 -4 22 -10s9 -13.333 9 -22c0 -17.333 -0.666992 -42 -2 -74c26 36 53.167 64.5 81.5 85.5s61.833 31.5 100.5 31.5c62.667 0 106.5 -25.833 131.5 -77.5s37.5 -123.5 37.5 -215.5
c0 -44 -1 -81.667 -3 -113c-1.33301 -19.333 -2 -51.333 -2 -96c0 -8.66699 -3.16699 -16.167 -9.5 -22.5s-13.833 -9.5 -22.5 -9.5s-16.167 3 -22.5 9s-9.83301 13 -10.5 21c-0.666992 6 -1 15.333 -1 28c0 16.667 1 41 3 73c2 30.667 3 67.334 3 110.001
c0 76 -8.16699 133 -24.5 171s-42.5 57 -78.5 57c-26 0 -50.333 -9.16699 -73 -27.5s-46.667 -46.5 -72 -84.5l-38 -59c0 -64 0.666992 -119 2 -165z" />
    <glyph glyph-name="o" unicode="o" horiz-adv-x="523" 
d="M499 293c0 -48.667 -11.5 -96.167 -34.5 -142.5s-53.167 -83.5 -90.5 -111.5c-36.667 -27.333 -73.667 -41 -111 -41s-72 14.333 -104 43s-58 71 -78 127c-12 32 -18 66.333 -18 103c0 50.667 12.667 97 38 139s59.333 74.333 102 97c34 18 68.333 27 103 27
c40.667 0 77 -13 109 -39s55 -64 69 -114v-3l2 -3c8.66699 -26 13 -53.333 13 -82zM376 442.5c-20.667 17.667 -44.332 26.4971 -70.999 26.4971c-24.667 0 -48.667 -6.33301 -72 -19c-32 -17.333 -57.5 -42 -76.5 -74s-28.5 -67.333 -28.5 -106c0 -28 4.66699 -55 14 -81
c15.333 -42.667 33.333 -74.167 54 -94.5s43 -30.5 67 -30.5c23.333 0 47.333 9.33301 72 28c29.333 21.333 53.166 50.333 71.499 87s27.5 74.334 27.5 113.001c0 22 -3.33301 42.667 -10 62c-0.666992 0.666992 -1 2.33398 -1 5.00098c-0.666992 0.666992 -1 1.5 -1 2.5
s-0.333008 1.83301 -1 2.5c-9.33301 34.667 -24.333 60.834 -45 78.501z" />
    <glyph glyph-name="p" unicode="p" horiz-adv-x="486" 
d="M129 -6l-1 -45.0039c-2.66699 -85.333 -3.66699 -136 -3 -152c0 -9.33301 -3 -17.333 -9 -24s-13.333 -10 -22 -10c-9.33301 0 -17.333 3 -24 9s-10 13.667 -10 23c-0.666992 8 -0.5 30.333 0.5 67l2.5 94l1 40l2 56l2 140v72v39v71c0 63.333 0.333008 106 1 128
c0 9.33301 3.33301 17 10 23s14.667 9 24 9c9.33301 -0.666992 16.833 -4.16699 22.5 -10.5s8.5 -14.166 8.5 -23.499l-2 -107c31.333 50 70.666 83.667 117.999 101c18 6 35.667 9 53 9c38 0 70.667 -12.667 98 -38c19.333 -18 35 -42.333 47 -73
c8.66699 -24 13 -52 13 -84c0 -41.333 -6.5 -84.666 -19.5 -129.999s-30.167 -85.666 -51.5 -120.999s-44.333 -59.666 -69 -72.999c-16.667 -8.66699 -34 -13 -52 -13c-29.333 0 -57.666 11 -84.999 33c-17.333 14 -35 34 -53 60v-14zM140 218.996
c0 -22.667 8.50098 -51.333 25.501 -86s36.833 -60.667 59.5 -78c16.667 -13.333 31.334 -20 44.001 -20c8 0 15.333 2 22 6c16.667 9.33301 33.167 28.5 49.5 57.5s29.666 62.333 39.999 100s15.5 73.167 15.5 106.5c0 25.333 -3.33301 47 -10 65
c-8 22 -19.333 38.833 -34 50.5s-31.334 17.5 -50.001 17.5c-28.667 0 -56 -13 -82 -39c-38 -36.667 -64.333 -91 -79 -163v-6c-0.666992 -2 -1 -5.66699 -1 -11z" />
    <glyph glyph-name="q" unicode="q" horiz-adv-x="508" 
d="M483 259l0.000976562 -95c-0.666992 -102 -1 -217.333 -1 -346c0 -8.66699 -3.16699 -16.167 -9.5 -22.5s-13.833 -9.5 -22.5 -9.5s-16.334 3.16699 -23.001 9.5s-10 13.833 -10 22.5c0 122.667 0.333008 231 1 325c-25.333 -48 -50.666 -85 -75.999 -111
c-32.667 -32.667 -64.667 -49 -96 -49c-8 0 -17.667 1.66699 -29 5c-23.333 7.33301 -45.333 25.833 -66 55.5s-37.334 65.167 -50.001 106.5s-19 82.333 -19 123c0 29.333 3.33301 56 10 80c18 65.333 52.667 112 104 140c22.667 13.333 48.334 20 77.001 20
c30 0 57.667 -7.33301 83 -22c23.333 -14 44.333 -33.333 63 -58v77c0 9.33301 3.16699 17.166 9.5 23.499s14.166 9.5 23.499 9.5s17 -3.16699 23 -9.5s9 -14.166 9 -23.499c0 -101.333 -0.333008 -185 -1 -251zM353.501 410c-25 25.333 -51.499 37.998 -79.499 37.998
c-16 0 -31.667 -4 -47 -12c-24.667 -14 -44.334 -35.5 -59.001 -64.5s-22 -62.833 -22 -101.5c0 -37.333 7.33301 -76.666 22 -117.999c13.333 -34 26.333 -59.667 39 -77c7.33301 -9.33301 13.833 -16.166 19.5 -20.499s12.167 -6.5 19.5 -6.5c14 0 30.333 9.66699 49 29
c22.667 24 44.5 56.5 65.5 97.5s38.5 81.833 52.5 122.5c-14.667 50 -34.5 87.667 -59.5 113z" />
    <glyph glyph-name="r" unicode="r" horiz-adv-x="381" 
d="M276 474c-20 -7.33301 -40.332 -20.3301 -60.999 -38.9971s-34.334 -36.334 -41.001 -53.001c-19.333 -48 -31.666 -111.667 -36.999 -191l-2 -47c0.666992 -55.333 2.33398 -95 5.00098 -119v-3c0 -8.66699 -2.83301 -16 -8.5 -22s-12.5 -9.33301 -20.5 -10
c-0.666992 -0.666992 -2 -1 -4 -1c-8 0 -15.167 2.83301 -21.5 8.5s-9.83301 12.834 -10.5 21.501c-4 40.667 -5.66699 82.334 -5 125.001c-0.666992 24 -1 65.667 -1 125c0 115.333 1 194.333 3 237c0 8.66699 3.33301 16 10 22s14.667 9 24 9
c8.66699 -0.666992 16 -4.33398 22 -11.001s9 -14.334 9 -23.001c-0.666992 -4.66699 -1 -14.334 -1 -29.001l-1 -30c16 20.667 34.5 39.167 55.5 55.5s42.167 28.166 63.5 35.499c15.333 4.66699 28 7 38 7c21.333 0 38.333 -7.66699 51 -23
c9.33301 -13.333 14 -28.333 14 -45c0 -18 -5.33301 -40.333 -16 -67c-2 -6 -5.83301 -11 -11.5 -15s-11.834 -6 -18.501 -6c-4.66699 0 -8.33398 0.666992 -11.001 2c-14 6 -21 16.667 -21 32c0 4.66699 0.333008 8 1 10c6 14.667 9.66699 28.667 11 42v5
c-4 0 -9 -1 -15 -3z" />
    <glyph glyph-name="s" unicode="s" horiz-adv-x="429" 
d="M313.5 443c-9 12 -20.8281 17.9941 -35.4951 17.9941c-20 0 -38.333 -7.66699 -55 -23s-26.334 -34.333 -29.001 -57c-1.33301 -17.333 4.16699 -33.166 16.5 -47.499s35.166 -33.166 68.499 -56.499l6 -5c26.667 -18.667 46.5 -33.5 59.5 -44.5s24.167 -23.5 33.5 -37.5
c18 -24.667 27 -51.667 27 -81c0 -27.333 -8 -52.5 -24 -75.5s-35.667 -38.167 -59 -45.5c-13.333 -3.33301 -25 -5 -35 -5c-24.667 0 -48.167 6.5 -70.5 19.5s-38.833 30.5 -49.5 52.5c-7.33301 16.667 -11 32.667 -11 48c0 16.667 4.33301 35.334 13 56.001
c3.33301 6 7.66602 10.833 12.999 14.5s11.333 5.5 18 5.5c4 0 8 -1 12 -3c6 -3.33301 10.833 -7.66602 14.5 -12.999s5.5 -11.333 5.5 -18c0 -4 -1 -8 -3 -12c-4.66699 -10 -7 -20.333 -7 -31c0 -22 12 -38 36 -48c9.33301 -4 18.666 -6 27.999 -6c10.667 0 20 2.5 28 7.5
s14 12.5 18 22.5c4.66699 12 7 23.333 7 34c0 15.333 -4 28.333 -12 39s-19.333 22.334 -34 35.001c-8.66699 8 -23.667 19 -45 33l-4.5 3c-1 0.666992 -1.83301 1.33398 -2.5 2.00098c-35.333 24 -61 45.333 -77 64c-22.667 25.333 -34 55 -34 89
c0 18.667 4 37.167 12 55.5s19.333 34.833 34 49.5c14 13.333 30 23.833 48 31.5s36 11.5 54 11.5c30 0 55 -9.66699 75 -29c26 -24.667 39 -60.667 39 -108c0 -8.66699 -3.16699 -16.167 -9.5 -22.5s-13.833 -9.5 -22.5 -9.5s-16.334 3.16699 -23.001 9.5
s-10 13.833 -10 22.5c0 24.667 -4.5 43 -13.5 55z" />
    <glyph glyph-name="t" unicode="t" horiz-adv-x="342" 
d="M58.5 471.5c-6.33301 -6.33301 -14.167 -9.50195 -23.5 -9.50195c-3.33301 0 -6 0.333008 -8 1h-3c-5.33301 1.33301 -8.66602 2 -9.99902 2c-24.667 6 -39.334 18 -44.001 36c-2 8 -3 15.667 -3 23c0 21.333 8.33301 37.5 25 48.5s38.334 16.5 65.001 16.5
c5.33301 0 15.333 -0.666992 30 -2c2.66699 -0.666992 6.66699 -1 12 -1v16c0 42.667 -1 74.334 -3 95.001c-0.666992 9.33301 2.16602 17.666 8.49902 24.999s14.166 11 23.499 11c8 0 15.167 -2.83301 21.5 -8.5s10.166 -12.5 11.499 -20.5c2 -22.667 3 -56.667 3 -102
v-24c40.667 -5.33301 66.334 -7.66602 77.001 -6.99902c-1.33301 5.33301 -2 9 -2 11c0 7.33301 2.16699 14 6.5 20s10.166 10 17.499 12c2 0.666992 4.66699 1 8 1c6 0 11.667 -1.66699 17 -5c19.333 -12 29 -27.667 29 -47c0 -20 -7 -34.5 -21 -43.5
s-31.667 -13.5 -53 -13.5c-10.667 -0.666992 -26.334 0 -47.001 2c-3.33301 0.666992 -7.66602 1.33398 -12.999 2.00098s-12 1.33398 -20 2.00098c-2 -42 -3 -97 -3 -165c0 -73.333 0.333008 -128.166 1 -164.499s2.66699 -65.833 6 -88.5c2.66699 -22 7 -39.667 13 -53
c8 6.66699 16.333 23 25 49l6 17c7.33301 21.333 13.5 35.666 18.5 42.999s13.167 11 24.5 11c7.33301 0 13.833 -1.83301 19.5 -5.5s9.83398 -8.83398 12.501 -15.501c1.33301 -5.33301 2 -8.66602 2 -9.99902c0 -3.33301 -1.33301 -8.33301 -4 -15
c-3.33301 -5.33301 -6.66602 -13 -9.99902 -23s-5.66602 -17.667 -6.99902 -23c-6.66699 -20.667 -13.667 -37.334 -21 -50.001s-17.333 -23.334 -30 -32.001s-25.667 -13 -39 -13c-19.333 0 -35 8.33301 -47 25c-12.667 16.667 -22 45.334 -28 86.001
c-3.33301 24 -5.33301 55 -6 93s-1 94.667 -1 170c0 65.333 1 123 3 173c-22.667 2 -38.667 2.66699 -48 2c5.33301 -3.33301 9.66602 -7.5 12.999 -12.5s5 -10.5 5 -16.5c0 -8.66699 -3.16699 -16.167 -9.5 -22.5z" />
    <glyph glyph-name="u" unicode="u" horiz-adv-x="498" 
d="M472 294c-2 -86.667 -3 -151.663 -3 -194.996v-79c0 -8.66699 -3.16699 -16.334 -9.5 -23.001s-13.833 -10 -22.5 -10s-16.334 3.16699 -23.001 9.5s-10 13.833 -10 22.5v80v43c-24 -56 -52 -94.667 -84 -116c-22 -14 -47.333 -21 -76 -21c-18.667 0 -36.5 3 -53.5 9
s-31.5 14.667 -43.5 26c-8 8 -15.333 17.667 -22 29s-11.334 22 -14.001 32c-10 34.667 -16.667 70 -20 106s-6 83.667 -8 143c-0.666992 6.66699 -1 19.667 -1 39l-1 40l-2 66c0 8.66699 3.33301 16.167 10 22.5s14.667 9.5 24 9.5c8.66699 0 15.834 -3 21.501 -9
s8.83398 -13.667 9.50098 -23l2 -65l1 -38c0 -19.333 0.333008 -32.333 1 -39c0.666992 -11.333 1 -28 1 -50c1.33301 -50.667 3.16602 -89.5 5.49902 -116.5s7.83301 -50.833 16.5 -71.5c6.66699 -15.333 15.834 -27.333 27.501 -36s24.834 -13 39.501 -13
c15.333 0 30.333 4.66699 45 14s27.667 23.333 39 42c19.333 32 34.833 71.167 46.5 117.5s21.5 97.166 29.5 152.499c4 23.333 7.66699 49.666 11 78.999v23c0 9.33301 3.16699 17 9.5 23s14.166 9 23.499 9c8.66699 0 16.167 -2.83301 22.5 -8.5s9.5 -12.834 9.5 -21.501z
" />
    <glyph glyph-name="v" unicode="v" horiz-adv-x="505" 
d="M127.5 413c12.333 -32 31.1689 -77.6689 56.502 -137.002l16 -37c22 -51.333 40.333 -97.333 55 -138c0 -2 0.333008 -3.33301 1 -4l3 6l63 165c0 1.33301 0.333008 2.33301 1 3c52 140 84 222.333 96 247c3.33301 5.33301 7.5 9.66602 12.5 12.999s10.5 5 16.5 5
c10 0 17.833 -3.16699 23.5 -9.5s8.5 -13.833 8.5 -22.5c0 -4.66699 -1 -9.66699 -3 -15c-11.333 -24.667 -42.333 -105 -93 -241c-0.666992 -0.666992 -1 -1.66699 -1 -3c-20.667 -55.333 -36.667 -97 -48 -125l-16 -41l-9 -21c-8.66699 -22.667 -15.667 -39.667 -21 -51
s-10.333 -18.666 -15 -21.999c-5.33301 -4 -10.666 -6.66699 -15.999 -8h-9c-4.66699 0 -9.33398 1.66699 -14.001 5c-6 4.66699 -9.33301 7.66699 -10 9l-2 4v2l-2 3l-2 6c-2.66699 5.33301 -4 9 -4 11l-22 64c-8.66699 27.333 -26 71.333 -52 132
c-1.33301 2.66699 -7 15 -17 37c-25.333 58.667 -44.5 105.334 -57.5 140.001s-23.833 69.334 -32.5 104.001c-2.66699 10 -0.666992 19.167 6 27.5s15.334 12.5 26.001 12.5c7.33301 0 14.166 -2.33301 20.499 -7s10.166 -10.667 11.499 -18
c7.33301 -32 17.166 -64 29.499 -96z" />
    <glyph glyph-name="w" unicode="w" horiz-adv-x="708" 
d="M158 324c4.66699 -16.667 8.66699 -28.667 12 -36c5.33301 -18.667 16.666 -53.667 33.999 -105l15 -43v-1c2.66699 -6.66699 4.33398 -11.667 5.00098 -15c4 12.667 6.33301 19.334 7 20.001c42 110 76.667 226.667 104 350c0 2.66699 0.333008 4.33398 1 5.00098
c4 9.33301 10.667 15.666 20 18.999c4 1.33301 7.66699 2 11 2c8.66699 0 16.334 -3.33301 23.001 -10c4 -4 6.33301 -7.66699 7 -11l2 -6c28.667 -144.667 62 -273 100 -385l4 12c0.666992 0.666992 1 1.66699 1 3c35.333 91.333 74 214.666 116 369.999
c1.33301 6.66699 5.16602 12.334 11.499 17.001s13.166 7 20.499 7c9.33301 0 17 -3.33301 23 -10s9 -14.334 9 -23.001c0 -3.33301 -0.333008 -6 -1 -8c-45.333 -166 -84.666 -291.333 -117.999 -376l-2 -8l-4 -10l-18 -43c-5.33301 -12 -10.166 -21.667 -14.499 -29
s-9.83301 -12.666 -16.5 -15.999s-12.334 -5 -17.001 -5c-7.33301 0 -14.333 2.66699 -21 8c-5.33301 3.33301 -9.66602 10 -12.999 20c-0.666992 2 -3.33398 9.33301 -8.00098 22l-3 9l-7 25l-2 8l-1 2c-29.333 86 -54 172.333 -74 259c-18 -66 -42 -139.667 -72 -221
l-1 -1c0 -2 -0.333008 -3.33301 -1 -4s-2 -4.66699 -4 -12l-11 -35l-2 -7l-12 -34c-2.66699 -4 -4.66699 -8.33301 -6 -13c-2.66699 -5.33301 -6.66699 -10.333 -12 -15c-6.66699 -4.66699 -13.667 -7 -21 -7c-6 0 -11.833 1.83301 -17.5 5.5s-9.83398 9.16699 -12.501 16.5
v1l-1 2l-2 6c-2 4 -3.5 8 -4.5 12s-2.16699 7.66699 -3.5 11l-24 71v1l-21 63l-28 86c-2.66699 7.33301 -6.66699 19.333 -12 36c-27.333 86.667 -48.333 149 -63 187c-0.666992 2 -1 5.33301 -1 10c0 15.333 7 26 21 32c2.66699 1.33301 6.33398 2 11.001 2
c6.66699 0 12.667 -1.83301 18 -5.5s9.33301 -8.83398 12 -15.501c14.667 -38.667 36 -102 64 -190z" />
    <glyph glyph-name="x" unicode="x" horiz-adv-x="460" 
d="M113 138c19.333 26.667 52.333 65.0029 99 115.003l-158 231c-4 6 -6 12.333 -6 19c0 12 4.66699 21 14 27c6 4 12 6 18 6c10 0 19 -5 27 -15l150 -219c38 41.333 66.5 76.5 85.5 105.5s28.5 54.5 28.5 76.5c0 10 -2.66699 20.333 -8 31
c-2.66699 4.66699 -4 9.66699 -4 15c0 13.333 5.66699 23 17 29c4.66699 2.66699 9.66699 4 15 4c13.333 0 23 -5.66699 29 -17c10.667 -19.333 16 -39.666 16 -60.999c0 -30 -10.667 -63.667 -32 -101c-20.667 -36.667 -57.334 -82.334 -110.001 -137.001
c26 -39.333 43.333 -65 52 -77l42 -64c1.33301 -2.66699 3.33301 -5.33398 6 -8.00098c4 -6 6.33301 -9.33301 7 -10c1.33301 -2.66699 4 -6.66699 8 -12c4 -6.66699 6.66699 -10.667 8 -12c2 -4 4.33301 -7.33301 7 -10l4 -8l2 -3c4 -6 6 -12.333 6 -19
c0 -11.333 -4.66699 -20 -14 -26c-6 -4 -12.333 -6 -19 -6c-10 0 -19 5 -27 15l-4 5l-19 30l-11 16l-8 12l-42 64l-43 64c-40.667 -44.667 -68.667 -77.334 -84 -98.001c-28 -38.667 -42 -70.334 -42 -95.001c0.666992 -8.66699 -2.16602 -16.334 -8.49902 -23.001
s-13.833 -10 -22.5 -10c-9.33301 0 -17.333 3.16699 -24 9.5s-10 14.833 -10 25.5c0 36.667 18.333 80.334 55 131.001z" />
    <glyph glyph-name="y" unicode="y" horiz-adv-x="530" 
d="M123.5 394.5c-4.33301 -37.667 -6.50195 -76.834 -6.50195 -117.501c0 -60 5 -107.667 15 -143c14 -48 30 -72 48 -72c9.33301 0 20.666 5.33301 33.999 16c20 16 39.833 38.167 59.5 66.5s35.5 56.5 47.5 84.5c8.66699 20.667 18.667 47 30 79l5 14l8 25
c29.333 90 48 143.333 56 160l4 5c6.66699 10.667 15.667 16 27 16c10 0 18 -3.16699 24 -9.5s9 -13.833 9 -22.5c0 -6 -1.33301 -11.333 -4 -16c-7.33301 -13.333 -13 -36.166 -17 -68.499s-8 -88.5 -12 -168.5l-3 -50c-4 -82 -8.66699 -148.5 -14 -199.5
s-14 -96.833 -26 -137.5c-20 -66.667 -52.167 -119.667 -96.5 -159s-95.166 -59 -152.499 -59c-14 0 -30.333 1.66699 -49 5c-37.333 8 -72.166 24.333 -104.499 49s-58 53.167 -77 85.5s-28.5 62.833 -28.5 91.5c0 23.333 6.66699 41.833 20 55.5s31.333 20.5 54 20.5
c7.33301 0 13 -0.333008 17 -1c8 -1.33301 14.667 -5.33301 20 -12s8 -14 8 -22c0 -8.66699 -3.33301 -16 -10 -22s-14.334 -9 -23.001 -9c-2 0 -4.83301 0.166992 -8.5 0.5s-6.5 0.166016 -8.5 -0.500977h-2l-1 -1v-1c-0.666992 -2 -1 -5.66699 -1 -11
c1.33301 -18.667 9.33301 -39.5 24 -62.5s33.834 -43.5 57.501 -61.5s48.834 -29.667 75.501 -35c16 -2.66699 27.667 -4 35 -4c43.333 0 81.666 15.167 114.999 45.5s57.666 72.166 72.999 125.499c10.667 38.667 21.334 119.334 32.001 242.001l7 96l-4 -9
c-12.667 -29.333 -26.667 -55.666 -42 -78.999c-27.333 -42 -54.666 -73.667 -81.999 -95s-53.333 -32 -78 -32c-50 0 -86.333 39.667 -109 119c-10 35.333 -15 81.333 -15 138c0 44 2.83301 89.333 8.5 136s12.167 86 19.5 118c1.33301 6 4.66602 10.667 9.99902 14
s11.333 5 18 5c10.667 0 18.834 -3.16699 24.501 -9.5s8.5 -14.166 8.5 -23.499c0 -4.66699 -1 -9.66699 -3 -15c-6.66699 -18.667 -12.167 -46.834 -16.5 -84.501z" />
    <glyph glyph-name="z" unicode="z" horiz-adv-x="531" 
d="M42 460c0 16.667 7.50098 30.002 22.501 40.002s34.167 17.333 57.5 22c31.333 6.66699 79 10 143 10c31.333 0 68.333 -1 111 -3c7.33301 -0.666992 16 -1.33398 26 -2.00098s17.667 -1 23 -1l26 -1h1c8.66699 0 16.167 -3 22.5 -9s9.83301 -13.333 10.5 -22v-1
c0 -7.33301 -2.33301 -13.833 -7 -19.5s-10.334 -9.5 -17.001 -11.5v-1c-4 -2.66699 -8.66699 -6.66699 -14 -12c-8 -8 -23 -25.333 -45 -52c-14.667 -16.667 -48 -58.667 -100 -126l-28 -36l-5 -7c-53.333 -68.667 -90.666 -115.667 -111.999 -141l-9 -11
c28.667 -1.33301 61 -3.66602 97 -6.99902c-0.666992 0 4.33301 -0.666992 15 -2c54.667 -5.33301 90.334 -8 107.001 -8c29.333 0 47.333 3.33301 54 10c0.666992 0 1.66699 0.666992 3 2l3 2l1 2l7 6l2 2c-2 5.33301 -3 9.66602 -3 12.999
c0 9.33301 3.33301 17.166 10 23.499s14.334 9.5 23.001 9.5s17 -3.66699 25 -11s13 -17 15 -29c0.666992 -20 -8.66602 -38.333 -27.999 -55l-12 -12l-3 -2c-20.667 -17.333 -52.667 -26 -96 -26c-19.333 0 -57.666 2.66699 -114.999 8l-15 2
c-36.667 4.66699 -68.334 7 -95.001 7c-34 0 -58.333 -4.66699 -73 -14c-4.66699 -4 -10.667 -6 -18 -6c-10.667 0 -18.834 3.33301 -24.501 10s-8.5 14 -8.5 22c0 10.667 4.66699 19.667 14 27c13.333 9.33301 34.666 31.5 63.999 66.5l121 151.5l5 7l129 164
c9.33301 12 16.333 20.333 21 25c-42 2 -78 3 -108 3c-56.667 0 -100.334 -2.66699 -131.001 -8c-14.667 -4 -23.334 -6.66699 -26.001 -8c0.666992 -9.33301 -2 -17.166 -8 -23.499s-14 -9.5 -24 -9.5c-7.33301 0 -13.833 2.16699 -19.5 6.5s-9.5 9.83301 -11.5 16.5
c-2 7.33301 -3 13.666 -3 18.999z" />
    <glyph glyph-name="braceleft" unicode="{" horiz-adv-x="416" 
d="M298 671c-10 0 -19.1709 -2.83691 -27.5039 -8.50391s-16.5 -14.5 -24.5 -26.5c-9.33301 -14.667 -18 -32.667 -26 -54s-18.333 -53 -31 -95l-6 -18c-10.667 -37.333 -20.667 -68.5 -30 -93.5s-19.666 -47.5 -30.999 -67.5c-14 -22.667 -28 -40 -42 -52
c15.333 -13.333 28.333 -30.166 39 -50.499s20.334 -45.833 29.001 -76.5c4.66699 -18 10.667 -45 18 -81v-2l1 -2l1 -4c8.66699 -39.333 15.667 -68.833 21 -88.5s12 -37.167 20 -52.5c18 -35.333 43.667 -53 77 -53c8.66699 0 16 3.5 22 10.5s13 19.5 21 37.5
c2.66699 6.66699 6.66699 11.834 12 15.501s11 5.5 17 5.5c9.33301 0 17.333 -3.33301 24 -10s10 -14.334 10 -23.001c0 -4 -1 -8 -3 -12c-10.667 -28 -24 -49.833 -40 -65.5s-36.667 -23.5 -62 -23.5c-59.333 0 -104.666 29.333 -135.999 88
c-9.33301 19.333 -17.5 40.833 -24.5 64.5s-14.5 54.5 -22.5 92.5c0 2 -0.333008 3.33301 -1 4v4c-8 38.667 -14.833 67.834 -20.5 87.501s-12.5 37.167 -20.5 52.5c-16.667 31.333 -40 46.666 -70 45.999h-1c-9.33301 0 -17 3 -23 9s-9.33301 13.333 -10 22v1
c0 9.33301 3 17 9 23s13.333 9.33301 22 10c26.667 1.33301 47.667 12.833 63 34.5s30 50.834 44 87.501c6.66699 17.333 15 44 25 80l6 19c13.333 44.667 24.333 78.834 33 102.501s19.334 44.834 32.001 63.501c29.333 43.333 65 65 107 65
c10.667 0 24.667 -2.33301 42 -7c6.66699 -2 12.167 -6 16.5 -12s6.5 -12.667 6.5 -20c0 -9.33301 -3.16699 -17 -9.5 -23s-13.833 -9 -22.5 -9c-4 0 -7 0.333008 -9 1c-8 2.66699 -16.333 4 -25 4z" />
    <glyph glyph-name="bar" unicode="|" horiz-adv-x="184" 
d="M159 596c0 -146 -1.66504 -261.999 -4.99805 -347.999c0 -19.333 -0.5 -39 -1.5 -59s-1.83301 -37.667 -2.5 -53l-2 -30c-1.33301 -44 -2 -72.333 -2 -85c0 -9.33301 -3.33301 -17.166 -10 -23.499s-14.334 -9.5 -23.001 -9.5s-16.167 3.16699 -22.5 9.5
s-9.5 14.166 -9.5 23.499c0 12.667 0.666992 41.667 2 87l2 48l5 94c2.66699 90 4 203.333 4 340v120c0 9.33301 3.16699 17.166 9.5 23.499s14.166 9.5 23.499 9.5c8.66699 0 16.167 -3.16699 22.5 -9.5s9.5 -13.833 9.5 -22.5v-115z" />
    <glyph glyph-name="braceright" unicode="}" horiz-adv-x="391" 
d="M89 736c40 0 71 -21.999 93 -65.999c10.667 -18.667 19.334 -41.167 26.001 -67.5s14.667 -64.5 24 -114.5c2 -6 3 -11 3 -15c8.66699 -44.667 15.667 -77.667 21 -99s11.666 -40.333 18.999 -57c8.66699 -19.333 17.667 -33.166 27 -41.499s20 -12.5 32 -12.5
c8.66699 0 16.167 -3.16699 22.5 -9.5s9.83301 -13.833 10.5 -22.5c0 -9.33301 -3.16699 -17.166 -9.5 -23.499s-14.166 -9.5 -23.499 -9.5c-26 0 -45 -8.5 -57 -25.5s-22.333 -40.833 -31 -71.5c-4 -12 -9.33301 -35.333 -16 -70l-3 -14l-3 -13
c-13.333 -62 -29.166 -110.667 -47.499 -146s-45.166 -62 -80.499 -80c-18.667 -8.66699 -34 -13 -46 -13c-12.667 0 -23.667 4 -33 12c-10 8.66699 -15 21 -15 37c0 9.33301 3.16699 17.166 9.5 23.499s13.833 9.5 22.5 9.5c11.333 0 20.333 -4.33301 27 -13l6 3
c23.333 11.333 41.833 31 55.5 59s26.167 68.333 37.5 121l3 14l3 11v2c7.33301 35.333 14.166 63.666 20.499 84.999s14.166 40.666 23.499 57.999c10 18 23.333 34.333 40 49c-24.667 27.333 -44.667 72.666 -60 135.999c-8 32 -14.333 61.667 -19 89
c0 3.33301 -0.333008 6 -1 8v3l-1 4c-8.66699 44.667 -16.167 79.167 -22.5 103.5s-13.5 44.5 -21.5 60.5c-10.667 20.667 -23 31 -37 31c-8.66699 0 -17.667 -2.33301 -27 -7c-4 -2 -8.33301 -3 -13 -3c-6.66699 0 -12.667 1.66699 -18 5s-9.33301 8 -12 14
c-2 4 -3 8.33301 -3 13c0 6 1.66699 11.833 5 17.5s8 9.83398 14 12.501c19.333 8.66699 37.666 13 54.999 13z" />
    <glyph glyph-name="asciitilde" unicode="~" horiz-adv-x="685" 
d="M39 267.5c16.667 22.333 38.6689 40.168 66.002 53.501s57.666 20 90.999 20c32.667 0 81.334 -8.33301 146.001 -25l30 -8c40 -11.333 71.167 -19.333 93.5 -24s41.833 -7 58.5 -7c21.333 0 37.333 4 48 12s18 22 22 42c0.666992 2 1 4.66699 1 8
c-8.66699 6.66699 -13 15.334 -13 26.001c0 6 1.33301 10.667 4 14c2.66699 6 6.66699 10.667 12 14s10.666 5 15.999 5c3.33301 0 8.33301 -1.33301 15 -4c21.333 -10.667 32 -27 32 -49c0 -6.66699 -1.33301 -16 -4 -28c-15.333 -70 -59 -105 -131 -105
c-21.333 0 -44 2.5 -68 7.5s-58.667 13.5 -104 25.5l-29 8c-58.667 16 -103 24 -133 24c-31.333 0 -56 -7.66699 -74 -23c-26.667 -23.333 -41.667 -45.333 -45 -66c-1.33301 -8.66699 -5 -15.5 -11 -20.5s-13 -7.5 -21 -7.5c-10 0 -18.333 3.66699 -25 11
s-9.33398 15.666 -8.00098 24.999c4 25.333 14.333 49.166 31 71.499z" />
    <glyph glyph-name="exclamdown" unicode="&#xa1;" horiz-adv-x="254" 
d="M181 547c8.66699 0 17.332 -3.00195 25.999 -9.00195c14.667 -10.667 22 -28 22 -52c0 -7.33301 -0.333008 -12.666 -1 -15.999c-2.66699 -23.333 -10 -41.666 -22 -54.999s-25.667 -20 -41 -20c-4.66699 0 -8 0.333008 -10 1c-13.333 2 -25.166 8.83301 -35.499 20.5
s-17.5 23.5 -21.5 35.5c-2 6 -3 12.333 -3 19c0 10 2.5 19.167 7.5 27.5s12.167 14.833 21.5 19.5l6 2c18 18 35 27 51 27zM122.998 15.998l7.00195 102c2 11.333 3.5 23.666 4.5 36.999s1.5 24.333 1.5 33c6.66699 69.333 10 120.333 10 153
c0 9.33301 3.16699 17.166 9.5 23.499s14.166 9.5 23.499 9.5s17 -3.16699 23 -9.5s9 -14.166 9 -23.499v-40h-1l-4 -55l-5 -64l-3 -34l-3 -36l-8 -101c-5.33301 -81.333 -8 -143.666 -8 -186.999c0 -8.66699 -3.16699 -16.167 -9.5 -22.5s-13.833 -9.5 -22.5 -9.5
s-16.334 3.16699 -23.001 9.5s-10 13.833 -10 22.5c0 50 3 114 9 192z" />
    <glyph glyph-name="cent" unicode="&#xa2;" horiz-adv-x="519" 
d="M468 448.5c15.333 -24.333 24.335 -51.498 27.002 -81.498c0.666992 -9.33301 -2.33301 -17.333 -9 -24s-14.334 -10 -23.001 -10c-8 0 -15.333 2.83301 -22 8.5s-10.334 12.5 -11.001 20.5c-3.33301 34 -17.333 60.333 -42 79l-8 -25l-126 -379c13.333 -6 26 -9 38 -9
c11.333 0 23.333 2.66699 36 8c36 16.667 65.333 54 88 112c2.66699 6.66699 6.66699 11.834 12 15.501s11.333 5.5 18 5.5c9.33301 0 17.333 -3.33301 24 -10s10 -14.334 10 -23.001c0 -4 -1 -8 -3 -12c-22 -54.667 -49.333 -95.334 -82 -122.001s-67 -40 -103 -40
c-19.333 0 -39.333 4.33301 -60 13l-35 -101c-2 -6.66699 -5.83301 -11.834 -11.5 -15.501s-11.834 -5.5 -18.501 -5.5c-9.33301 0 -17 3.33301 -23 10s-9 14.334 -9 23.001c0 4.66699 0.333008 8 1 10l30 87l10 29c-26 24.667 -47.167 57 -63.5 97s-24.5 84.667 -24.5 134
c0 30.667 3.33301 61.667 10 93c18.667 93.333 63.667 154.333 135 183c24.667 9.33301 48.667 14 72 14c8.66699 0 21.667 -1.33301 39 -4c12.667 46.667 22.667 80 30 100c3.33301 6.66699 7.83301 12 13.5 16s11.834 6 18.501 6c8.66699 0 16 -3.33301 22 -10
s9 -14.334 9 -23.001c0 -2 -0.666992 -5.66699 -2 -11c-9.33301 -30 -19 -63.333 -29 -100c26 -14.667 46.667 -34.167 62 -58.5zM318.002 436.002l9.00098 30.001c-9.33301 1.33301 -16.333 2 -21 2c-15.333 0 -32 -3.33301 -50 -10
c-32.667 -12.667 -57.834 -39 -75.501 -79s-26.5 -84.333 -26.5 -133c0 -37.333 5 -71 15 -101c8 -22.667 18.667 -43.334 32 -62.001z" />
    <glyph glyph-name="sterling" unicode="&#xa3;" horiz-adv-x="557" 
d="M422 536c0 30 -6.66602 54.8301 -19.999 74.4971s-31.333 33.5 -54 41.5c-12 4 -24.333 6 -37 6c-22 0 -43.833 -5.5 -65.5 -16.5s-40.5 -26.5 -56.5 -46.5c-13.333 -17.333 -20 -35.666 -20 -54.999c0 -14 4 -30 12 -48c7.33301 -15.333 21.666 -39.666 42.999 -72.999
c18 -28.667 29.667 -48.667 35 -60l46 3c41.333 1.33301 68.666 2 81.999 2c8.66699 0 16.167 -3.16699 22.5 -9.5s9.5 -13.833 9.5 -22.5s-3.16699 -16.334 -9.5 -23.001s-13.833 -10 -22.5 -10c-12.667 0 -39 -0.666992 -79 -2l-25 -2c2 -7.33301 3.66699 -18.333 5 -33
c3.33301 -66 -30.334 -128.333 -101.001 -187c13.333 -0.666992 40 -4.33398 80 -11.001c2.66699 0 4.33398 -0.333008 5.00098 -1c53.333 -6.66699 89.666 -10 108.999 -10c8 0 18.667 0.666992 32 2c17.333 2.66699 30.166 7.83398 38.499 15.501s13.833 19.167 16.5 34.5
c1.33301 8.66699 5 15.334 11 20.001s13 7 21 7c10.667 0 19.167 -3.83301 25.5 -11.5s8.5 -16.167 6.5 -25.5c-10 -60 -46.333 -95 -109 -105c-14 -2 -28 -3 -42 -3c-30 0 -69.667 4 -119 12c-2 0 -3.66699 0.333008 -5 1c-50.667 8 -88.667 12 -114 12
c-23.333 0 -41.333 -3.33301 -54 -10c-4.66699 -2.66699 -10 -4 -16 -4c-12.667 0 -22 5.66699 -28 17c-2.66699 4.66699 -4 9.66699 -4 15c0 13.333 5.66699 23 17 29c32.667 18 53.334 30 62.001 36l2 2v1c0.666992 2 2.33398 5 5.00098 9c2 3.33301 6.66699 8 14 14
c54.667 44.667 82 87.667 82 129c0 13.333 -2 27.333 -6 42c-43.333 -2.66699 -82.666 -4 -117.999 -4c-8.66699 0 -16.167 3.33301 -22.5 10s-9.5 14.334 -9.5 23.001s3.16699 16.167 9.5 22.5s13.833 9.5 22.5 9.5c14.667 0 44 0.666992 88 2l-17 27
c-13.333 20 -22 34 -26 42c-10.667 18 -18 32 -22 42c-12 28.667 -18 54 -18 76c0 34 11.333 65 34 93c22 28 48 49.667 78 65s60.667 23 92 23c22 0 42 -3.33301 60 -10c36.667 -12 65.667 -33.833 87 -65.5s32 -69.5 32 -113.5c0 -12.667 -1 -25.667 -3 -39
c-1.33301 -8 -5 -14.667 -11 -20s-13 -8 -21 -8c-9.33301 0 -17.5 3.83301 -24.5 11.5s-9.83301 16.167 -8.5 25.5c2 11.333 3 22 3 32z" />
    <glyph glyph-name="currency" unicode="&#xa4;" horiz-adv-x="579" 
d="M496 458c-0.666992 -1.33301 -2.33301 -3.33398 -5 -6.00098l-7 -8l-17 -17l-9 -10c7.33301 -18 11 -38.667 11 -62c0 -26 -5.33301 -51.667 -16 -77c-6 -14.667 -14 -29.667 -24 -45l25 -25l8 -9c21.333 -22 36 -36.667 44 -44c6.66699 -6 10 -14 10 -24
c0 -9.33301 -2.66699 -16.666 -8 -21.999c-6.66699 -6.66699 -14.667 -10 -24 -10s-17 3 -23 9c-4.66699 4 -20 19.667 -46 47l-7 7l-21 21c-6.66699 -6 -17.334 -14.333 -32.001 -25c-42 -30 -84.667 -45 -128 -45c-33.333 0 -63.666 10 -90.999 30l-34 -35l-4 -4
c-9.33301 -8 -17 -14.167 -23 -18.5s-12.667 -6.5 -20 -6.5c-9.33301 0 -16.833 3.16699 -22.5 9.5s-8.5 13.833 -8.5 22.5c0 10.667 3.66699 19.334 11 26.001l19 15l3 3l6 6l14 14l14 15l-8 15c-18 32.667 -27 66.667 -27 102c0 27.333 5.33301 53.166 16 77.499
s24.334 45.5 41.001 63.5c-41.333 40.667 -68 66 -80 76c-7.33301 7.33301 -11 15.666 -11 24.999c0 7.33301 2.66699 14.333 8 21c6 7.33301 14 11 24 11c7.33301 0 14.666 -2.66699 21.999 -8c28.667 -25.333 58 -53 88 -83c36.667 23.333 75.334 35 116.001 35
c52 0 98 -18.333 138 -55l2 2c1.33301 0 3.33301 2 6 6l18 19l6 6c18 20 35 36.667 51 50c6.66699 5.33301 13.667 8 21 8c9.33301 0 17.666 -3.66699 24.999 -11c5.33301 -6.66699 8 -13.667 8 -21c0 -9.33301 -3.66699 -17.666 -11 -24.999
c-7.33301 -6 -23.333 -21.333 -48 -46zM341.501 444.999c-19.667 10 -40.166 14.999 -61.499 14.999c-30 0 -59 -9.33301 -87 -28c-22.667 -15.333 -40.334 -34 -53.001 -56s-19 -45.333 -19 -70c0 -24 6.33301 -47.667 19 -71c20 -37.333 49.333 -56 88 -56
c29.333 0 59.333 10.667 90 32c27.333 18.667 48.5 40.834 63.5 66.501s22.5 51.5 22.5 77.5c0 15.333 -3 30 -9 44l-1 1c-15.333 20 -32.833 35 -52.5 45z" />
    <glyph glyph-name="yen" unicode="&#xa5;" horiz-adv-x="559" 
d="M107 454c20 0 35.666 -0.333008 46.999 -1h4l-26 41l-2 3l-2 4c-41.333 64.667 -71.666 116 -90.999 154c-2.66699 4.66699 -4 9.66699 -4 15c0 13.333 5.66699 23 17 29c6.66699 2.66699 11.667 4 15 4c6 0 11.5 -1.66699 16.5 -5s9.16699 -7.66602 12.5 -12.999
c23.333 -42.667 53 -92.667 89 -150c0.666992 -2 2 -4 4 -6l65 -107l31 -56c20 43.333 52 101 96 173l2 4c34.667 58 60.667 103.667 78 137c2.66699 5.33301 6.83398 9.66602 12.501 12.999s11.5 5 17.5 5c9.33301 0 17 -3.16699 23 -9.5s9 -13.833 9 -22.5
c0 -3.33301 -1.33301 -8.33301 -4 -15c-23.333 -44.667 -50 -92 -80 -142l-1 -1v-1l-2 -2l-33 -55c19.333 -1.33301 53 -2 101 -2c8.66699 0 16.167 -3.16699 22.5 -9.5s9.5 -13.833 9.5 -22.5s-3 -16.167 -9 -22.5s-13 -9.83301 -21 -10.5
c-6.66699 -0.666992 -17.667 -1 -33 -1c-22 0 -49 1 -81 3l-7 1h-6c-2.66699 0.666992 -6.33398 1 -11.001 1c-13.333 -24.667 -27 -54 -41 -88c-0.666992 -0.666992 -1 -1.66699 -1 -3l-2 -6c9.33301 0 17.333 0.333008 24 1c49.333 1.33301 82.666 2 99.999 2
c9.33301 0 17.166 -3 23.499 -9s9.5 -13.667 9.5 -23s-3.16699 -17.166 -9.5 -23.499s-14.166 -9.5 -23.499 -9.5c-17.333 0 -50 -0.666992 -98 -2l-38 -2c0 -40.667 -0.333008 -77.334 -1 -110.001v-1c-0.666992 -28 -1 -59.667 -1 -95
c0 -8.66699 -3.16699 -16.167 -9.5 -22.5s-13.833 -9.5 -22.5 -9.5s-16.334 3.16699 -23.001 9.5s-10 13.833 -10 22.5c0 36 0.333008 68.333 1 97c0.666992 31.333 1 67 1 107l-122 -5c-9.33301 0 -17.166 3.16699 -23.499 9.5s-9.5 13.833 -9.5 22.5
c-0.666992 8.66699 2.16602 16.334 8.49902 23.001s13.833 10 22.5 10l123 5c0 1.33301 0.666992 4 2 8c-12 26 -28 56.333 -48 91l-45 2h-2c-10.667 0.666992 -25 1 -43 1l-33 -1c-9.33301 0 -17.166 3.16699 -23.499 9.5s-9.5 14.166 -9.5 23.499c0 8.66699 3 16 9 22
s13 9.33301 21 10c6.66699 0.666992 18.334 1 35.001 1z" />
    <glyph glyph-name="brokenbar" unicode="&#xa6;" horiz-adv-x="168" 
d="M142 578v-3.99805v-8v-6v-17c-0.666992 -16.667 -1 -39.334 -1 -68.001c0 -8.66699 -3.16699 -16.167 -9.5 -22.5s-13.833 -9.5 -22.5 -9.5s-16.334 3.16699 -23.001 9.5s-10 13.833 -10 22.5c0 28.667 0.333008 51.667 1 69v17v6v8v4c0.666992 30 1 70.333 1 121
c0 8.66699 3.33301 16.167 10 22.5s14.334 9.5 23.001 9.5s16.167 -3.16699 22.5 -9.5s9.5 -13.833 9.5 -22.5c0 -50.667 -0.333008 -91.334 -1 -122.001zM134 131.002c0 -44 0.333008 -76.0029 1 -96.0029c0 -9.33301 -3 -17.166 -9 -23.499s-13.333 -9.5 -22 -9.5
c-9.33301 -0.666992 -17.333 2 -24 8s-10 13.667 -10 23c-0.666992 20.667 -1 53.334 -1 98.001c0 57.333 0.666992 101.333 2 132c0 9.33301 3.33301 17 10 23s14.667 9 24 9c9.33301 -0.666992 16.833 -4.16699 22.5 -10.5s8.5 -14.166 8.5 -23.499
c-1.33301 -30.667 -2 -74 -2 -130z" />
    <glyph glyph-name="section" unicode="&#xa7;" horiz-adv-x="496" 
d="M348.5 617.5c-15 13 -34.4971 19.5029 -58.4971 19.5029c-27.333 -0.666992 -50.333 -9.33398 -69 -26.001s-28 -39 -28 -67c0 -21.333 6.5 -39.833 19.5 -55.5s30.5 -31.5 52.5 -47.5l52 -35l1 -1c36 -23.333 62.667 -42 80 -56s32.333 -30 45 -48
c19.333 -27.333 29 -56.333 29 -87c0 -28 -8 -57.667 -24 -89c-5.33301 -10.667 -11.333 -19.667 -18 -27s-16.334 -16 -29.001 -26l-1 -1l-12 -10c0.666992 0 1 -0.333008 1 -1c32 -38.667 48 -81.334 48 -128.001c0 -28.667 -6.5 -55.334 -19.5 -80.001
s-30.5 -43.667 -52.5 -57c-22.667 -13.333 -47.334 -20 -74.001 -20c-25.333 0 -50.5 5.66699 -75.5 17s-46.5 26.666 -64.5 45.999c-30.667 32.667 -46 71 -46 115c0 9.33301 3.16699 17.166 9.5 23.499s14.166 9.5 23.499 9.5s17 -3.16699 23 -9.5s9 -14.166 9 -23.499
c0 -20 5.66699 -38.667 17 -56s26.333 -31 45 -41s38.667 -15 60 -15c20 0 36.833 6 50.5 18s22.834 30 27.501 54c1.33301 10.667 2 18 2 22c0 28 -7.16699 51.5 -21.5 70.5s-33.833 38.167 -58.5 57.5c-14 11.333 -34 25.333 -60 42l-34 22
c-37.333 25.333 -66.166 48 -86.499 68s-34.5 42.333 -42.5 67c-4 13.333 -6 26.333 -6 39c0 50.667 29 106 87 166c-14.667 24 -22 50.667 -22 80c0 22.667 4.83301 44.334 14.5 65.001s24.167 38.667 43.5 54c30 24 65 36 105 36c39.333 0 72.666 -11.667 99.999 -35
c31.333 -26.667 46.333 -62.667 45 -108c0 -9.33301 -3.33301 -17 -10 -23s-14.334 -8.66699 -23.001 -8c-9.33301 0 -17 3.33301 -23 10s-9 15 -9 25c0 23.333 -7.5 41.5 -22.5 54.5zM128.003 302.003c0 -7.33301 1 -14.0039 3 -20.0039
c5.33301 -15.333 16 -30.666 32 -45.999s39.667 -33.666 71 -54.999l34 -22c29.333 -18.667 50.666 -33.667 63.999 -45c2 -2 5 -4.33301 9 -7l18 15l1 1c32.667 25.333 48.334 57 47.001 95c-2.66699 31.333 -23 61 -61 89c-16 12 -37 26.667 -63 44h-1
c-21.333 14 -39.333 26.333 -54 37s-26.667 20.334 -36 29.001c-42.667 -45.333 -64 -83.666 -64 -114.999z" />
    <glyph glyph-name="dieresis" unicode="&#xa8;" horiz-adv-x="335" 
d="M580 899c10 6 20.334 9.00098 31.001 9.00098s20.167 -2.83301 28.5 -8.5s14.833 -13.834 19.5 -24.501c4 -8 6 -17 6 -27c0 -8.66699 -1.83301 -17.334 -5.5 -26.001s-8.83398 -16 -15.501 -22c-10 -9.33301 -21.667 -14 -35 -14c-10.667 0 -20.5 3 -29.5 9
s-16.167 13.667 -21.5 23c-4.66699 8.66699 -7 17.334 -7 26.001s2 17 6 25c2 4.66699 5 9 9 13c3.33301 8 8 13.667 14 17zM447.001 906.001c13.333 0 24.3311 -5.83301 32.998 -17.5s13 -25.167 13 -40.5c0.666992 -16.667 -3.66602 -31.334 -12.999 -44.001
s-22.333 -19 -39 -19c-2.66699 0 -8 0.666992 -16 2c-12 2 -22.667 10.333 -32 25c-8 14.667 -12 30.667 -12 48c0 11.333 3.66699 21.833 11 31.5s17 14.834 29 15.501c4.66699 0 10.334 -0.666992 17.001 -2c2 0.666992 5 1 9 1z" />
    <glyph glyph-name="copyright" unicode="&#xa9;" horiz-adv-x="744" 
d="M720 397c0 -32.667 -4.00098 -67 -12.001 -103c-10 -45.333 -26 -87.666 -48 -126.999s-48 -71.666 -78 -96.999c-28 -24 -60.667 -42.5 -98 -55.5s-76.333 -19.5 -117 -19.5c-18.667 0 -32.667 0.666992 -42 2c-50 5.33301 -95 20.166 -135 44.499
s-71 56.166 -93 95.499c-45.333 78.667 -68 154.667 -68 228c0 30 4.33301 61.667 13 95c12 44 32.333 84.667 61 122s63.334 68.333 104.001 93c61.333 36.667 126.333 55 195 55c21.333 0 42 -2 62 -6c46.667 -8.66699 88.834 -27.334 126.501 -56.001
s68.167 -66 91.5 -112c1.33301 -2 2.66602 -5.66699 3.99902 -11c22.667 -43.333 34 -92.666 34 -147.999zM525.499 632.5c-39 22.333 -81.166 33.501 -126.499 33.501c-54 0 -106.667 -15.667 -158 -47c-46 -27.333 -82 -62.833 -108 -106.5s-39 -92.167 -39 -145.5
c0 -63.333 19.667 -129.333 59 -198c17.333 -30 41.666 -54.333 72.999 -73s66.666 -30.334 105.999 -35.001c14.667 -1.33301 25.334 -2 32.001 -2c34 0 66.333 5.16699 97 15.5s57 25.166 79 44.499c24.667 20.667 46.167 47.667 64.5 81s31.833 69.333 40.5 108
c6.66699 28.667 10 57.334 10 86.001c0 48 -10.667 91.333 -32 130c-2 3.33301 -3 7 -3 11c-24 42.667 -55.5 75.167 -94.5 97.5zM432 498.001c-16.667 12.667 -35.3359 18.999 -56.0029 18.999c-14 0 -27.667 -3.33301 -41 -10s-24.333 -16.667 -33 -30
c-16.667 -24.667 -25 -55.667 -25 -93c0 -27.333 4.66699 -53.333 14 -78s22 -43.667 38 -57c12.667 -10.667 27 -16 43 -16c18 0 37.333 6.66699 58 20c14 8.66699 26.333 29.667 37 63c2 6.66699 5.83301 11.834 11.5 15.501s12.167 5.5 19.5 5.5
c9.33301 0 17 -3.16699 23 -9.5s9 -13.5 9 -21.5c0 -2 -0.666992 -5.66699 -2 -11c-14.667 -48 -36 -80.667 -64 -98c-32.667 -19.333 -63.667 -29 -93 -29c-30.667 0 -58.334 10 -83.001 30c-24 19.333 -42.667 45.833 -56 79.5s-20 69.167 -20 106.5c0 24 3 47.167 9 69.5
s15 42.5 27 60.5c14.667 21.333 33 37.833 55 49.5s46.667 17.5 74 17.5c8 0 20.667 -1.33301 38 -4c60.667 -11.333 98.334 -50 113.001 -116c2.66699 -9.33301 0.833984 -18.333 -5.49902 -27s-14.833 -13 -25.5 -13c-7.33301 0 -14.166 2.33301 -20.499 7
s-10.166 10.667 -11.499 18c-5.33301 22 -16.333 39.333 -33 52z" />
    <glyph glyph-name="ordfeminine" unicode="&#xaa;" horiz-adv-x="359" 
d="M183 749c9.33301 1.33301 15.668 2.00293 19.001 2.00293c20 0 37.5 -5.33301 52.5 -16s26.5 -25.667 34.5 -45c11.333 -28 17 -68.333 17 -121l-2 -49c-0.666992 -19.333 -1 -39 -1 -59c9.33301 0 17 -3.16699 23 -9.5s9 -13.833 9 -22.5s-3.5 -16.5 -10.5 -23.5
s-14.833 -11.833 -23.5 -14.5c-5.33301 -2 -10.666 -3 -15.999 -3c-8 0 -15.333 2.16699 -22 6.5s-11.667 10.166 -15 17.499c-4 8 -6.33301 15 -7 21c-2 10 -3 23.667 -3 41v14c-25.333 -30.667 -51.333 -53 -78 -67c-12.667 -6.66699 -25.334 -10 -38.001 -10
c-24.667 0 -43 10.667 -55 32c-9.33301 15.333 -14 32.666 -14 51.999c0 24 6.5 47.167 19.5 69.5s31.167 39.5 54.5 51.5c21.333 10.667 44 16 68 16c12 0 26.333 -1.66699 43 -5c-2 16.667 -5 29.334 -9 38.001c-3.33301 7.33301 -6.83301 12.666 -10.5 15.999
s-8.5 5 -14.5 5c-4 0 -7.33301 -0.333008 -10 -1c-28.667 -4.66699 -51.667 -19.334 -69 -44.001c-7.33301 -9.33301 -16 -14 -26 -14c-6.66699 0 -13 2 -19 6c-9.33301 6 -14 15 -14 27c0 5.33301 1.66699 11.333 5 18c27.333 39.333 64.666 63 111.999 71z
M129.002 479.003c12 6.66699 23.332 14.6689 33.999 24.002s23 23 37 41c0.666992 0 1 0.333008 1 1l3 3c8.66699 10 13.334 15.667 14.001 17c-10.667 1.33301 -18 2 -22 2c-18.667 0 -34.5 -4.33301 -47.5 -13s-21.833 -21.334 -26.5 -38.001
c-2.66699 -10.667 -4 -18 -4 -22c0 -4.66699 1.33301 -10.334 4 -17.001l1 -1z" />
    <glyph glyph-name="guillemotleft" unicode="&#xab;" horiz-adv-x="498" 
d="M404 332c-12 -9.33301 -19.332 -15.333 -21.999 -18l-5 -3c-10.667 -8 -18 -14.333 -22 -19l-3 -3c0.666992 -1.33301 1.66699 -2.83301 3 -4.5l5 -6.5c4 -4.66699 13.333 -14.334 28 -29.001l13 -13c6 -6.66699 12.333 -13 19 -19
c2.66699 -2.66699 6 -5.83398 10 -9.50098s6.83301 -7.33398 8.5 -11.001s2.5 -8.16699 2.5 -13.5c0 -8.66699 -3.33301 -16.334 -10 -23.001s-14.334 -10 -23.001 -10c-6.66699 0 -11.667 1.16699 -15 3.5s-6.66602 5.33301 -9.99902 9s-6 6.5 -8 8.5l-34 33
c-14.667 14.667 -25.834 26.834 -33.501 36.501s-13.167 18.834 -16.5 27.501c-3.33301 6.66699 -5 14.334 -5 23.001c0 16 7.66699 31.667 23 47l27 24l5 4l11 8c2.66699 3.33301 6.66699 6.33301 12 9l9 8c11.333 8.66699 27 21.667 47 39
c6.66699 5.33301 13.334 8 20.001 8c9.33301 0 17.666 -3.66699 24.999 -11c5.33301 -5.33301 8 -12.666 8 -21.999c0 -10 -3.33301 -18 -10 -24l-50 -41zM212.001 320l-8.00195 -7.00195l-10 -9c-18.667 -17.333 -29.667 -28 -33 -32l-2 -3
c2.66699 -4 6.33398 -8.33301 11.001 -13c12.667 -12.667 38.334 -33 77.001 -61c8 -6.66699 12 -15.667 12 -27c0 -6.66699 -2 -13 -6 -19c-6 -8.66699 -14.667 -13 -26 -13c-7.33301 0 -13.666 2.33301 -18.999 7c-40.667 29.333 -68.334 51.333 -83.001 66
c-10.667 10.667 -18.667 20.5 -24 29.5s-8 18.833 -8 29.5c0 12.667 3.5 24.334 10.5 35.001s17.5 22.667 31.5 36l16 14c2 0.666992 8 6 18 16l42 38c6 6 13.667 9 23 9s17.333 -3.33301 24 -10c5.33301 -5.33301 8 -12.666 8 -21.999c0 -10 -3.33301 -18 -10 -24z" />
    <glyph glyph-name="logicalnot" unicode="&#xac;" horiz-adv-x="580" 
d="M466 390h3.99902c24.667 0 41.334 -1 50.001 -3c9.33301 -0.666992 18 -5 26 -13c6 -6.66699 9 -14.334 9 -23.001c0 -19.333 -2.66699 -53 -8 -101c-5.33301 -41.333 -8 -72 -8 -92c0 -9.33301 -3 -17.166 -9 -23.499s-13.667 -9.5 -23 -9.5
s-17.166 3.16699 -23.499 9.5s-9.5 14.166 -9.5 23.499c0 23.333 2.66699 57 8 101c3.33301 24.667 5.66602 46.667 6.99902 66h-23c-159.333 0 -292.666 2.33301 -399.999 7c-9.33301 0.666992 -17 4.33398 -23 11.001s-8.66699 14.667 -8 24c0 8.66699 3.33301 16 10 22
s14.667 8.66699 24 8c107.333 -4.66699 239.666 -7 396.999 -7z" />
    <glyph glyph-name="registered" unicode="&#xae;" horiz-adv-x="744" 
d="M720 397c0 -32.667 -4.00098 -67 -12.001 -103c-10 -45.333 -26 -87.666 -48 -126.999s-48 -71.666 -78 -96.999c-28 -24 -60.667 -42.5 -98 -55.5s-76.333 -19.5 -117 -19.5c-18.667 0 -32.667 0.666992 -42 2c-50 5.33301 -95 20.166 -135 44.499
s-71 56.166 -93 95.499c-45.333 78.667 -68 154.667 -68 228c0 30 4.33301 61.667 13 95c12 44 32.333 84.667 61 122s63.334 68.333 104.001 93c61.333 36.667 126.333 55 195 55c21.333 0 42 -2 62 -6c46.667 -8.66699 88.834 -27.334 126.501 -56.001
s68.167 -66 91.5 -112c1.33301 -2 2.66602 -5.66699 3.99902 -11c22.667 -43.333 34 -92.666 34 -147.999zM525.499 632.5c-39 22.333 -81.166 33.501 -126.499 33.501c-54 0 -106.667 -15.667 -158 -47c-46 -27.333 -82 -62.833 -108 -106.5s-39 -92.167 -39 -145.5
c0 -63.333 19.667 -129.333 59 -198c17.333 -30 41.666 -54.333 72.999 -73s66.666 -30.334 105.999 -35.001c14.667 -1.33301 25.334 -2 32.001 -2c34 0 66.333 5.16699 97 15.5s57 25.166 79 44.499c24.667 20.667 46.167 47.667 64.5 81s31.833 69.333 40.5 108
c6.66699 28.667 10 57.334 10 86.001c0 48 -10.667 91.333 -32 130c-2 3.33301 -3 7 -3 11c-24 42.667 -55.5 75.167 -94.5 97.5zM457 269.501c0 -1 0.331055 -1.83203 0.998047 -2.49902c10.667 -20.667 19.334 -35.667 26.001 -45s14.667 -16.666 24 -21.999
c10.667 -6 16 -15.333 16 -28c0 -10 -3.16699 -18 -9.5 -24s-13.833 -9 -22.5 -9c-5.33301 0 -10.666 1.66699 -15.999 5c-16.667 9.33301 -30.167 20.833 -40.5 34.5s-22.166 33.5 -35.499 59.5l-2 5l-3 4c-16 31.333 -31 53 -45 65s-32 19 -54 21
c-1.33301 -62.667 -2 -109.334 -2 -140.001c0 -9.33301 -3 -17.166 -9 -23.499s-13.667 -9.5 -23 -9.5s-17.166 3.16699 -23.499 9.5s-9.5 14.166 -9.5 23.499c0 109.333 3.66699 222 11 338c0 2 0.666992 5 2 9c-0.666992 0.666992 -1 2.33398 -1 5.00098
c-0.666992 8.66699 2 16.5 8 23.5s13.333 10.5 22 10.5c8 0.666992 19.333 1 34 1c50 0 88.667 -9 116 -27s41 -41.667 41 -71c0 -9.33301 -1.33301 -18 -4 -26c-9.33301 -33.333 -31.333 -61.333 -66 -84c-2 -0.666992 -4.33301 -2.33398 -7 -5.00098c4 -2.66699 7 -5 9 -7
c11.333 -9.33301 21.166 -20.333 29.499 -33s18.166 -29.334 29.499 -50.001l3 -5c0.666992 -0.666992 1 -1.5 1 -2.5zM360.498 429.002c19 13.333 30.833 28.002 35.5 44.002c0.666992 1.33301 1 3.66602 1 6.99902c0 8 -4 14.333 -12 19c-16.667 10.667 -43.667 16 -81 16
c-2.66699 -36.667 -4.66699 -74.334 -6 -113.001c22.667 4.66699 43.5 13.667 62.5 27z" />
    <glyph glyph-name="macron" unicode="&#xaf;" horiz-adv-x="388" 
d="M149 674c14 0 44.332 0.666992 90.999 2l59 2c8 0.666992 19 1 33 1c8.66699 0 16.167 -3.16699 22.5 -9.5s9.5 -13.833 9.5 -22.5s-3.16699 -16.334 -9.5 -23.001s-13.833 -10 -22.5 -10c-13.333 0 -23.666 -0.333008 -30.999 -1l-58 -2
c-46.667 -1.33301 -77.667 -2 -93 -2c-48 0 -92 3.66699 -132 11c-8.66699 1.33301 -15.5 5.83301 -20.5 13.5s-6.5 15.834 -4.5 24.501c1.33301 8.66699 5.66602 15.5 12.999 20.5s15.333 6.83301 24 5.5c32.667 -6.66699 72.334 -10 119.001 -10z" />
    <glyph glyph-name="degree" unicode="&#xb0;" horiz-adv-x="353" 
d="M318.5 637.5c7 -17 10.499 -35.833 10.499 -56.5c0 -31.333 -7 -60.666 -21 -87.999c-13.333 -26 -30.833 -46.667 -52.5 -62s-45.5 -23 -71.5 -23c-22 0 -43 5 -63 15c-24.667 11.333 -43 27.166 -55 47.499s-18 43.166 -18 68.499c0 32 8.66699 62.667 26 92
c14.667 24.667 33.334 44.334 56.001 59.001s46.667 22 72 22c28 0 55 -9.66699 81 -29l3 -3c14.667 -11.333 25.5 -25.5 32.5 -42.5zM199.999 646c-13.333 0 -26 -4.16895 -38 -12.502s-22.667 -20.166 -32 -35.499c-11.333 -18.667 -17 -38 -17 -58
c0 -12.667 3 -24.167 9 -34.5s14.667 -18.166 26 -23.499c12.667 -6 24.667 -9 36 -9c28 0 50 16.333 66 49c9.33301 18 14 37.333 14 58c0 21.333 -5.33301 37.333 -16 48l-2 1c-14 11.333 -29.333 17 -46 17z" />
    <glyph glyph-name="plusminus" unicode="&#xb1;" horiz-adv-x="588" 
d="M271 515.5c6 6.33301 13.666 9.83496 22.999 10.502c9.33301 0 17.166 -3 23.499 -9s9.5 -13.667 9.5 -23l3 -144c50 2 98.333 5 145 9c10 0.666992 18.5 -2 25.5 -8s10.5 -14 10.5 -24c0 -8.66699 -3 -16.167 -9 -22.5s-13 -9.83301 -21 -10.5
c-48.667 -4 -99 -7 -151 -9v-32c0 -48.667 0.333008 -79.667 1 -93c0 -8.66699 -3.16699 -16.167 -9.5 -22.5s-13.833 -9.5 -22.5 -9.5c-9.33301 0 -17.166 3 -23.499 9s-9.5 13.667 -9.5 23c-0.666992 13.333 -1 44.333 -1 93v29l-161 -3
c-9.33301 0 -17.166 3.16699 -23.499 9.5s-9.5 14.166 -9.5 23.499c0 8.66699 3.16699 16.167 9.5 22.5s13.833 9.5 22.5 9.5l162 3l-3 145c0 9.33301 3 17.166 9 23.499zM252.999 78.002l85 -0.00195312h30l30 1h54h45h34c9.33301 0 17.166 -3 23.499 -9
s9.5 -13.667 9.5 -23s-3.16699 -17.166 -9.5 -23.499s-14.166 -9.5 -23.499 -9.5h-79h-54l-29 -1h-31h-85c-44.667 -0.666992 -99.334 -1 -164.001 -1c-8.66699 0 -16.167 3.33301 -22.5 10s-9.5 14.334 -9.5 23.001s3.16699 16.167 9.5 22.5s13.833 9.5 22.5 9.5
c64.667 0 119.334 0.333008 164.001 1z" />
    <glyph glyph-name="uni00B2" unicode="&#xb2;" horiz-adv-x="370" 
d="M17 587c0 42 23.3301 75.335 69.9971 100.002c28 14 57.667 21 89 21c20.667 0 38.334 -2.33301 53.001 -7c50 -16.667 75 -47.667 75 -93c0 -24.667 -8 -52.334 -24 -83.001c-24.667 -44.667 -61.667 -91 -111 -139l-31 -29l-6 -5l-8 -8l-18 -16l54 -3h3
c28 -2 50 -3 66 -3c14 0 26 1 36 3l12 4c2 0.666992 3.16699 1.5 3.5 2.5s0.333008 2.33301 0 4s-0.5 3.5 -0.5 5.5c0 8.66699 3.33301 16.167 10 22.5s14.334 9.5 23.001 9.5c7.33301 0 14 -2.33301 20 -7s10 -11.334 12 -20.001c0.666992 -3.33301 1 -8.33301 1 -15
c0 -18.667 -6.33301 -34 -19 -46s-29.334 -20 -50.001 -24c-14.667 -2 -31.334 -3 -50.001 -3c-8 0 -30.667 0.666992 -68 2h-2c-27.333 2 -48.666 3 -63.999 3c-28.667 0 -47 -3 -55 -9c-6.66699 -3.33301 -12.667 -5 -18 -5c-10.667 0 -19.667 4.66699 -27 14
c-3.33301 6.66699 -5 12.667 -5 18c0 8 2.66699 15.333 8 22c0.666992 3.33301 2.66699 6.66602 6 9.99902c16 20 42 46.333 78 79l8 8l6 5l30 28c45.333 44 78.333 85 99 123c12.667 23.333 18 42 16 56c-1.33301 6 -3.33301 10.333 -6 13
c-4.66699 5.33301 -11.834 9.83301 -21.501 13.5s-20.5 5.5 -32.5 5.5c-18.667 0 -37 -4 -55 -12s-30.333 -17 -37 -27c-3.33301 -5.33301 -5 -11.666 -5 -18.999c0 -4 0.333008 -7.33301 1 -10c2.66699 -10 0.833984 -19.167 -5.49902 -27.5s-14.833 -12.5 -25.5 -12.5
c-7.33301 0 -14.166 2.33301 -20.499 7s-10.166 10.667 -11.499 18c-2 9.33301 -3 18 -3 26z" />
    <glyph glyph-name="uni00B3" unicode="&#xb3;" horiz-adv-x="348" 
d="M14 616c0 24 11.6689 42.998 35.002 56.998c26 14.667 66.333 22 121 22c28 0 52.667 -1.33301 74 -4c10.667 -0.666992 22.334 -2.33398 35.001 -5.00098l13 -3l8 -3c6.66699 -3.33301 11.334 -7.33301 14.001 -12c4 -6 6 -12.333 6 -19
c0 -5.33301 -0.666992 -9.66602 -2 -12.999c-1.33301 -4 -3.33301 -8 -6 -12c-2.66699 -5.33301 -7.66699 -12.666 -15 -21.999c-5.33301 -8 -20.666 -26.333 -45.999 -55l-12 -13c28 -6 49 -21.833 63 -47.5s21 -55.5 21 -89.5c0 -44 -14.5 -77 -43.5 -99
s-65.833 -33 -110.5 -33c-18.667 0 -37.334 2 -56.001 6c-47.333 8.66699 -83.333 25.334 -108 50.001c-14 14 -21 29.667 -21 47c0 24.667 12.667 44.667 38 60c6.66699 3.33301 12.667 5 18 5c12 0 21 -5 27 -15c3.33301 -6.66699 5 -12.667 5 -18c0 -12 -5 -21 -15 -27
l-7 -5l2 -2c10 -10 26.167 -18.333 48.5 -25s45.166 -10 68.499 -10c20.667 0 37.667 2.66699 51 8s23.166 13.666 29.499 24.999s9.5 24 9.5 38c0 16.667 -3.66699 32.334 -11 47.001c-6.66699 13.333 -15.667 20.666 -27 21.999c-24 1.33301 -44 -4.33398 -60 -17.001
c-6.66699 -5.33301 -13.334 -8 -20.001 -8c-10 0 -18 3.33301 -24 10s-9 14.334 -9 23.001c0 10 4 18.333 12 25c12.667 10 40 38.667 82 86l32 37c-19.333 2.66699 -41.333 4 -66 4c-42.667 0 -71.334 -4.66699 -86.001 -14l-3 -3l3 -8c2.66699 -4.66699 4 -10 4 -16
s-1.5 -11.5 -4.5 -16.5s-6.83301 -8.83301 -11.5 -11.5s-10 -4 -16 -4c-13.333 0 -23 5.66699 -29 17c-7.33301 14.667 -11 28.334 -11 41.001z" />
    <glyph glyph-name="acute" unicode="&#xb4;" horiz-adv-x="253" 
d="M516 1007l-1 -2l-43 -57c-8 -8 -16.333 -12 -25 -12c-6.66699 0 -13.334 2.66699 -20.001 8c-8.66699 6.66699 -13 15 -13 25c0 8 2.33301 14.667 7 20l41 55l2 1c13.333 20 25.333 36.333 36 49c6.66699 8.66699 15.334 13 26.001 13c8 0 14.667 -2.33301 20 -7
c8 -6 12 -14.333 12 -25c0 -8.66699 -2.33301 -15.667 -7 -21z" />
    <glyph glyph-name="uni00B5" unicode="&#xb5;" horiz-adv-x="590" 
d="M38 68l19.0039 56.998l16 50c3.33301 11.333 6.33301 20 9 26c3.33301 15.333 7.33301 31.333 12 48c0.666992 2.66699 1.66699 6 3 10s3 8.66699 5 14c27.333 87.333 44.333 145 51 173c1.33301 6 3.66602 17.667 6.99902 35c1.33301 7.33301 5 13.666 11 18.999
s13 8 21 8c2 0 3.66699 -0.333008 5 -1c8 -1.33301 14.5 -5 19.5 -11s7.5 -13 7.5 -21v-5c-6 -38.667 -20.333 -95.334 -43 -170.001l-30 -96c-5.33301 -15.333 -9.33301 -30.666 -12 -45.999c-2 -14.667 -3 -28.334 -3 -41.001c0 -28 5.33301 -51.333 16 -70l2 -3h2h6
c12.667 3.33301 28.334 11.333 47.001 24c30 22 58.333 48.333 85 79c98.667 115.333 168 233.333 208 354c5.33301 15.333 15.666 23 30.999 23c2.66699 0 6 -0.666992 10 -2c15.333 -5.33301 23 -15.666 23 -30.999c0 -2.66699 -0.666992 -6 -2 -10
c-22.667 -68 -48.334 -152.167 -77.001 -252.5s-46.334 -167.166 -53.001 -200.499c-2 -8.66699 -6.66699 -15.5 -14 -20.5s-15.333 -6.5 -24 -4.5c-8.66699 1.33301 -15.5 5.83301 -20.5 13.5s-6.83301 15.834 -5.5 24.501c3.33301 18 15.666 66.333 36.999 145
c-26 -35.333 -51.333 -67 -76 -95s-53 -53.333 -85 -76c-35.333 -24.667 -65.666 -37 -90.999 -37s-45 12 -59 36c-0.666992 2 -1.33398 3.5 -2.00098 4.5s-1.33398 1.83301 -2.00098 2.5c-25.333 -80.667 -44.333 -147.667 -57 -201
c-1.33301 -7.33301 -5.16602 -13.333 -11.499 -18s-13.166 -7 -20.499 -7c-10.667 0 -19.334 4.33301 -26.001 13s-8.66699 17.667 -6 27c16.667 66.667 39 144.334 67 233.001z" />
    <glyph glyph-name="periodcentered" unicode="&#xb7;" horiz-adv-x="233" 
d="M204 361c3.33301 -10 4.99902 -19 4.99902 -27c0 -12.667 -3.16699 -24.167 -9.5 -34.5s-15.166 -18.833 -26.499 -25.5c-10.667 -6.66699 -23 -10 -37 -10c-22 0 -40 8 -54 24c-12 14 -18 30.333 -18 49c0 20 6.66699 37.667 20 53c14 16 30.667 24 50 24
c14.667 0 27.667 -4.33301 39 -13c14 -6 24.333 -19.333 31 -40z" />
    <glyph glyph-name="cedilla" unicode="&#xb8;" horiz-adv-x="295" 
d="M120 -30l1.00195 1.99902l22 35c6 10 15 15 27 15c5.33301 0 11.333 -1.66699 18 -5c10 -6 15 -15 15 -27c0 -5.33301 -1.66699 -11.333 -5 -18l-15 -24c14.667 -0.666992 28 -4.66699 40 -12c15.333 -9.33301 27.166 -21.666 35.499 -36.999s12.5 -32 12.5 -50
c0 -15.333 -3 -30 -9 -44s-14.667 -26.333 -26 -37c-21.333 -19.333 -48.666 -29 -81.999 -29c-12 0 -21.333 0.666992 -28 2c-18 2.66699 -34.333 8.83398 -49 18.501s-24.667 22.834 -30 39.501c-0.666992 2 -1 5 -1 9c0 7.33301 2.16699 14 6.5 20s9.83301 10 16.5 12
c2 0.666992 4.66699 1 8 1c7.33301 0 14 -2.16699 20 -6.5s10 -9.83301 12 -16.5l1 -2l5 -4c8 -4 15.333 -6.33301 22 -7c4 -0.666992 9.66699 -1 17 -1c17.333 0 30.5 4.66699 39.5 14s13.167 20.666 12.5 33.999c-1.33301 12.667 -6.33301 21.667 -15 27
c-4.66699 2.66699 -11 4 -19 4c-10.667 0 -22.334 -3 -35.001 -9c-3.33301 -2.66699 -8 -4 -14 -4c-4.66699 0 -9.33398 1.33301 -14.001 4c-4 1.33301 -7 2.66602 -9 3.99902c-10 6 -15 15.333 -15 28c0 6 1.33301 11.333 4 16z" />
    <glyph glyph-name="uni00B9" unicode="&#xb9;" horiz-adv-x="256" 
d="M83 631.5c8.66699 14.333 22.3359 29.5 41.0029 45.5l19 19c2 2.66699 4.33301 5 7 7c9.33301 9.33301 18.666 16.333 27.999 21c5.33301 2.66699 11.333 4 18 4c10 0 18.333 -4 25 -12c5.33301 -5.33301 8.66602 -13.666 9.99902 -24.999
c0.666992 -1.33301 1 -4.33301 1 -9s-0.333008 -8.66699 -1 -12v-13c-0.666992 -1.33301 -1 -4 -1 -8v-3c-8 -132.667 -12 -242.667 -12 -330c0 -8.66699 -3.16699 -16.334 -9.5 -23.001s-13.833 -10 -22.5 -10s-16.334 3.33301 -23.001 10s-10 14.334 -10 23.001
c0 90 3.33301 193 10 309c-12 -10.667 -20.333 -20 -25 -28s-8.33398 -19 -11.001 -33c-2 -8.66699 -6.66699 -15.334 -14 -20.001s-15.333 -6 -24 -4c-8.66699 1.33301 -15.5 5.83301 -20.5 13.5s-6.83301 15.834 -5.5 24.501c4.66699 21.333 11.334 39.166 20.001 53.499z
" />
    <glyph glyph-name="ordmasculine" unicode="&#xba;" horiz-adv-x="347" 
d="M320 588c0 -24 -4.83301 -49.002 -14.5 -75.002s-22.5 -48.333 -38.5 -67c-26 -30 -55 -45 -87 -45c-25.333 0 -49.666 9.33301 -72.999 28c-18 15.333 -32 35.333 -42 60s-15 51.334 -15 80.001c0 6.66699 0.666992 17.334 2 32.001c4.66699 35.333 17.5 65.5 38.5 90.5
s47.833 39.5 80.5 43.5c13.333 1.33301 22.666 2 27.999 2c36 0 64.5 -10.5 85.5 -31.5s33.5 -51.5 37.5 -91.5v-5c0 -4.66699 -1 -9 -3 -13c0.666992 -2 1 -4.66699 1 -8zM240 656.998c-8.66699 10 -22.332 15 -40.999 15c-8.66699 0 -15.334 -0.333008 -20.001 -1
c-19.333 -2.66699 -35 -13.5 -47 -32.5s-18 -42.5 -18 -70.5c0 -18.667 3.16699 -36 9.5 -52s14.833 -28 25.5 -36c11.333 -9.33301 22 -14 32 -14c12 0 24 7 36 21c10.667 14 19.667 30.5 27 49.5s11 36.167 11 51.5c0 5.33301 1.33301 10.333 4 15
c-0.666992 0.666992 -1 2 -1 4c-3.33301 23.333 -9.33301 40 -18 50z" />
    <glyph glyph-name="guillemotright" unicode="&#xbb;" horiz-adv-x="507" 
d="M187 367l20.0029 -17.0029l8 -7l8 -7c14.667 -12 25.167 -22.333 31.5 -31s9.83301 -18.667 10.5 -30c0 -11.333 -3.16699 -21.5 -9.5 -30.5s-16.5 -19.5 -30.5 -31.5l-5 -5l-10 -8l-12 -11l-9 -9c-18 -14.667 -35 -30.667 -51 -48c-6.66699 -6 -14.334 -9 -23.001 -9
s-16.334 3.33301 -23.001 10s-10 14.334 -10 23.001s3.33301 16 10 22c22.667 22.667 40.334 39.334 53.001 50.001l8 7l9 9l17 14l16 16l-14 12l-9 8l-28 24c-12 10.667 -29.333 27.334 -52 50.001c-6.66699 6 -10 13.667 -10 23c0 8.66699 3.16699 16.167 9.5 22.5
s14.166 9.5 23.499 9.5c8 0 15.667 -3 23 -9c21.333 -21.333 37.666 -37 48.999 -47zM381.003 388.997l32.999 -31.001c15.333 -14 28 -26 38 -36s17 -18.667 21 -26c6.66699 -10.667 10 -21.334 10 -32.001c0 -13.333 -6 -26.666 -18 -39.999
c-4 -5.33301 -12.667 -13.333 -26 -24c-8 -8 -13.333 -12.333 -16 -13l-18 -16c-14.667 -12.667 -29.667 -26.667 -45 -42c-6 -6 -13.333 -9 -22 -9s-16.334 3.33301 -23.001 10s-10 14.334 -10 23.001s3 16 9 22c15.333 15.333 31.333 30.333 48 45l19 17
c2.66699 0.666992 8 5 16 13c6 4.66699 12 10 18 16l-11 12c-11.333 11.333 -22.666 22 -33.999 32c-22 20 -39 36 -51 48c-6.66699 6 -10 14 -10 24c0 8.66699 3 16 9 22c6 6.66699 13.667 10 23 10c8.66699 0 16.334 -3 23.001 -9z" />
    <glyph glyph-name="onequarter" unicode="&#xbc;" horiz-adv-x="849" 
d="M161 651c10.667 19.333 18.9951 32.6689 24.9951 40.002c10 12.667 21.667 20.667 35 24c8 1.33301 15.667 0.166016 23 -3.50098s12.666 -8.83398 15.999 -15.501c4.66699 -6.66699 6.33398 -16.334 5.00098 -29.001c0 -3.33301 -0.333008 -6 -1 -8v-4l-6 -92
c-1.33301 -14.667 -3 -39.667 -5 -75c-0.666992 -12 -1 -29 -1 -51c0 -51.333 3.66699 -91.333 11 -120c2.66699 -9.33301 0.833984 -18.333 -5.49902 -27s-14.833 -13 -25.5 -13c-7.33301 0 -14.166 2.33301 -20.499 7s-10.166 10.667 -11.499 18
c-8.66699 34 -13 78.333 -13 133c0 24.667 0.333008 43.667 1 57l4 68c-6 -10.667 -14.667 -16 -26 -16c-4.66699 0 -9.5 1.33301 -14.5 4s-9.16699 5.66699 -12.5 9c-5.33301 8 -7.66602 15.667 -6.99902 23c0.666992 8.66699 10.334 32.334 29.001 71.001z
M541.995 464.503l-174.004 -296.5c-54.667 -97.333 -85 -157.333 -91 -180c-1.33301 -7.33301 -5.16602 -13.333 -11.499 -18s-13.166 -7 -20.499 -7c-8.66699 0 -16.167 3.33301 -22.5 10s-9.5 14 -9.5 22c0 16.667 27.833 75.834 83.5 177.501
s116.834 207.167 183.501 316.5s111.334 177.666 134.001 204.999c7.33301 8 16.333 12 27 12c8 0 14.333 -2.33301 19 -7c8 -8 12 -16.667 12 -26c0 -7.33301 -2.66699 -14.333 -8 -21c-20 -24.667 -60.667 -87.167 -122 -187.5zM698.991 368.003
c-16.667 -30 -42.334 -68.9961 -77.001 -116.996l-10 -14l-18 -24l-15 -21c16 -0.666992 39 -3.66699 69 -9c3.33301 0 6.33301 -0.333008 9 -1l1 -1l4 22l3 15c1.33301 9.33301 5.83301 16.5 13.5 21.5s15.834 6.83301 24.501 5.5c8.66699 -2 15.5 -6.66699 20.5 -14
s6.83301 -15.333 5.5 -24l-2 -15l-4 -19c2 -0.666992 4.66699 -1 8 -1s6 0.333008 8 1h7c2.66699 0 6 0.666992 10 2c1.33301 0 2.33301 0.333008 3 1s1 3 1 7c0 8.66699 3.33301 16.167 10 22.5s14.334 9.5 23.001 9.5s16.167 -3.16699 22.5 -9.5s9.5 -13.833 9.5 -22.5
c0 -22.667 -6.5 -40.334 -19.5 -53.001s-30.833 -20 -53.5 -22l-18 -1l-22 1c-1.33301 -21.333 -2 -36 -2 -44c0 -6 0.5 -12.5 1.5 -19.5s1.5 -13.167 1.5 -18.5c0 -8 -2.33301 -15 -7 -21s-11 -9.66699 -19 -11c-8.66699 -2 -16.834 -0.5 -24.501 4.5
s-12.5 11.833 -14.5 20.5c-2.66699 17.333 -4 31.666 -4 42.999c0 10 1.33301 28.333 4 55h-2l-9 2c-33.333 5.33301 -57.333 8 -72 8c-21.333 0 -33.333 -3.33301 -36 -10c-6.66699 -10 -16 -15 -28 -15c-6.66699 0 -12.334 1.33301 -17.001 4
c-10.667 6.66699 -16 16 -16 28c0 6 1.66699 11.667 5 17l45 66c4.66699 8 13.334 20.333 26.001 37l25 35c30.667 42 55 79 73 111l17 31c2.66699 5.33301 6.66699 9.66602 12 12.999s11 5 17 5c9.33301 0 17 -3.16699 23 -9.5s9 -13.833 9 -22.5c0 -5.33301 -1 -10 -3 -14
c-6 -12.667 -12 -24.334 -18 -35.001z" />
    <glyph glyph-name="onehalf" unicode="&#xbd;" horiz-adv-x="823" 
d="M91 598c0.666992 2.66699 2.66504 7.3291 5.99805 13.9961c0.666992 1.33301 1 3 1 5c9.33301 22.667 20.333 40.334 33 53.001c6 6 13 12 21 18l2 1l2 2c2 0.666992 3.5 1.33398 4.5 2.00098s1.83301 1.33398 2.5 2.00098l7 5c9.33301 5.33301 18.666 8 27.999 8
c4.66699 0 8.33398 -0.333008 11.001 -1c10.667 -3.33301 18 -10.333 22 -21c2.66699 -5.33301 3.33398 -12.333 2.00098 -21l-3 -19c0 -2.66699 -0.333008 -4.66699 -1 -6l-3 -13v-4l-1 -1c-13.333 -81.333 -20 -150 -20 -206c0 -38 3.66699 -72.333 11 -103
c2.66699 -9.33301 0.833984 -18.333 -5.49902 -27s-14.833 -13 -25.5 -13c-7.33301 0 -14.166 2.33301 -20.499 7s-10.166 10.667 -11.499 18c-8.66699 31.333 -13 71 -13 119c0 40.667 4.33301 94.334 13 161.001c-0.666992 -0.666992 -1 -1.5 -1 -2.5
s-0.333008 -1.83301 -1 -2.5c-0.666992 -1.33301 -1 -3 -1 -5l-1 -1c-2 -6.66699 -5.83301 -12 -11.5 -16s-11.834 -6 -18.501 -6c-4.66699 0 -8.33398 0.666992 -11.001 2c-14 6 -21 16.667 -21 32c0 4.66699 0.333008 8 1 10l1 3zM510.998 542.995
c-39.333 -60.667 -82.668 -131.335 -130.001 -212.002s-87.666 -152 -120.999 -214c-34.667 -66 -53.667 -107 -57 -123c-2 -8.66699 -6.66699 -15.5 -14 -20.5s-15.333 -6.5 -24 -4.5c-8.66699 1.33301 -15.5 5.83301 -20.5 13.5s-6.83301 15.834 -5.5 24.501
c4 20.667 23 63.334 57 128.001s77 141 129 229c112 191.333 184 303 216 335c6 6 13.667 9 23 9s17 -3 23 -9s9 -13.667 9 -23s-3 -17 -9 -23c-12 -12 -37.333 -48.667 -76 -110zM546.996 364.494c13.333 18.333 30 32.5 50 42.5c17.333 10 35.666 15 54.999 15
c22.667 0 41.667 -6.66699 57 -20c18.667 -16 28 -38.333 28 -67c0 -21.333 -5 -44 -15 -68c-22.667 -54.667 -69.667 -119.667 -141 -195l16 -5l12 -3c2 -0.666992 6.66699 -2 14 -4c12.667 -2.66699 23.667 -5.66699 33 -9c21.333 -5.33301 40.333 -8 57 -8
c6.66699 0 11.334 0.333008 14.001 1l5 2c0 0.666992 0.333008 1 1 1v3c0 5.33301 -0.333008 10 -1 14c-2.66699 9.33301 -0.5 18.166 6.5 26.499s15.833 12.5 26.5 12.5c7.33301 0 14 -2.5 20 -7.5s9.66699 -11.5 11 -19.5c1.33301 -10.667 2 -18 2 -22
c0 -18.667 -4.66699 -34.167 -14 -46.5s-22.666 -21.166 -39.999 -26.499c-8.66699 -2 -18.667 -3 -30 -3c-21.333 0 -45.666 3.33301 -72.999 10l-36 9c-6.66699 2 -11 3.33301 -13 4l-35 10l-15 3l-8 -4l-24 -15c-7.33301 -8.66699 -15 -16.334 -23 -23.001l-12 -9
c-4 -2 -8.66699 -3 -14 -3c-7.33301 0 -14 2.16699 -20 6.5s-10 10.833 -12 19.5c-0.666992 2 -1 5 -1 9c0 10.667 5.33301 21.334 16 32.001l23 17l7 8l2 2c0 0.666992 3.33301 4.33398 10 11.001l17 19l9 10c78 79.333 128 145.333 150 198c8 18 11.333 33.667 10 47
c-0.666992 7.33301 -2.33398 12 -5.00098 14c-4.66699 3.33301 -9.33398 5 -14.001 5c-6.66699 0 -15.334 -2.66699 -26.001 -8c-22.667 -12 -36.667 -31.667 -42 -59c-1.33301 -8.66699 -5.66602 -15.667 -12.999 -21s-15.333 -7 -24 -5
c-9.33301 1.33301 -16.5 5.5 -21.5 12.5s-6.83301 15.167 -5.5 24.5c4 23.333 12.667 44.166 26 62.499z" />
    <glyph glyph-name="threequarters" unicode="&#xbe;" horiz-adv-x="856" 
d="M604 534l-25 -36l-30 -43l-60 -85c-9.33301 -12.667 -19.333 -27.334 -30 -44.001c-111.333 -164 -172.666 -270.667 -183.999 -320c-2 -7.33301 -6 -13.166 -12 -17.499s-12.667 -6.5 -20 -6.5c-3.33301 0 -6 0.333008 -8 1c-6.66699 1.33301 -12.334 5 -17.001 11
s-7 12.667 -7 20c0 3.33301 0.333008 6 1 8c7.33301 32 27.333 76.167 60 132.5s77 125.833 133 208.5l31 44l59 86c4.66699 4.66699 14.667 18.667 30 42l26 37c35.333 50 63 90.333 83 121c7.33301 10 16.333 15 27 15c5.33301 0 11.333 -1.66699 18 -5
c10 -6 15 -15 15 -27c0 -5.33301 -1.66699 -11.333 -5 -18zM71 623c0 28 11.999 48.3281 35.999 60.9951c18 10.667 45.333 15.334 82 14.001l41 -3c0.666992 -0.666992 3.33398 -1 8.00098 -1h2c0.666992 -0.666992 2.66699 -1 6 -1l17 -1c2.66699 -0.666992 5.5 -1 8.5 -1
s5.83301 -0.333008 8.5 -1h6h2h1l1 -1h3c0.666992 -0.666992 1.5 -1 2.5 -1s1.83301 -0.333008 2.5 -1c2 -0.666992 4.83301 -2.5 8.5 -5.5s6.16699 -5.83301 7.5 -8.5c1.33301 -3.33301 2.33301 -10 3 -20c-2.66699 -23.333 -11.667 -47.666 -27 -72.999l-17 -26l-10 -13
l-3 -5l-3 -4.5c-0.666992 -1 -1.33398 -1.83301 -2.00098 -2.5c17.333 -9.33301 33 -25.666 47 -48.999s21 -49.666 21 -78.999c0 -37.333 -12.333 -69.5 -37 -96.5s-60.667 -40.5 -108 -40.5c-34 0 -64.333 8.66699 -91 26c-9.33301 6 -16.166 14.5 -20.499 25.5
s-6.83301 22.5 -7.5 34.5c0 12.667 2 23 6 31c8 12 18 18 30 18c14 0 24.667 -6 32 -18c4.66699 -6.66699 7 -13 7 -19s-2.66699 -12.333 -8 -19v-1c17.333 -8.66699 35 -13 53 -13c14.667 0 28 2.66699 40 8s21.333 13 28 23c7.33301 12.667 11 26 11 40
c0 20 -5.66699 38.333 -17 55c-8.66699 12 -15.667 18.333 -21 19h-1l-2 -2c-2.66699 -1.33301 -4.33398 -3.33301 -5.00098 -6c-6 -10.667 -15.333 -16 -28 -16c-6 0 -11.333 1.33301 -16 4c-10.667 6.66699 -16 16 -16 28c0 6.66699 1.33301 12.334 4 17.001
c12.667 22 27.667 44.333 45 67c16 21.333 27.333 37.333 34 48l8 14h-2l-9 1c-2.66699 0.666992 -5.66699 1 -9 1c-14 2 -29.667 3 -47 3c-18 0 -30.333 -2 -37 -6c-1.33301 0 -2.16602 -0.5 -2.49902 -1.5s-0.5 -2.16699 -0.5 -3.5s0.666992 -4.66602 2 -9.99902
c0.666992 -2 1 -5 1 -9c0 -8.66699 -3 -16.334 -9 -23.001s-13.667 -10 -23 -10c-7.33301 0 -13.833 2.16699 -19.5 6.5s-9.5 9.83301 -11.5 16.5c-3.33301 12 -5 22 -5 30zM628.999 237.995c-5.33301 -6.66699 -20.334 -28.332 -45.001 -64.999
c16 -1.33301 38.333 -4.33301 67 -9l8 -2l11 -2c0 14 0.5 24.5 1.5 31.5s4.5 13.167 10.5 18.5c6.66699 5.33301 13.667 8 21 8c9.33301 0 17.666 -3.66699 24.999 -11c5.33301 -6.66699 8 -13.667 8 -21l-1 -34c13.333 0 22.333 2.33301 27 7
c2.66699 3.33301 4 10.666 4 21.999c0 9.33301 3.33301 17.166 10 23.499s14.334 9.5 23.001 9.5s16.167 -3.16699 22.5 -9.5s9.5 -14.166 9.5 -23.499c0 -26 -6.16699 -46.833 -18.5 -62.5s-30.166 -25.5 -53.499 -29.5c-9.33301 -1.33301 -17.333 -2 -24 -2
c-0.666992 -34 -4 -64.667 -10 -92c-2 -6.66699 -6 -12.334 -12 -17.001s-12.667 -7 -20 -7c-9.33301 0 -17 3.16699 -23 9.5s-9 13.5 -9 21.5c0 4 0.333008 7 1 9c4 16.667 6.66699 44.334 8 83.001c-17.333 2.66699 -25 4 -23 4l-8 2c-30.667 6 -54 9 -70 9
c-19.333 0 -32 -4.66699 -38 -14c-7.33301 -9.33301 -16.666 -14 -27.999 -14c-6 0 -11.667 1.66699 -17 5c-10 7.33301 -15 16.333 -15 27c0 6.66699 1.66699 12.667 5 18l48 70l34 48l18 26c32 46 60.667 90 86 132c6.66699 15.333 12.667 26.333 18 33s13.333 10 24 10
c7.33301 0 14 -2 20 -6s10 -9.33301 12 -16c1.33301 -4 2 -7.33301 2 -10c0 -4.66699 -1.66699 -9.66699 -5 -15l-15 -28c-20.667 -36 -50.334 -81.667 -89.001 -137z" />
    <glyph glyph-name="questiondown" unicode="&#xbf;" horiz-adv-x="506" 
d="M292 527c9.33301 5.33301 19 8.00098 29 8.00098c14 0 26.667 -4.33301 38 -13s18.333 -20 21 -34c0.666992 -3.33301 1 -8.33301 1 -15c0 -12.667 -3 -23.834 -9 -33.501s-14.667 -16.834 -26 -21.501c-9.33301 -2.66699 -16.333 -4 -21 -4c-12 0 -25 4 -39 12
c-22 12.667 -33 28.334 -33 47.001c0 19.333 9 33.333 27 42c3.33301 4.66699 7.33301 8.66699 12 12zM365 318.001c4.66699 -12 7.00293 -18.3291 7.00293 -18.9961c2 -8 3 -16 3 -24c0 -4 -0.666992 -10.667 -2 -20c-4 -22.667 -19.333 -49 -46 -79
c-18 -20 -29.667 -32.667 -35 -38l-5 -6l-11 -11l-12 -13l-10 -10c-34.667 -36.667 -60.334 -68.5 -77.001 -95.5s-25 -51.5 -25 -73.5c0 -12 1.66699 -22 5 -30c7.33301 -20 21.333 -38.5 42 -55.5s46.667 -25.5 78 -25.5c23.333 0 45.666 5.5 66.999 16.5
s38.666 26.167 51.999 45.5c15.333 21.333 22.333 45.666 21 72.999c-6.66699 1.33301 -12.167 4.83301 -16.5 10.5s-6.5 12.167 -6.5 19.5c0 4 0.333008 7 1 9c1.33301 7.33301 5.33301 14 12 20s14.334 9 23.001 9c6 0 10.333 -0.666992 13 -2
c9.33301 -3.33301 16.666 -9.66602 21.999 -18.999c9.33301 -13.333 14.666 -26 15.999 -38c2.66699 -42 -7 -80.333 -29 -115s-53 -60.334 -93 -77.001c-26.667 -11.333 -54 -17 -82 -17c-26.667 0 -52.167 5 -76.5 15s-45.5 24.667 -63.5 44c-20 20.667 -33.667 42 -41 64
c-6.66699 18 -10 36.333 -10 55c0 33.333 10.333 66.666 31 99.999s50.667 70.666 90 111.999l10 10l12 13l11 12l5 5c18.667 19.333 33.5 35.833 44.5 49.5s17.5 25.167 19.5 34.5c0.666992 2.66699 1 6 1 10c0 2.66699 -1.66699 8 -5 16c-7.33301 16 -11 27.333 -11 34
c0 3.33301 1.33301 8.33301 4 15c2.66699 5.33301 6.66699 9.66602 12 12.999s11 5 17 5c4 0 8.66699 -1 14 -3c8.66699 -4 14.334 -10.333 17.001 -19z" />
    <glyph glyph-name="Agrave" unicode="&#xc0;" horiz-adv-x="625" 
d="M326 878l15.999 -21.001c0 -2 2.33301 -5.33301 7 -10l3 -5c1.33301 -2 3.66602 -5 6.99902 -9s6 -7.83301 8 -11.5s3 -7.5 3 -11.5c0 -9.33301 -3.16699 -17.166 -9.5 -23.499s-14.166 -9.5 -23.499 -9.5c-11.333 0 -20 4 -26 12c-4 6 -9.66699 13.333 -17 22l-4 6
l-16 22c-19.333 26 -31.666 43 -36.999 51c-3.33301 6.66699 -5 12.667 -5 18c0 12 4.66699 21 14 27c6.66699 3.33301 12.667 5 18 5c12 0 21 -4.66699 27 -14zM69.999 459.999c0 19.333 7.66504 34.6738 22.998 46.0068s35 19 59 23c15.333 2.66699 35 4 59 4
c1.33301 3.33301 2.33301 6.16602 3 8.49902s1.33398 3.83301 2.00098 4.5c26.667 70 44.334 121.333 53.001 154v1c0.666992 0.666992 1 1.66699 1 3c0.666992 4.66699 1.5 8.16699 2.5 10.5s1.5 4.16602 1.5 5.49902c0.666992 7.33301 2.66699 13 6 17
c3.33301 6 8 10.667 14 14c4 2 8.66699 3 14 3c8.66699 0 18 -4 28 -12c2.66699 -2.66699 5.33398 -6.33398 8.00098 -11.001c3.33301 -4.66699 8 -13.667 14 -27c14.667 -28.667 38.334 -91.334 71.001 -188.001h1c18.667 -2 30 -2.66699 34 -2h5
c4.66699 0.666992 14.334 3.66699 29.001 9c-0.666992 2 -1 4.66699 -1 8c0 6.66699 1.83301 13 5.5 19s8.83398 10.333 15.501 13c4 1.33301 7.33301 2 10 2c7.33301 0 14.666 -2.16699 21.999 -6.5s13.666 -9.5 18.999 -15.5c6 -8.66699 9 -17 9 -25
c0 -14 -7 -26.667 -21 -38c-4.66699 -3.33301 -11.334 -7.33301 -20.001 -12c-26 -12.667 -49.333 -19 -70 -19l-7 -1l-8 1l9 -27l14 -44c2.66699 -6.66699 4.33398 -11.667 5.00098 -15l17 -49l19 -58c12.667 -41.333 27 -85 43 -131s29 -80.667 39 -104c2 -4 3 -8 3 -12
c0 -6.66699 -1.83301 -12.667 -5.5 -18s-8.5 -9.33301 -14.5 -12c-4 -2 -8.33301 -3 -13 -3c-6 0 -11.833 1.66699 -17.5 5s-9.83398 8 -12.501 14c-8.66699 21.333 -20.834 54.666 -36.501 99.999l-32.5 95l-15 46c-22.667 69.333 -34.334 104.666 -35.001 105.999
c-2.66699 6 -4.33398 11.333 -5.00098 16l-33 98c-10.667 0.666992 -17.667 1.66699 -21 3l-74 7c-7.33301 0.666992 -17.666 1 -30.999 1c-67.333 -176.667 -118.333 -330.334 -153 -461.001c-1.33301 -6.66699 -5 -12.334 -11 -17.001s-12.667 -7 -20 -7
c-3.33301 0 -6 0.333008 -8 1c-8.66699 2 -15.334 6.83301 -20.001 14.5s-6 15.834 -4 24.501c32.667 126 81.334 274.333 146.001 445c-25.333 -1.33301 -41.666 -5 -48.999 -11c0 -9.33301 -3.16699 -17.333 -9.5 -24s-14.5 -10 -24.5 -10c-7.33301 0 -14 2.66699 -20 8
s-9.66699 12 -11 20c-0.666992 2.66699 -1 6 -1 10zM289.997 530.007c19.333 -0.666992 41.667 -2.66602 67 -5.99902c-8.66699 27.333 -17.667 52.666 -27 75.999l-13 34c-10.667 -32.667 -23 -67 -37 -103c4.66699 0 8 -0.333008 10 -1z" />
    <glyph glyph-name="Aacute" unicode="&#xc1;" horiz-adv-x="625" 
d="M337 810c-6 -10 -15.332 -15 -27.999 -15c-6 0 -11.333 1.33301 -16 4c-10.667 6 -16 15.333 -16 28c0 6.66699 1.33301 12.334 4 17.001c15.333 26 37.333 57.667 66 95c7.33301 9.33301 16.333 14 27 14c6 0 12.333 -2.33301 19 -7
c8.66699 -6.66699 13 -15.334 13 -26.001c0 -8 -2.33301 -14.667 -7 -20c-26.667 -35.333 -47.334 -65.333 -62.001 -90zM70.001 460c0 19.333 7.66504 34.6738 22.998 46.0068s35 19 59 23c15.333 2.66699 35 4 59 4c1.33301 3.33301 2.33301 6.16602 3 8.49902
s1.33398 3.83301 2.00098 4.5c26.667 70 44.334 121.333 53.001 154v1c0.666992 0.666992 1 1.66699 1 3c0.666992 4.66699 1.5 8.16699 2.5 10.5s1.5 4.16602 1.5 5.49902c0.666992 7.33301 2.66699 13 6 17c3.33301 6 8 10.667 14 14c4 2 8.66699 3 14 3
c8.66699 0 18 -4 28 -12c2.66699 -2.66699 5.33398 -6.33398 8.00098 -11.001c3.33301 -4.66699 8 -13.667 14 -27c14.667 -28.667 38.334 -91.334 71.001 -188.001h1c18.667 -2 30 -2.66699 34 -2h5c4.66699 0.666992 14.334 3.66699 29.001 9c-0.666992 2 -1 4.66699 -1 8
c0 6.66699 1.83301 13 5.5 19s8.83398 10.333 15.501 13c4 1.33301 7.33301 2 10 2c7.33301 0 14.666 -2.16699 21.999 -6.5s13.666 -9.5 18.999 -15.5c6 -8.66699 9 -17 9 -25c0 -14 -7 -26.667 -21 -38c-4.66699 -3.33301 -11.334 -7.33301 -20.001 -12
c-26 -12.667 -49.333 -19 -70 -19l-7 -1l-8 1l9 -27l14 -44c2.66699 -6.66699 4.33398 -11.667 5.00098 -15l17 -49l19 -58c12.667 -41.333 27 -85 43 -131s29 -80.667 39 -104c2 -4 3 -8 3 -12c0 -6.66699 -1.83301 -12.667 -5.5 -18s-8.5 -9.33301 -14.5 -12
c-4 -2 -8.33301 -3 -13 -3c-6 0 -11.833 1.66699 -17.5 5s-9.83398 8 -12.501 14c-8.66699 21.333 -20.834 54.666 -36.501 99.999l-32.5 95l-15 46c-22.667 69.333 -34.334 104.666 -35.001 105.999c-2.66699 6 -4.33398 11.333 -5.00098 16l-33 98
c-10.667 0.666992 -17.667 1.66699 -21 3l-74 7c-7.33301 0.666992 -17.666 1 -30.999 1c-67.333 -176.667 -118.333 -330.334 -153 -461.001c-1.33301 -6.66699 -5 -12.334 -11 -17.001s-12.667 -7 -20 -7c-3.33301 0 -6 0.333008 -8 1
c-8.66699 2 -15.334 6.83301 -20.001 14.5s-6 15.834 -4 24.501c32.667 126 81.334 274.333 146.001 445c-25.333 -1.33301 -41.666 -5 -48.999 -11c0 -9.33301 -3.16699 -17.333 -9.5 -24s-14.5 -10 -24.5 -10c-7.33301 0 -14 2.66699 -20 8s-9.66699 12 -11 20
c-0.666992 2.66699 -1 6 -1 10zM289.999 530.008c19.333 -0.666992 41.667 -2.66602 67 -5.99902c-8.66699 27.333 -17.667 52.666 -27 75.999l-13 34c-10.667 -32.667 -23 -67 -37 -103c4.66699 0 8 -0.333008 10 -1z" />
    <glyph glyph-name="Acircumflex" unicode="&#xc2;" horiz-adv-x="625" 
d="M279 897c14.667 12.667 29.332 19.001 43.999 19.001s27.334 -5.16699 38.001 -15.5s22.667 -27.5 36 -51.5c0 -2 2.33301 -6.66699 7 -14c5.33301 -8.66699 8.33301 -14 9 -16l19 -33c2.66699 -4.66699 4 -10 4 -16c0 -12.667 -5 -22 -15 -28
c-6.66699 -3.33301 -12.667 -5 -18 -5c-11.333 0 -20.333 5.33301 -27 16c-3.33301 4.66699 -10 16.334 -20 35.001c-2.66699 4 -6 9.66699 -10 17s-6 11.666 -6 12.999c-8.66699 15.333 -14.667 25 -18 29c-14.667 -14 -35 -43.333 -61 -88c-6 -10 -15.333 -15 -28 -15
c-10 0 -18 3.16699 -24 9.5s-9 13.833 -9 22.5c0 5.33301 1.66699 10.666 5 15.999c31.333 53.333 56 88.333 74 105zM69.998 460.001c0 19.333 7.66504 34.6738 22.998 46.0068s35 19 59 23c15.333 2.66699 35 4 59 4c1.33301 3.33301 2.33301 6.16602 3 8.49902
s1.33398 3.83301 2.00098 4.5c26.667 70 44.334 121.333 53.001 154v1c0.666992 0.666992 1 1.66699 1 3c0.666992 4.66699 1.5 8.16699 2.5 10.5s1.5 4.16602 1.5 5.49902c0.666992 7.33301 2.66699 13 6 17c3.33301 6 8 10.667 14 14c4 2 8.66699 3 14 3
c8.66699 0 18 -4 28 -12c2.66699 -2.66699 5.33398 -6.33398 8.00098 -11.001c3.33301 -4.66699 8 -13.667 14 -27c14.667 -28.667 38.334 -91.334 71.001 -188.001h1c18.667 -2 30 -2.66699 34 -2h5c4.66699 0.666992 14.334 3.66699 29.001 9c-0.666992 2 -1 4.66699 -1 8
c0 6.66699 1.83301 13 5.5 19s8.83398 10.333 15.501 13c4 1.33301 7.33301 2 10 2c7.33301 0 14.666 -2.16699 21.999 -6.5s13.666 -9.5 18.999 -15.5c6 -8.66699 9 -17 9 -25c0 -14 -7 -26.667 -21 -38c-4.66699 -3.33301 -11.334 -7.33301 -20.001 -12
c-26 -12.667 -49.333 -19 -70 -19l-7 -1l-8 1l9 -27l14 -44c2.66699 -6.66699 4.33398 -11.667 5.00098 -15l17 -49l19 -58c12.667 -41.333 27 -85 43 -131s29 -80.667 39 -104c2 -4 3 -8 3 -12c0 -6.66699 -1.83301 -12.667 -5.5 -18s-8.5 -9.33301 -14.5 -12
c-4 -2 -8.33301 -3 -13 -3c-6 0 -11.833 1.66699 -17.5 5s-9.83398 8 -12.501 14c-8.66699 21.333 -20.834 54.666 -36.501 99.999l-32.5 95l-15 46c-22.667 69.333 -34.334 104.666 -35.001 105.999c-2.66699 6 -4.33398 11.333 -5.00098 16l-33 98
c-10.667 0.666992 -17.667 1.66699 -21 3l-74 7c-7.33301 0.666992 -17.666 1 -30.999 1c-67.333 -176.667 -118.333 -330.334 -153 -461.001c-1.33301 -6.66699 -5 -12.334 -11 -17.001s-12.667 -7 -20 -7c-3.33301 0 -6 0.333008 -8 1
c-8.66699 2 -15.334 6.83301 -20.001 14.5s-6 15.834 -4 24.501c32.667 126 81.334 274.333 146.001 445c-25.333 -1.33301 -41.666 -5 -48.999 -11c0 -9.33301 -3.16699 -17.333 -9.5 -24s-14.5 -10 -24.5 -10c-7.33301 0 -14 2.66699 -20 8s-9.66699 12 -11 20
c-0.666992 2.66699 -1 6 -1 10zM289.996 530.009c19.333 -0.666992 41.667 -2.66602 67 -5.99902c-8.66699 27.333 -17.667 52.666 -27 75.999l-13 34c-10.667 -32.667 -23 -67 -37 -103c4.66699 0 8 -0.333008 10 -1z" />
    <glyph glyph-name="Atilde" unicode="&#xc3;" horiz-adv-x="625" 
d="M187.5 867c15.667 17.333 38.1709 25.999 67.5039 25.999c12.667 0 26.167 -1.66699 40.5 -5s34.166 -8.66602 59.499 -15.999c0.666992 -0.666992 1.66699 -1 3 -1c39.333 -11.333 66 -17 80 -17h6c3.33301 0 7.66602 0.666992 12.999 2l3 2
c-3.33301 5.33301 -5 11.333 -5 18c0 8.66699 3.66699 16.167 11 22.5s14.666 9.5 21.999 9.5c8.66699 0 16 -3.33301 22 -10c11.333 -11.333 17 -24.333 17 -39c0 -12.667 -4 -24.5 -12 -35.5s-18 -19.5 -30 -25.5c-14 -6 -29.333 -9 -46 -9c-12.667 0 -30 2.33301 -52 7
l-48 13h-2l-49 13.5c-14 3.66699 -25 5.5 -33 5.5c-4 0 -7 -0.333008 -9 -1c-6 -1.33301 -9.66699 -2.66602 -11 -3.99902c-3.33301 -5.33301 -5 -14.666 -5 -27.999c0.666992 -8.66699 -2.16602 -16.334 -8.49902 -23.001s-13.833 -10 -22.5 -10
c-8.66699 -0.666992 -16.334 2.16602 -23.001 8.49902s-10.334 13.833 -11.001 22.5c-0.666992 32 6.83301 56.667 22.5 74zM70.0039 459.999c0 19.333 7.66504 34.6738 22.998 46.0068s35 19 59 23c15.333 2.66699 35 4 59 4c1.33301 3.33301 2.33301 6.16602 3 8.49902
s1.33398 3.83301 2.00098 4.5c26.667 70 44.334 121.333 53.001 154v1c0.666992 0.666992 1 1.66699 1 3c0.666992 4.66699 1.5 8.16699 2.5 10.5s1.5 4.16602 1.5 5.49902c0.666992 7.33301 2.66699 13 6 17c3.33301 6 8 10.667 14 14c4 2 8.66699 3 14 3
c8.66699 0 18 -4 28 -12c2.66699 -2.66699 5.33398 -6.33398 8.00098 -11.001c3.33301 -4.66699 8 -13.667 14 -27c14.667 -28.667 38.334 -91.334 71.001 -188.001h1c18.667 -2 30 -2.66699 34 -2h5c4.66699 0.666992 14.334 3.66699 29.001 9c-0.666992 2 -1 4.66699 -1 8
c0 6.66699 1.83301 13 5.5 19s8.83398 10.333 15.501 13c4 1.33301 7.33301 2 10 2c7.33301 0 14.666 -2.16699 21.999 -6.5s13.666 -9.5 18.999 -15.5c6 -8.66699 9 -17 9 -25c0 -14 -7 -26.667 -21 -38c-4.66699 -3.33301 -11.334 -7.33301 -20.001 -12
c-26 -12.667 -49.333 -19 -70 -19l-7 -1l-8 1l9 -27l14 -44c2.66699 -6.66699 4.33398 -11.667 5.00098 -15l17 -49l19 -58c12.667 -41.333 27 -85 43 -131s29 -80.667 39 -104c2 -4 3 -8 3 -12c0 -6.66699 -1.83301 -12.667 -5.5 -18s-8.5 -9.33301 -14.5 -12
c-4 -2 -8.33301 -3 -13 -3c-6 0 -11.833 1.66699 -17.5 5s-9.83398 8 -12.501 14c-8.66699 21.333 -20.834 54.666 -36.501 99.999l-32.5 95l-15 46c-22.667 69.333 -34.334 104.666 -35.001 105.999c-2.66699 6 -4.33398 11.333 -5.00098 16l-33 98
c-10.667 0.666992 -17.667 1.66699 -21 3l-74 7c-7.33301 0.666992 -17.666 1 -30.999 1c-67.333 -176.667 -118.333 -330.334 -153 -461.001c-1.33301 -6.66699 -5 -12.334 -11 -17.001s-12.667 -7 -20 -7c-3.33301 0 -6 0.333008 -8 1
c-8.66699 2 -15.334 6.83301 -20.001 14.5s-6 15.834 -4 24.501c32.667 126 81.334 274.333 146.001 445c-25.333 -1.33301 -41.666 -5 -48.999 -11c0 -9.33301 -3.16699 -17.333 -9.5 -24s-14.5 -10 -24.5 -10c-7.33301 0 -14 2.66699 -20 8s-9.66699 12 -11 20
c-0.666992 2.66699 -1 6 -1 10zM290.002 530.007c19.333 -0.666992 41.667 -2.66602 67 -5.99902c-8.66699 27.333 -17.667 52.666 -27 75.999l-13 34c-10.667 -32.667 -23 -67 -37 -103c4.66699 0 8 -0.333008 10 -1z" />
    <glyph glyph-name="Adieresis" unicode="&#xc4;" horiz-adv-x="625" 
d="M372 873c4.66699 6.66699 10.668 12.5 18.001 17.5s15 7.5 23 7.5c10.667 0 20.667 -4.66699 30 -14c12.667 -11.333 19 -24.333 19 -39c0 -9.33301 -2.66699 -18 -8 -26c-8.66699 -16 -24.667 -24 -48 -24c-10.667 0 -20.5 2.83301 -29.5 8.5s-14.5 14.5 -16.5 26.5
l-1 7c0 9.33301 3 18.333 9 27c1.33301 4 2.66602 7 3.99902 9zM291.001 875.5c9.33301 -10.333 14.001 -23.499 14.001 -39.499c-0.666992 -14.667 -5.66699 -27.334 -15 -38.001s-21.333 -16 -36 -16c-17.333 0 -30.333 5.16699 -39 15.5s-14.334 22.833 -17.001 37.5
c-0.666992 2.66699 -1 6.66699 -1 12c0 12.667 3.16699 23.5 9.5 32.5s16.833 13.5 31.5 13.5c6.66699 0 12.667 -1.33301 18 -4c14 1.33301 25.667 -3.16699 35 -13.5zM70.002 460.001c0 19.333 7.66504 34.6729 22.998 46.0059s35 19 59 23c15.333 2.66699 35 4 59 4
c1.33301 3.33301 2.33301 6.16602 3 8.49902s1.33398 3.83301 2.00098 4.5c26.667 70 44.334 121.333 53.001 154h1v4l4 16c0.666992 7.33301 2.66699 13 6 17c3.33301 6 8 10.667 14 14c4 2 8.66699 3 14 3c8.66699 0 18 -4 28 -12
c2.66699 -2.66699 5.33398 -6.33398 8.00098 -11.001c3.33301 -4.66699 8 -13.667 14 -27c14.667 -28.667 38.334 -91.334 71.001 -188.001h1c18.667 -2 30 -2.66699 34 -2h5c4.66699 0.666992 14.334 3.66699 29.001 9c-0.666992 2 -1 4.66699 -1 8
c0 6.66699 1.83301 13 5.5 19s8.83398 10.333 15.501 13c4 1.33301 7.33301 2 10 2c7.33301 0 14.666 -2.16699 21.999 -6.5s13.666 -9.5 18.999 -15.5c6 -8.66699 9 -17 9 -25c0 -14 -7 -26.667 -21 -38c-4.66699 -3.33301 -11.334 -7.33301 -20.001 -12
c-26 -12.667 -49.333 -19 -70 -19l-7 -1l-8 1l9 -27l14 -44c2.66699 -6.66699 4.33398 -11.667 5.00098 -15l17 -49l19 -58c12.667 -41.333 27 -85 43 -131s29 -80.667 39 -104c2 -4 3 -8 3 -12c0 -6.66699 -1.83301 -12.667 -5.5 -18s-8.5 -9.33301 -14.5 -12
c-4 -2 -8.33301 -3 -13 -3c-6 0 -11.833 1.66699 -17.5 5s-9.83398 8 -12.501 14c-8.66699 21.333 -20.834 54.666 -36.501 99.999l-32.5 95l-15 46c-22.667 69.333 -34.334 104.666 -35.001 105.999c-2.66699 6 -4.33398 11.333 -5.00098 16l-33 98
c-10.667 0.666992 -17.667 1.66699 -21 3l-74 7c-7.33301 0.666992 -17.666 1 -30.999 1c-67.333 -176.667 -118.333 -330.334 -153 -461.001c-1.33301 -6.66699 -5 -12.334 -11 -17.001s-12.667 -7 -20 -7c-3.33301 0 -6 0.333008 -8 1
c-8.66699 2 -15.334 6.83301 -20.001 14.5s-6 15.834 -4 24.501c32.667 126 81.334 274.333 146.001 445c-25.333 -1.33301 -41.666 -5 -48.999 -11c0 -9.33301 -3.16699 -17.333 -9.5 -24s-14.5 -10 -24.5 -10c-7.33301 0 -14 2.66699 -20 8s-9.66699 12 -11 20
c-0.666992 2.66699 -1 6 -1 10zM290 530.008c19.333 -0.666992 41.667 -2.66602 67 -5.99902c-8.66699 27.333 -17.667 52.666 -27 75.999l-13 34c-10.667 -32.667 -23 -67 -37 -103c4.66699 0 8 -0.333008 10 -1z" />
    <glyph glyph-name="Aring" unicode="&#xc5;" horiz-adv-x="625" 
d="M70 460c0 19.333 7.66504 34.6709 22.998 46.0039s35 19 59 23c15.333 2.66699 35 4 59 4c1.33301 3.33301 2.33301 6.16602 3 8.49902s1.33398 3.83301 2.00098 4.5c26.667 70 44.334 121.333 53.001 154v1c0.666992 0.666992 1 1.66699 1 3l1 6
c-24.667 6 -45.167 18.5 -61.5 37.5s-24.5 41.833 -24.5 68.5c0 22.667 5.66699 43.834 17 63.501s27.333 35.5 48 47.5s43.667 18 69 18c34.667 0 61.834 -9.5 81.501 -28.5s29.5 -43.5 29.5 -73.5c0 -26 -7 -51 -21 -75s-32.333 -42.333 -55 -55l4 -9
c14.667 -28.667 38.334 -91.334 71.001 -188.001h1c18.667 -2 30 -2.66699 34 -2h5c4.66699 0.666992 14.334 3.66699 29.001 9c-0.666992 2 -1 4.66699 -1 8c0 6.66699 1.83301 13 5.5 19s8.83398 10.333 15.501 13c4 1.33301 7.33301 2 10 2
c7.33301 0 14.666 -2.16699 21.999 -6.5s13.666 -9.5 18.999 -15.5c6 -8.66699 9 -17 9 -25c0 -14 -7 -26.667 -21 -38c-4.66699 -3.33301 -11.334 -7.33301 -20.001 -12c-26 -12.667 -49.333 -19 -70 -19l-7 -1l-8 1l9 -27l14 -44
c2.66699 -6.66699 4.33398 -11.667 5.00098 -15l17 -49l19 -58c12.667 -41.333 27 -85 43 -131s29 -80.667 39 -104c2 -4 3 -8 3 -12c0 -6.66699 -1.83301 -12.667 -5.5 -18s-8.5 -9.33301 -14.5 -12c-4 -2 -8.33301 -3 -13 -3c-6 0 -11.833 1.66699 -17.5 5
s-9.83398 8 -12.501 14c-8.66699 21.333 -20.834 54.666 -36.501 99.999l-32.5 95l-15 46c-22.667 69.333 -34.334 104.666 -35.001 105.999c-2.66699 6 -4.33398 11.333 -5.00098 16l-33 98c-10.667 0.666992 -17.667 1.66699 -21 3l-74 7
c-7.33301 0.666992 -17.666 1 -30.999 1c-67.333 -176.667 -118.333 -330.334 -153 -461.001c-1.33301 -6.66699 -5 -12.334 -11 -17.001s-12.667 -7 -20 -7c-3.33301 0 -6 0.333008 -8 1c-8.66699 2 -15.334 6.83301 -20.001 14.5s-6 15.834 -4 24.501
c32.667 126 81.334 274.333 146.001 445c-25.333 -1.33301 -41.666 -5 -48.999 -11c0 -9.33301 -3.16699 -17.333 -9.5 -24s-14.5 -10 -24.5 -10c-7.33301 0 -14 2.66699 -20 8s-9.66699 12 -11 20c-0.666992 2.66699 -1 6 -1 10zM350.998 797.005
c8.66699 13.333 13.3291 27.001 13.9961 41.001c1.33301 13.333 -1.66699 23.666 -9 30.999s-19.666 11 -36.999 11c-19.333 0 -35.166 -5.33301 -47.499 -16s-19.166 -24 -20.499 -40c-2 -14.667 1.66699 -27 11 -37s23.666 -15.333 42.999 -16
c4.66699 0 9.33398 -1.33301 14.001 -4c12.667 6.66699 23.334 16.667 32.001 30zM289.993 530.006c19.333 -0.666992 41.667 -2.66602 67 -5.99902c-8.66699 27.333 -17.667 52.666 -27 75.999l-13 34c-10.667 -32.667 -23 -67 -37 -103c4.66699 0 8 -0.333008 10 -1z" />
    <glyph glyph-name="AE" unicode="&#xc6;" horiz-adv-x="918" 
d="M238 417l23.999 0.000976562c94 141.333 168 241 222 299c6 6.66699 13.333 10 22 10c4 1.33301 7.66699 2 11 2c38.667 0 72.667 0.333008 102 1c3.33301 0 6.33301 0.333008 9 1c33.333 0.666992 71 1 113 1c8.66699 0 16.167 -3.16699 22.5 -9.5
s9.5 -13.833 9.5 -22.5s-3.16699 -16.334 -9.5 -23.001s-13.833 -10 -22.5 -10c-41.333 0 -78.666 -0.333008 -111.999 -1c-2 -0.666992 -5 -1 -9 -1c-38.667 0 -64 -0.333008 -76 -1l-7 -84l-6 -66l-10 -132c92 -16.667 157.667 -25 197 -25c19.333 0 35.333 1.33301 48 4
c8.66699 2 18.334 6.66699 29.001 14s19 15.666 25 24.999c-10.667 6 -16 15.333 -16 28c0 8.66699 3.16699 16.167 9.5 22.5s13.833 9.5 22.5 9.5c14.667 0 27.167 -3.33301 37.5 -10s16.833 -17 19.5 -31c2 -16 -3 -32.833 -15 -50.5s-27.333 -33.167 -46 -46.5
c-16.667 -12.667 -33.667 -20.667 -51 -24c-20 -4 -41.667 -6 -65 -6c-25.333 0 -53 2 -83 6s-68.667 10 -116 18c-3.33301 -63.333 -5 -113.333 -5 -150c0 -30.667 1.33301 -64 4 -100c21.333 -1.33301 39.333 -2 54 -2c12 0 35.333 0.666992 70 2
c8.66699 0 16.667 0.333008 24 1c41.333 2 71.666 3 90.999 3c9.33301 0 17.166 -3 23.499 -9s9.5 -13.667 9.5 -23s-3.16699 -17.166 -9.5 -23.499s-14.166 -9.5 -23.499 -9.5c-19.333 0 -48.666 -1 -87.999 -3c-7.33301 -0.666992 -15.333 -1 -24 -1
c-32 -1.33301 -54.333 -2 -67 -2c-31.333 0 -60.333 1.66699 -87 5c-8 1.33301 -14 4 -18 8c-9.33301 5.33301 -15 13.333 -17 24c-4.66699 30.667 -7 73.667 -7 129c0 40 1.66699 94.333 5 163h-2c-74 12.667 -125.333 20 -154 22c-82.667 -126.667 -153 -241 -211 -343
c-6 -10.667 -15.333 -16 -28 -16c-6 0 -11.333 1.33301 -16 4c-5.33301 2.66699 -9.5 6.5 -12.5 11.5s-4.5 10.5 -4.5 16.5c0 5.33301 1.33301 10.333 4 15c48 86 112 190.667 192 314c-50.667 -2 -83.667 -13.667 -99 -35c-6.66699 -8 -15.334 -12 -26.001 -12
c-6.66699 0 -13 2 -19 6c-8.66699 6.66699 -13 15.667 -13 27c0 7.33301 2 13.333 6 18c30 41.333 86.333 62 169 62zM455.999 392.001c0.666992 15.333 4 56.667 10 124l7 86c-42 -54.667 -87.667 -118.667 -137 -192c31.333 -2.66699 71.333 -8.66699 120 -18z" />
    <glyph glyph-name="Ccedilla" unicode="&#xc7;" horiz-adv-x="654" 
d="M296 -33c0.666992 0.666992 1.00488 1.66992 1.00488 3.00293c-57.333 11.333 -104.333 39 -141 83c-52 62 -78 143.667 -78 245c0 39.333 3.83301 78.5 11.5 117.5s17.834 74.833 30.501 107.5c26.667 68 62.667 123.333 108 166s95.666 64 150.999 64
c60.667 0 120.667 -28 180 -84c17.333 -16 33 -38 47 -66s21.667 -52.667 23 -74c0.666992 -8.66699 -2 -16.5 -8 -23.5s-13.333 -10.5 -22 -10.5c-8.66699 -0.666992 -16.5 2 -23.5 8s-10.833 13.333 -11.5 22c-0.666992 13.333 -6.33398 30.166 -17.001 50.499
s-21.667 35.833 -33 46.5c-46.667 44.667 -92 67 -136 67c-40.667 0 -79 -18.667 -115 -56c-34 -34.667 -62 -80 -84 -136s-33.667 -112 -35 -168c-2 -66.667 5.66699 -122.334 23 -167.001s41.666 -77.834 72.999 -99.501s67 -31.834 107 -30.501
c37.333 0 72.5 9.66699 105.5 29s59.5 45.666 79.5 78.999s30 70 30 110c0 8.66699 3.33301 16.167 10 22.5s14.334 9.5 23.001 9.5s16.167 -3.16699 22.5 -9.5s9.5 -13.833 9.5 -22.5c0 -51.333 -12 -97.5 -36 -138.5s-55.5 -73.833 -94.5 -98.5
s-80.167 -39.667 -123.5 -45l-4 -5l-7 -11c24.667 -2 44 -9 58 -21s22.333 -26.667 25 -44c2 -16.667 -1 -33 -9 -49c-9.33301 -20 -23.833 -36.5 -43.5 -49.5s-40.834 -19.5 -63.501 -19.5c-23.333 0 -45.333 6.66699 -66 20c-10 6.66699 -15 15.667 -15 27c0 6 2 12 6 18
c2.66699 4.66699 6.5 8.33398 11.5 11.001s10.167 4 15.5 4c6 0 12 -2 18 -6c9.33301 -6.66699 19.666 -10 30.999 -10c10 0 19.333 3 28 9s15 13.667 19 23c2 4.66699 3 9 3 13c0 1.33301 -0.333008 2.33301 -1 3c-2 2 -7 3.66699 -15 5
c-2.66699 0.666992 -7.33398 1 -14.001 1c-8.66699 0 -19 -1 -31 -3c-8.66699 -2 -16.834 -0.5 -24.501 4.5s-12.167 11.833 -13.5 20.5l-1 2c-2 4 -3 8.33301 -3 13s1.33301 9.33398 4 14.001z" />
    <glyph glyph-name="Egrave" unicode="&#xc8;" horiz-adv-x="470" 
d="M364 840c4 -6 5.99902 -12.334 5.99902 -19.001c0 -11.333 -4.66699 -20 -14 -26c-6 -4 -12.333 -6 -19 -6c-10.667 0 -19.667 5 -27 15c-4.66699 8 -11.667 17.333 -21 28l-41 52c-4.66699 5.33301 -7 12 -7 20c0 10.667 4 19.334 12 26.001c5.33301 4.66699 12 7 20 7
c10.667 0 19.334 -4.33301 26.001 -13c32 -38.667 53.667 -66.667 65 -84zM28.999 488.999c0 22 7.33203 39 21.999 51s33.667 18.333 57 19h9c-0.666992 32.667 -3 79 -7 139v4c0 1.33301 0.666992 4.66602 2 9.99902l-2 7c-0.666992 9.33301 2 17.333 8 24
s13.667 10.334 23 11.001l65 5l64 6c30.667 1.33301 52 2 64 2c28 0 51.333 -1.33301 70 -4c8.66699 -1.33301 15.667 -5 21 -11s8 -13 8 -21c0 -10 -3.66699 -18.167 -11 -24.5s-16 -8.83301 -26 -7.5c-18 2 -37.667 3 -59 3c-11.333 0 -32.333 -0.666992 -63 -2l-63 -5
l-36 -4c3.33301 -39.333 5.66602 -85.333 6.99902 -138l57 -11c0.666992 -0.666992 1.66699 -1 3 -1c38.667 -8 69 -13.333 91 -16c15.333 -1.33301 25.333 -1.66602 30 -0.999023l8 2l2 1c2 1.33301 4.33301 4 7 8c-5.33301 6 -8 12.667 -8 20
c0 8.66699 3.83301 16.167 11.5 22.5s15.167 9.5 22.5 9.5c8.66699 0 16.834 -3.83301 24.501 -11.5s12.5 -17.5 14.5 -29.5c0.666992 -2 1 -5.33301 1 -10c0 -10 -2.83301 -20.5 -8.5 -31.5s-14.167 -20.833 -25.5 -29.5c-14 -10.667 -34.333 -16 -61 -16
c-10.667 0 -19 0.333008 -25 1c-16.667 2 -49 7.66699 -97 17c-0.666992 0.666992 -1.66699 1 -3 1c-16 4 -30.667 7 -44 9c0 -44.667 -1 -98 -3 -160l-3 -63c-3.33301 -103.333 -5 -171.333 -5 -204l103 -2c52.667 0 96.334 2.33301 131.001 7
c9.33301 0.666992 17.666 -2.16602 24.999 -8.49902s11 -14.5 11 -24.5c0 -8 -2.66699 -15 -8 -21s-12 -9.66699 -20 -11c-36.667 -4.66699 -83 -7 -139 -7l-116 2h-6h-5c-2 -0.666992 -5 -1 -9 -1c-8.66699 0 -16.167 3.16699 -22.5 9.5s-9.5 14.166 -9.5 23.499
c0 41.333 1.66699 121 5 239l3 64c2 64 3 118.667 3 164h-5c-4.66699 0 -9.66699 -0.666992 -15 -2c-1.33301 0 -2.33301 -0.333008 -3 -1v-1c0 -2 0.333008 -3.66699 1 -5c1.33301 -10 -1.33398 -18.667 -8.00098 -26s-15 -11 -25 -11
c-7.33301 0 -14.166 2.66699 -20.499 8s-10.166 11.666 -11.499 18.999c-0.666992 3.33301 -1 8 -1 14z" />
    <glyph glyph-name="Eacute" unicode="&#xc9;" horiz-adv-x="470" 
d="M392 843l-51 -51c-6.66699 -6.66699 -14.667 -10 -24 -10c-8.66699 0 -16 3 -22 9c-6.66699 6 -10 14 -10 24c0 8.66699 2.66699 15.667 8 21c16 17.333 34.333 35.333 55 54l2 2l30 29c6 6 13.667 9 23 9s17 -3 23 -9s9 -13.333 9 -22s-3 -16.667 -9 -24l-32 -31z
M29 489c0 22 7.33203 39 21.999 51s33.667 18.333 57 19h9c-0.666992 32.667 -3 79 -7 139v4c0 1.33301 0.666992 4.66602 2 9.99902l-2 7c-0.666992 9.33301 2 17.333 8 24s13.667 10.334 23 11.001l65 5l64 6c30.667 1.33301 52 2 64 2c28 0 51.333 -1.33301 70 -4
c8.66699 -1.33301 15.667 -5 21 -11s8 -13 8 -21c0 -10 -3.66699 -18.167 -11 -24.5s-16 -8.83301 -26 -7.5c-18 2 -37.667 3 -59 3c-11.333 0 -32.333 -0.666992 -63 -2l-63 -5l-36 -4c3.33301 -39.333 5.66602 -85.333 6.99902 -138l57 -11
c0.666992 -0.666992 1.66699 -1 3 -1c38.667 -8 69 -13.333 91 -16c15.333 -1.33301 25.333 -1.66602 30 -0.999023l8 2l2 1c2 1.33301 4.33301 4 7 8c-5.33301 6 -8 12.667 -8 20c0 8.66699 3.83301 16.167 11.5 22.5s15.167 9.5 22.5 9.5
c8.66699 0 16.834 -3.83301 24.501 -11.5s12.5 -17.5 14.5 -29.5c0.666992 -2 1 -5.33301 1 -10c0 -10 -2.83301 -20.5 -8.5 -31.5s-14.167 -20.833 -25.5 -29.5c-14 -10.667 -34.333 -16 -61 -16c-10.667 0 -19 0.333008 -25 1c-16.667 2 -49 7.66699 -97 17
c-0.666992 0.666992 -1.66699 1 -3 1c-16 4 -30.667 7 -44 9c0 -44.667 -1 -98 -3 -160l-3 -63c-3.33301 -103.333 -5 -171.333 -5 -204l103 -2c52.667 0 96.334 2.33301 131.001 7c9.33301 0.666992 17.666 -2.16602 24.999 -8.49902s11 -14.5 11 -24.5
c0 -8 -2.66699 -15 -8 -21s-12 -9.66699 -20 -11c-36.667 -4.66699 -83 -7 -139 -7l-116 2h-6h-5c-2 -0.666992 -5 -1 -9 -1c-8.66699 0 -16.167 3.16699 -22.5 9.5s-9.5 14.166 -9.5 23.499c0 41.333 1.66699 121 5 239l3 64c2 64 3 118.667 3 164h-5
c-4.66699 0 -9.66699 -0.666992 -15 -2c-1.33301 0 -2.33301 -0.333008 -3 -1v-1c0 -2 0.333008 -3.66699 1 -5c1.33301 -10 -1.33398 -18.667 -8.00098 -26s-15 -11 -25 -11c-7.33301 0 -14.166 2.66699 -20.499 8s-10.166 11.666 -11.499 18.999
c-0.666992 3.33301 -1 8 -1 14z" />
    <glyph glyph-name="Ecircumflex" unicode="&#xca;" horiz-adv-x="485" 
d="M248 843l11.999 13.501c4 4.33301 7.66699 8.5 11 12.5l11 12l4.5 6.5c1.66699 2.33301 3.5 4.5 5.5 6.5c13.333 13.333 24.833 23.333 34.5 30s20.834 10 33.501 10c18.667 0 35.5 -8.83301 50.5 -26.5s30.833 -44.834 47.5 -81.501c2 -4 3 -8.33301 3 -13
c0 -6.66699 -1.83301 -12.667 -5.5 -18s-8.5 -9.33301 -14.5 -12c-4 -2 -8.33301 -3 -13 -3c-6 0 -11.833 1.66699 -17.5 5s-9.83398 8 -12.501 14c-13.333 32 -25.333 53.667 -36 65l-3 4l-3 -3c-5.33301 -4.66699 -13.666 -13.334 -24.999 -26.001l-5 -6
c-3.33301 -3.33301 -5.33301 -5.66602 -6 -6.99902l-26 -28l-7 -7c-6 -6 -13.333 -9 -22 -9c-10 0 -18 3.33301 -24 10c-6 6 -9 13.333 -9 22c0 9.33301 3 17 9 23zM28.999 489.001c0 22 7.33203 39 21.999 51s33.667 18.333 57 19h9c-0.666992 32.667 -3 79 -7 139v4
c0 1.33301 0.666992 4.66602 2 9.99902l-2 7c-0.666992 9.33301 2 17.333 8 24s13.667 10.334 23 11.001l65 5l64 6c30.667 1.33301 52 2 64 2c28 0 51.333 -1.33301 70 -4c8.66699 -1.33301 15.667 -5 21 -11s8 -13 8 -21c0 -10 -3.66699 -18.167 -11 -24.5
s-16 -8.83301 -26 -7.5c-18 2 -37.667 3 -59 3c-11.333 0 -32.333 -0.666992 -63 -2l-63 -5l-36 -4c3.33301 -39.333 5.66602 -85.333 6.99902 -138l57 -11c0.666992 -0.666992 1.66699 -1 3 -1c38.667 -8 69 -13.333 91 -16c15.333 -1.33301 25.333 -1.66602 30 -0.999023
l8 2l2 1c2 1.33301 4.33301 4 7 8c-5.33301 6 -8 12.667 -8 20c0 8.66699 3.83301 16.167 11.5 22.5s15.167 9.5 22.5 9.5c8.66699 0 16.834 -3.83301 24.501 -11.5s12.5 -17.5 14.5 -29.5c0.666992 -2 1 -5.33301 1 -10c0 -10 -2.83301 -20.5 -8.5 -31.5
s-14.167 -20.833 -25.5 -29.5c-14 -10.667 -34.333 -16 -61 -16c-10.667 0 -19 0.333008 -25 1c-16.667 2 -49 7.66699 -97 17c-0.666992 0.666992 -1.66699 1 -3 1c-16 4 -30.667 7 -44 9c0 -44.667 -1 -98 -3 -160l-3 -63c-3.33301 -103.333 -5 -171.333 -5 -204l103 -2
c52.667 0 96.334 2.33301 131.001 7c9.33301 0.666992 17.666 -2.16602 24.999 -8.49902s11 -14.5 11 -24.5c0 -8 -2.66699 -15 -8 -21s-12 -9.66699 -20 -11c-36.667 -4.66699 -83 -7 -139 -7l-116 2h-6h-5c-2 -0.666992 -5 -1 -9 -1c-8.66699 0 -16.167 3.16699 -22.5 9.5
s-9.5 14.166 -9.5 23.499c0 41.333 1.66699 121 5 239l3 64c2 64 3 118.667 3 164h-5c-4.66699 0 -9.66699 -0.666992 -15 -2c-1.33301 0 -2.33301 -0.333008 -3 -1v-1c0 -2 0.333008 -3.66699 1 -5c1.33301 -10 -1.33398 -18.667 -8.00098 -26s-15 -11 -25 -11
c-7.33301 0 -14.166 2.66699 -20.499 8s-10.166 11.666 -11.499 18.999c-0.666992 3.33301 -1 8 -1 14z" />
    <glyph glyph-name="Edieresis" unicode="&#xcb;" horiz-adv-x="509" 
d="M478 862c4 -8 5.99707 -16.333 5.99707 -25c0 -16.667 -6.66699 -30 -20 -40c-8 -7.33301 -18.333 -11 -31 -11c-15.333 0 -27.666 5.66699 -36.999 17c-8 9.33301 -12 21 -12 35c0 11.333 2.33301 21.333 7 30c4.66699 8 10.334 14 17.001 18s14 6 22 6
c14.667 0 27.334 -6.33301 38.001 -19c4 -3.33301 7.33301 -7 10 -11zM261.497 883c7.66699 3.33301 15.833 5.00098 24.5 5.00098c11.333 -0.666992 20.5 -5 27.5 -13s10.833 -17.333 11.5 -28v-5c0 -3.33301 -0.666992 -8.33301 -2 -15
c-4 -12.667 -10.333 -22.667 -19 -30s-18 -11 -28 -11c-12 0 -22.667 5 -32 15s-14.333 21 -15 33v3c0 9.33301 3.33301 18.333 10 27c1.33301 2 3.33301 4 6 6c3.33301 5.33301 8.83301 9.66602 16.5 12.999zM28.9961 489.001c0 22 7.33203 39 21.999 51
s33.667 18.333 57 19h9c-0.666992 32.667 -3 79 -7 139v4c0 1.33301 0.666992 4.66602 2 9.99902l-2 7c-0.666992 9.33301 2 17.333 8 24s13.667 10.334 23 11.001l65 5l64 6c30.667 1.33301 52 2 64 2c28 0 51.333 -1.33301 70 -4c8.66699 -1.33301 15.667 -5 21 -11
s8 -13 8 -21c0 -10 -3.66699 -18.167 -11 -24.5s-16 -8.83301 -26 -7.5c-18 2 -37.667 3 -59 3c-11.333 0 -32.333 -0.666992 -63 -2l-63 -5l-36 -4c3.33301 -39.333 5.66602 -85.333 6.99902 -138l57 -11c0.666992 -0.666992 1.66699 -1 3 -1c38.667 -8 69 -13.333 91 -16
c15.333 -1.33301 25.333 -1.66602 30 -0.999023l8 2l2 1c2 1.33301 4.33301 4 7 8c-5.33301 6 -8 12.667 -8 20c0 8.66699 3.83301 16.167 11.5 22.5s15.167 9.5 22.5 9.5c8.66699 0 16.834 -3.83301 24.501 -11.5s12.5 -17.5 14.5 -29.5c0.666992 -2 1 -5.33301 1 -10
c0 -10 -2.83301 -20.5 -8.5 -31.5s-14.167 -20.833 -25.5 -29.5c-14 -10.667 -34.333 -16 -61 -16c-10.667 0 -19 0.333008 -25 1c-16.667 2 -49 7.66699 -97 17c-0.666992 0.666992 -1.66699 1 -3 1c-16 4 -30.667 7 -44 9c0 -44.667 -1 -98 -3 -160l-3 -63
c-3.33301 -103.333 -5 -171.333 -5 -204l103 -2c52.667 0 96.334 2.33301 131.001 7c9.33301 0.666992 17.666 -2.16602 24.999 -8.49902s11 -14.5 11 -24.5c0 -8 -2.66699 -15 -8 -21s-12 -9.66699 -20 -11c-36.667 -4.66699 -83 -7 -139 -7l-116 2h-6h-5
c-2 -0.666992 -5 -1 -9 -1c-8.66699 0 -16.167 3.16699 -22.5 9.5s-9.5 14.166 -9.5 23.499c0 41.333 1.66699 121 5 239l3 64c2 64 3 118.667 3 164h-5c-4.66699 0 -9.66699 -0.666992 -15 -2c-1.33301 0 -2.33301 -0.333008 -3 -1v-1c0 -2 0.333008 -3.66699 1 -5
c1.33301 -10 -1.33398 -18.667 -8.00098 -26s-15 -11 -25 -11c-7.33301 0 -14.166 2.66699 -20.499 8s-10.166 11.666 -11.499 18.999c-0.666992 3.33301 -1 8 -1 14z" />
    <glyph glyph-name="Igrave" unicode="&#xcc;" horiz-adv-x="309" 
d="M101 922l22.001 -29l10 -12c15.333 -20 25.333 -33.667 30 -41c4 -6 6 -12 6 -18c0 -10.667 -5 -19.334 -15 -26.001c-6 -4 -12.333 -6 -19 -6c-12 0 -20.667 4.66699 -26 14c-6 9.33301 -15 21.333 -27 36l-4.5 6.5c-1.66699 2.33301 -3.5 4.5 -5.5 6.5
c-12 14.667 -20.333 25.834 -25 33.501s-6 15.5 -4 23.5c1.33301 8.66699 5.66602 15.5 12.999 20.5s15.333 6.83301 24 5.5c8.66699 -2 15.667 -6.66699 21 -14zM71.001 5.5c10 9 22.335 14.166 37.002 15.499h9l-1 205c-0.666992 11.333 -1 28.666 -1 51.999
c0 30 -0.333008 57 -1 81l-2 346v1c-7.33301 0 -14.333 -0.666992 -21 -2h-2c0.666992 -8.66699 -1.83301 -16.5 -7.5 -23.5s-12.834 -10.833 -21.501 -11.5c-8.66699 -1.33301 -16.5 0.833984 -23.5 6.50098s-11.167 13.167 -12.5 22.5c-2 18.667 2 34.167 12 46.5
s24 20.166 42 23.499c8 2 18.333 3 31 3c16.667 0 33 -1.33301 49 -4l20 -3l42 -6c3.33301 6 7.5 10.833 12.5 14.5s10.5 5.5 16.5 5.5c11.333 0 20 -4.16699 26 -12.5s9.33301 -17.833 10 -28.5c0 -10.667 -3 -19.667 -9 -27s-13.667 -12 -23 -14
c-4.66699 -2 -10.334 -3 -17.001 -3h-7c-3.33301 0 -11.666 0.666992 -24.999 2l-27 3l2 -339c0.666992 -23.333 1 -50 1 -80c0 -24.667 0.333008 -43 1 -55l1 -211v-2c15.333 -3.33301 26 -4.33301 32 -3h2v1c0.666992 0.666992 1 2.66699 1 6
c1.33301 8 5.16602 14.833 11.499 20.5s13.5 8.5 21.5 8.5c8.66699 0 16.334 -3.66699 23.001 -11s9.66699 -15.666 9 -24.999c-4 -36 -22.333 -57.333 -55 -64c-8 -1.33301 -13.667 -2 -17 -2c-11.333 0 -28 2.33301 -50 7l-6 1c-20 4 -33 6 -39 6
c-2 -7.33301 -5.83301 -13.166 -11.5 -17.499s-11.834 -6.5 -18.501 -6.5c-11.333 0 -20 4 -26 12s-8.33301 17 -7 27c2.66699 14 9 25.5 19 34.5z" />
    <glyph glyph-name="Iacute" unicode="&#xcd;" horiz-adv-x="309" 
d="M180 853c-0.666992 0 -3.66406 -3.00195 -8.99707 -9.00195l-16 -18c-1.33301 -2 -3.83301 -5.16699 -7.5 -9.5s-7.5 -7.5 -11.5 -9.5s-8.66699 -3 -14 -3c-9.33301 -0.666992 -17.333 2.33301 -24 9s-10 14.334 -10 23.001c0 6.66699 1 11.834 3 15.501
s4.66699 7.16699 8 10.5l8 8l16 17l23 25c9.33301 10 17.166 17.333 23.499 22s13.166 7 20.499 7c9.33301 0 17.166 -3.33301 23.499 -10s9.16602 -14.667 8.49902 -24c-1.33301 -10 -5 -17.667 -11 -23c-9.33301 -6.66699 -19.666 -17 -30.999 -31zM71.0029 5.49805
c10 9 22.335 14.166 37.002 15.499h9l-1 205c-0.666992 11.333 -1 28.666 -1 51.999c0 30 -0.333008 57 -1 81l-2 346v1c-7.33301 0 -14.333 -0.666992 -21 -2h-2c0.666992 -8.66699 -1.83301 -16.5 -7.5 -23.5s-12.834 -10.833 -21.501 -11.5
c-8.66699 -1.33301 -16.5 0.833984 -23.5 6.50098s-11.167 13.167 -12.5 22.5c-2 18.667 2 34.167 12 46.5s24 20.166 42 23.499c8 2 18.333 3 31 3c16.667 0 33 -1.33301 49 -4l20 -3l42 -6c3.33301 6 7.5 10.833 12.5 14.5s10.5 5.5 16.5 5.5
c11.333 0 20 -4.16699 26 -12.5s9.33301 -17.833 10 -28.5c0 -10.667 -3 -19.667 -9 -27s-13.667 -12 -23 -14c-4.66699 -2 -10.334 -3 -17.001 -3h-7c-3.33301 0 -11.666 0.666992 -24.999 2l-27 3l2 -339c0.666992 -23.333 1 -50 1 -80c0 -24.667 0.333008 -43 1 -55
l1 -211v-2c15.333 -3.33301 26 -4.33301 32 -3h2v1c0.666992 0.666992 1 2.66699 1 6c1.33301 8 5.16602 14.833 11.499 20.5s13.5 8.5 21.5 8.5c8.66699 0 16.334 -3.66699 23.001 -11s9.66699 -15.666 9 -24.999c-4 -36 -22.333 -57.333 -55 -64
c-8 -1.33301 -13.667 -2 -17 -2c-11.333 0 -28 2.33301 -50 7l-6 1c-20 4 -33 6 -39 6c-2 -7.33301 -5.83301 -13.166 -11.5 -17.499s-11.834 -6.5 -18.501 -6.5c-11.333 0 -20 4 -26 12s-8.33301 17 -7 27c2.66699 14 9 25.5 19 34.5z" />
    <glyph glyph-name="Icircumflex" unicode="&#xce;" horiz-adv-x="309" 
d="M83 913c14 17.333 29.332 26 45.999 26c6 0 13 -1.66699 21 -5c6.66699 -3.33301 12.5 -8 17.5 -14s10.833 -14 17.5 -24l7 -12l4 -6c0.666992 -2 1.33398 -3.5 2.00098 -4.5s1.33398 -1.83301 2.00098 -2.5l19 -29c3.33301 -6.66699 5 -12.667 5 -18
c0 -12 -4.66699 -21 -14 -27c-6 -4 -12 -6 -18 -6c-11.333 0 -20.333 5 -27 15l-20 31c-0.666992 0.666992 -1.33398 1.5 -2.00098 2.5s-1.33398 2.5 -2.00098 4.5l-4 6l-7 11l-2 3c-6.66699 -8 -20 -28.333 -40 -61c-8 -10 -17 -15 -27 -15c-6 0 -12 2 -18 6
c-10 6 -15 14.667 -15 26c0 5.33301 1.66699 11.333 5 18c22.667 37.333 39.334 62.333 50.001 75zM70.999 5.5c10 9 22.335 14.166 37.002 15.499h9l-1 205c-0.666992 11.333 -1 28.666 -1 51.999c0 30 -0.333008 57 -1 81l-2 346v1c-7.33301 0 -14.333 -0.666992 -21 -2
h-2c0.666992 -8.66699 -1.83301 -16.5 -7.5 -23.5s-12.834 -10.833 -21.501 -11.5c-8.66699 -1.33301 -16.5 0.833984 -23.5 6.50098s-11.167 13.167 -12.5 22.5c-2 18.667 2 34.167 12 46.5s24 20.166 42 23.499c8 2 18.333 3 31 3c16.667 0 33 -1.33301 49 -4l20 -3l42 -6
c3.33301 6 7.5 10.833 12.5 14.5s10.5 5.5 16.5 5.5c11.333 0 20 -4.16699 26 -12.5s9.33301 -17.833 10 -28.5c0 -10.667 -3 -19.667 -9 -27s-13.667 -12 -23 -14c-4.66699 -2 -10.334 -3 -17.001 -3h-7c-3.33301 0 -11.666 0.666992 -24.999 2l-27 3l2 -339
c0.666992 -23.333 1 -50 1 -80c0 -24.667 0.333008 -43 1 -55l1 -211v-2c15.333 -3.33301 26 -4.33301 32 -3h2v1c0.666992 0.666992 1 2.66699 1 6c1.33301 8 5.16602 14.833 11.499 20.5s13.5 8.5 21.5 8.5c8.66699 0 16.334 -3.66699 23.001 -11
s9.66699 -15.666 9 -24.999c-4 -36 -22.333 -57.333 -55 -64c-8 -1.33301 -13.667 -2 -17 -2c-11.333 0 -28 2.33301 -50 7l-6 1c-20 4 -33 6 -39 6c-2 -7.33301 -5.83301 -13.166 -11.5 -17.499s-11.834 -6.5 -18.501 -6.5c-11.333 0 -20 4 -26 12s-8.33301 17 -7 27
c2.66699 14 9 25.5 19 34.5z" />
    <glyph glyph-name="Idieresis" unicode="&#xcf;" horiz-adv-x="309" 
d="M269 848c0 -14 -5.66699 -27.667 -17 -41c-5.33301 -6.66699 -11.833 -12 -19.5 -16s-15.834 -5.33301 -24.501 -4c-13.333 1.33301 -23.166 6.83301 -29.499 16.5s-9.5 21.167 -9.5 34.5c0 24.667 10.667 41.667 32 51l12 5c5.33301 1.33301 9.33301 2 12 2
c10.667 0 19 -4.66699 25 -14l1 -1c12 -8 18 -19 18 -33zM111 844c0 -16 -6.33301 -30.332 -19 -42.999c-11.333 -10 -23.333 -15 -36 -15c-6 0 -10.667 0.666992 -14 2c-20 8 -30 25.667 -30 53c0 10 1.16699 18.667 3.5 26s7.5 13.666 15.5 18.999
c7.33301 4.66699 15 7 23 7c5.33301 0 13.333 -1.33301 24 -4c6 -2 11.667 -6 17 -12c10.667 -8.66699 16 -19.667 16 -33zM71 5.50098c10 9 22.335 14.166 37.002 15.499h9l-1 205c-0.666992 11.333 -1 28.666 -1 51.999c0 30 -0.333008 57 -1 81l-2 346v1
c-7.33301 0 -14.333 -0.666992 -21 -2h-2c0.666992 -8.66699 -1.83301 -16.5 -7.5 -23.5s-12.834 -10.833 -21.501 -11.5c-8.66699 -1.33301 -16.5 0.833984 -23.5 6.50098s-11.167 13.167 -12.5 22.5c-2 18.667 2 34.167 12 46.5s24 20.166 42 23.499c8 2 18.333 3 31 3
c16.667 0 33 -1.33301 49 -4l20 -3l42 -6c3.33301 6 7.5 10.833 12.5 14.5s10.5 5.5 16.5 5.5c11.333 0 20 -4.16699 26 -12.5s9.33301 -17.833 10 -28.5c0 -10.667 -3 -19.667 -9 -27s-13.667 -12 -23 -14c-4.66699 -2 -10.334 -3 -17.001 -3h-7
c-3.33301 0 -11.666 0.666992 -24.999 2l-27 3l2 -339c0.666992 -23.333 1 -50 1 -80c0 -24.667 0.333008 -43 1 -55l1 -211v-2c15.333 -3.33301 26 -4.33301 32 -3h2v1c0.666992 0.666992 1 2.66699 1 6c1.33301 8 5.16602 14.833 11.499 20.5s13.5 8.5 21.5 8.5
c8.66699 0 16.334 -3.66699 23.001 -11s9.66699 -15.666 9 -24.999c-4 -36 -22.333 -57.333 -55 -64c-8 -1.33301 -13.667 -2 -17 -2c-11.333 0 -28 2.33301 -50 7l-6 1c-20 4 -33 6 -39 6c-2 -7.33301 -5.83301 -13.166 -11.5 -17.499s-11.834 -6.5 -18.501 -6.5
c-11.333 0 -20 4 -26 12s-8.33301 17 -7 27c2.66699 14 9 25.5 19 34.5z" />
    <glyph glyph-name="Eth" unicode="&#xd0;" horiz-adv-x="662" 
d="M194 748c113.333 0 209.671 -28.668 289.004 -86.001c43.333 -30 78.166 -66.5 104.499 -109.5s42.166 -88.833 47.499 -137.5c1.33301 -8.66699 2 -21.334 2 -38.001c0 -43.333 -9 -85.166 -27 -125.499s-44 -76.833 -78 -109.5
c-86.667 -84.667 -213.334 -134.667 -380.001 -150h-4c-10 0 -18 3.33301 -24 10c-12.667 4 -20.334 12 -23.001 24c-9.33301 38.667 -14.666 145.667 -15.999 321c-6 0 -15 -0.666992 -27 -2c-16 -1.33301 -28 -2 -36 -2c-8.66699 0 -16.334 3.33301 -23.001 10
s-10 14.334 -10 23.001s3 16 9 22s13 9.33301 21 10l66 4c0.666992 151.333 5.33398 248.333 14.001 291l-2 7c-0.666992 8.66699 1.83301 16.5 7.5 23.5s13.167 10.833 22.5 11.5c23.333 2 45.666 3 66.999 3zM487.005 187.999c28 26.667 49.1699 56.668 63.5029 90.001
s21.5 67.666 21.5 102.999c0 44 -11 86 -33 126s-53 74 -93 102c-70 50 -155.333 75 -256 75l-29 -1c-6.66699 -45.333 -10.334 -135.333 -11.001 -270c18.667 0 35 0.333008 49 1c44.667 0 85 0.666992 121 2c9.33301 0 17.166 -2.83301 23.499 -8.5
s9.83301 -13.167 10.5 -22.5c0 -9.33301 -3 -17.333 -9 -24s-13.333 -10 -22 -10c-37.333 -1.33301 -78.333 -2 -123 -2c-14.667 -0.666992 -31.334 -1 -50.001 -1c0.666992 -142 4.66699 -238.667 12 -290c142.667 14.667 251 58 325 130z" />
    <glyph glyph-name="Ntilde" unicode="&#xd1;" horiz-adv-x="651" 
d="M181 808c0 28.667 7.16992 51 21.5029 67s35.166 24 62.499 24c21.333 0 54 -6.66699 98 -20l10 -3c34 -9.33301 58.333 -14 73 -14s24 3.66699 28 11c1.33301 2 3 5.66699 5 11l1 3c-1.33301 4 -2 7.33301 -2 10c0 14 6.66699 24 20 30c4 2 8 3 12 3
c6.66699 0 12.667 -1.83301 18 -5.5s9.33301 -8.5 12 -14.5c3.33301 -8 5 -15.667 5 -23c0 -16 -5 -31.667 -15 -47c-17.333 -29.333 -44 -44 -80 -44c-20 0 -51.667 6 -95 18l-10 3c-22 6 -40.333 10.5 -55 13.5s-25.667 4.16699 -33 3.5c-4 -0.666992 -6.33301 -2 -7 -4
c-2 -3.33301 -3 -14.666 -3 -33.999c0 -8.66699 -3 -16.334 -9 -23.001s-13.333 -10 -22 -10s-16.334 2.83301 -23.001 8.5s-10.334 12.5 -11.001 20.5zM90.0029 198l0.00292969 85.999v43v51c0 67.333 1 126 3 176s6 97.667 12 143c0.666992 8.66699 4.66699 16 12 22
c2 2 5 4.33301 9 7c5.33301 3.33301 11 5 17 5c12 0 21 -5 27 -15c28.667 -46 87.334 -134.667 176.001 -266l1 -2l140 -210l73 -117c-2.66699 62 -4.33398 99.333 -5.00098 112c-4.66699 61.333 -7 121.666 -7 180.999c0 28.667 1 61.334 3 98.001l2 56
c3.33301 76.667 5 128 5 154c0 9.33301 3.16699 17.166 9.5 23.499s14.166 9.5 23.499 9.5s17 -3.16699 23 -9.5s9 -14.166 9 -23.499c0 -26.667 -1.66699 -79 -5 -157l-2 -56c-2 -42 -3 -76.667 -3 -104c0 -32.667 1 -68 3 -106l4 -62c4.66699 -90 7 -151 7 -183
c0 -12.667 -0.666992 -33 -2 -61c0 -9.33301 -3.33301 -17 -10 -23s-14.667 -8.66699 -24 -8c-8 0 -14.833 2.83301 -20.5 8.5s-9.16699 12.5 -10.5 20.5c-34 61.333 -70.333 122.333 -109 183l-158 238c0 0.666992 -0.333008 1 -1 1l-37 55l-93 140
c-2 -20.667 -3.66699 -53 -5 -97c-1.33301 -45.333 -2 -87.666 -2 -126.999v-57v-43v-86c0 -80.667 -1 -144 -3 -190c-0.666992 -8.66699 -4.33398 -16 -11.001 -22s-14.334 -8.66699 -23.001 -8c-8.66699 0 -16 3.33301 -22 10s-9 14.667 -9 24c2 44 3 106 3 186z" />
    <glyph glyph-name="Ograve" unicode="&#xd2;" horiz-adv-x="674" 
d="M433 836c3.33301 -6.66699 5 -12.668 5 -18.001c0 -11.333 -4.66699 -20 -14 -26c-6 -4 -12.333 -6 -19 -6c-12 0 -20.667 4.66699 -26 14c-21.333 32 -46 65.333 -74 100c-4.66699 5.33301 -7 12 -7 20c0 10.667 4 19.334 12 26.001c5.33301 4.66699 11.666 7 18.999 7
c10.667 0 19.334 -4 26.001 -12c26.667 -32 52.667 -67 78 -105zM632 603.999c12 -48 18.001 -96.002 18.001 -144.002c0 -84 -16.5 -163.333 -49.5 -238s-76.833 -133.667 -131.5 -177c-48 -38 -97 -57 -147 -57c-24.667 0 -47.667 4.33301 -69 13
c-34.667 14.667 -65 40.667 -91 78s-46 81.333 -60 132s-21 102.667 -21 156c0 70.667 12 133 36 187c18 40.667 41.667 76.834 71 108.501s62 56.834 98 75.501c41.333 21.333 83.666 32 126.999 32c30.667 0 60 -6 88 -18c54 -22.667 93.333 -66 118 -130
c6.66699 -4.66699 11 -10.667 13 -18zM516.501 664.997c-28.333 27.333 -62.501 40.998 -102.501 40.998c-30.667 0 -63.334 -8.66699 -98.001 -26c-51.333 -26 -92.666 -66.167 -123.999 -120.5s-47 -117.166 -47 -188.499c0 -40.667 4.66699 -80 14 -118
c16 -67.333 38.167 -117.666 66.5 -150.999s60.5 -50 96.5 -50c33.333 0 69 14.667 107 44c48.667 39.333 86.667 92.333 114 159s41 136.334 41 209.001c0 25.333 -1.33301 47.666 -4 66.999c-4 6.66699 -6.33301 11.667 -7 15c-9.33301 52 -28.166 91.667 -56.499 119z
" />
    <glyph glyph-name="Oacute" unicode="&#xd3;" horiz-adv-x="674" 
d="M437 855l-39 -55.999c-7.33301 -9.33301 -16 -14 -26 -14c-6 0 -12.333 2.33301 -19 7c-8.66699 6.66699 -13 15.667 -13 27c0 6.66699 2 13 6 19c5.33301 7.33301 17.333 25 36 53c19.333 28.667 33.666 48.667 42.999 60c6.66699 8.66699 15.334 13 26.001 13
c8 0 14.667 -2.33301 20 -7c8 -6.66699 12 -15.334 12 -26.001c0 -8.66699 -2.33301 -15.667 -7 -21c-6 -8 -19 -26.333 -39 -55zM632 604.001c12 -48 18.001 -96.002 18.001 -144.002c0 -84 -16.5 -163.333 -49.5 -238s-76.833 -133.667 -131.5 -177
c-48 -38 -97 -57 -147 -57c-24.667 0 -47.667 4.33301 -69 13c-34.667 14.667 -65 40.667 -91 78s-46 81.333 -60 132s-21 102.667 -21 156c0 70.667 12 133 36 187c18 40.667 41.667 76.834 71 108.501s62 56.834 98 75.501c41.333 21.333 83.666 32 126.999 32
c30.667 0 60 -6 88 -18c54 -22.667 93.333 -66 118 -130c6.66699 -4.66699 11 -10.667 13 -18zM516.501 664.999c-28.333 27.333 -62.501 40.998 -102.501 40.998c-30.667 0 -63.334 -8.66699 -98.001 -26c-51.333 -26 -92.666 -66.167 -123.999 -120.5
s-47 -117.166 -47 -188.499c0 -40.667 4.66699 -80 14 -118c16 -67.333 38.167 -117.666 66.5 -150.999s60.5 -50 96.5 -50c33.333 0 69 14.667 107 44c48.667 39.333 86.667 92.333 114 159s41 136.334 41 209.001c0 25.333 -1.33301 47.666 -4 66.999
c-4 6.66699 -6.33301 11.667 -7 15c-9.33301 52 -28.166 91.667 -56.499 119z" />
    <glyph glyph-name="Ocircumflex" unicode="&#xd4;" horiz-adv-x="674" 
d="M298 861c4 6 6.33496 9.33398 7.00195 10.001c0.666992 1.33301 1.66699 3 3 5s2.66602 3.66699 3.99902 5l13.5 17l11.5 14c10 12 19.333 21.167 28 27.5s18.667 9.5 30 9.5c20 0 39 -10.667 57 -32c2.66699 -2.66699 11.334 -12.667 26.001 -30l14 -17l18 -24
c4.66699 -5.33301 7 -12 7 -20c0 -10.667 -4 -19 -12 -25c-6.66699 -5.33301 -13.667 -8 -21 -8c-10 0 -18.333 4.33301 -25 13l-19 23l-13 17c-8.66699 11.333 -16.334 20.333 -23.001 27l-8 8c-4 -4 -7 -7.66699 -9 -11c-3.33301 -3.33301 -6.83301 -7.5 -10.5 -12.5
s-7.83398 -10.167 -12.501 -15.5l-4 -5c-2 -2.66699 -3 -4.33398 -3 -5.00098l-8 -10l-10 -14c-4.66699 -6.66699 -9.5 -11.667 -14.5 -15s-10.833 -5 -17.5 -5c-8 0 -15.167 2.5 -21.5 7.5s-9.83301 11.833 -10.5 20.5v4c0 7.33301 2 14 6 20
c3.33301 4.66699 9 11.667 17 21zM632.002 604.001c12 -48 18.001 -96.002 18.001 -144.002c0 -84 -16.5 -163.333 -49.5 -238s-76.833 -133.667 -131.5 -177c-48 -38 -97 -57 -147 -57c-24.667 0 -47.667 4.33301 -69 13c-34.667 14.667 -65 40.667 -91 78
s-46 81.333 -60 132s-21 102.667 -21 156c0 70.667 12 133 36 187c18 40.667 41.667 76.834 71 108.501s62 56.834 98 75.501c41.333 21.333 83.666 32 126.999 32c30.667 0 60 -6 88 -18c54 -22.667 93.333 -66 118 -130c6.66699 -4.66699 11 -10.667 13 -18z
M516.503 664.999c-28.333 27.333 -62.501 40.998 -102.501 40.998c-30.667 0 -63.334 -8.66699 -98.001 -26c-51.333 -26 -92.666 -66.167 -123.999 -120.5s-47 -117.166 -47 -188.499c0 -40.667 4.66699 -80 14 -118c16 -67.333 38.167 -117.666 66.5 -150.999
s60.5 -50 96.5 -50c33.333 0 69 14.667 107 44c48.667 39.333 86.667 92.333 114 159s41 136.334 41 209.001c0 25.333 -1.33301 47.666 -4 66.999c-4 6.66699 -6.33301 11.667 -7 15c-9.33301 52 -28.166 91.667 -56.499 119z" />
    <glyph glyph-name="Otilde" unicode="&#xd5;" horiz-adv-x="674" 
d="M329 923c24.667 0 54.998 -6.33105 90.998 -18.998l19 -7c18.667 -6.66699 34.334 -11.834 47.001 -15.501s23 -5.83398 31 -6.50098c3.33301 -1.33301 6 -1.33301 8 0h1l1 4v3c-3.33301 5.33301 -5 11 -5 17c0 12 4.33301 21.333 13 28
c7.33301 4.66699 13.666 7 18.999 7c10 0 18.667 -4.66699 26 -14c8 -10.667 12 -23.667 12 -39c0 -12.667 -2.83301 -24.5 -8.5 -35.5s-13.5 -19.5 -23.5 -25.5c-10.667 -6.66699 -23.667 -10 -39 -10s-34 3.33301 -56 10l-47 16l-19 7
c-29.333 10.667 -52.666 16 -69.999 16c-4.66699 0 -8 -0.333008 -10 -1c-6 -0.666992 -11 -3 -15 -7c-5.33301 -6.66699 -9 -17 -11 -31c-1.33301 -7.33301 -5.16602 -13.666 -11.499 -18.999s-13.166 -8 -20.499 -8c-9.33301 0 -17.333 3.66699 -24 11
s-9.33398 15.666 -8.00098 24.999c8 62.667 41.333 94 100 94zM631.998 604.002c12 -48 18.001 -96.002 18.001 -144.002c0 -84 -16.5 -163.333 -49.5 -238s-76.833 -133.667 -131.5 -177c-48 -38 -97 -57 -147 -57c-24.667 0 -47.667 4.33301 -69 13
c-34.667 14.667 -65 40.667 -91 78s-46 81.333 -60 132s-21 102.667 -21 156c0 70.667 12 133 36 187c18 40.667 41.667 76.834 71 108.501s62 56.834 98 75.501c41.333 21.333 83.666 32 126.999 32c30.667 0 60 -6 88 -18c54 -22.667 93.333 -66 118 -130
c6.66699 -4.66699 11 -10.667 13 -18zM516.499 665c-28.333 27.333 -62.501 40.998 -102.501 40.998c-30.667 0 -63.334 -8.66699 -98.001 -26c-51.333 -26 -92.666 -66.167 -123.999 -120.5s-47 -117.166 -47 -188.499c0 -40.667 4.66699 -80 14 -118
c16 -67.333 38.167 -117.666 66.5 -150.999s60.5 -50 96.5 -50c33.333 0 69 14.667 107 44c48.667 39.333 86.667 92.333 114 159s41 136.334 41 209.001c0 25.333 -1.33301 47.666 -4 66.999c-4 6.66699 -6.33301 11.667 -7 15c-9.33301 52 -28.166 91.667 -56.499 119z
" />
    </font>
</defs>
</svg>
