<?xml version="1.0" encoding="utf-8"?>
<!-- Generator: Adobe Illustrator 22.1.0, SVG Export Plug-In . SVG Version: 6.00 Build 0)  -->
<svg version="1.1" id="Layer_1" xmlns:sketch="http://www.bohemiancoding.com/sketch/ns"
	 xmlns="http://www.w3.org/2000/svg" xmlns:xlink="http://www.w3.org/1999/xlink" x="0px" y="0px" viewBox="0 0 20 20"
	 style="enable-background:new 0 0 20 20;" xml:space="preserve">
<style type="text/css">
	.st0{fill:#FFFFFF;}
</style>
<title></title>
<desc></desc>
<g id="Icons-AV" transform="translate(-42.000000, -85.000000)">
	<g id="pause-circle-outline" transform="translate(42.000000, 85.000000)">
		<path id="Shape" class="st0" d="M7,14h2V6H7V14L7,14z M10,0C4.5,0,0,4.5,0,10s4.5,10,10,10s10-4.5,10-10S15.5,0,10,0L10,0z M10,18
			c-4.4,0-8-3.6-8-8s3.6-8,8-8s8,3.6,8,8S14.4,18,10,18L10,18z M11,14h2V6h-2V14L11,14z"/>
	</g>
</g>
</svg>
